<?xml version="1.0" encoding="utf-8" standalone="no"?>
<!DOCTYPE svg PUBLIC "-//W3C//DTD SVG 1.1//EN"
  "http://www.w3.org/Graphics/SVG/1.1/DTD/svg11.dtd">
<svg xmlns:xlink="http://www.w3.org/1999/xlink" width="1382.4pt" height="736.56pt" viewBox="0 0 1382.4 736.56" xmlns="http://www.w3.org/2000/svg" version="1.1">
 <metadata>
  <rdf:RDF xmlns:dc="http://purl.org/dc/elements/1.1/" xmlns:cc="http://creativecommons.org/ns#" xmlns:rdf="http://www.w3.org/1999/02/22-rdf-syntax-ns#">
   <cc:Work>
    <dc:type rdf:resource="http://purl.org/dc/dcmitype/StillImage"/>
    <dc:date>2023-05-25T00:20:32.555717</dc:date>
    <dc:format>image/svg+xml</dc:format>
    <dc:creator>
     <cc:Agent>
      <dc:title>Matplotlib v3.6.2, https://matplotlib.org/</dc:title>
     </cc:Agent>
    </dc:creator>
   </cc:Work>
  </rdf:RDF>
 </metadata>
 <defs>
  <style type="text/css">*{stroke-linejoin: round; stroke-linecap: butt}</style>
 </defs>
 <g id="figure_1">
  <g id="patch_1">
   <path d="M 0 736.56 
L 1382.4 736.56 
L 1382.4 0 
L 0 0 
z
" style="fill: #ffffff"/>
  </g>
  <g id="axes_1">
   <g id="patch_2">
    <path d="M 47.72 668 
L 1371.6 668 
L 1371.6 26.88 
L 47.72 26.88 
z
" style="fill: #ffffff"/>
   </g>
   <g id="patch_3">
    <path d="M 102.881667 668 
L 106.967716 668 
L 106.967716 653.062294 
L 102.881667 653.062294 
z
" clip-path="url(#pe60c0dd472)" style="fill: #1f77b4"/>
   </g>
   <g id="patch_4">
    <path d="M 323.528333 668 
L 327.614383 668 
L 327.614383 652.985493 
L 323.528333 652.985493 
z
" clip-path="url(#pe60c0dd472)" style="fill: #1f77b4"/>
   </g>
   <g id="patch_5">
    <path d="M 544.175 668 
L 548.261049 668 
L 548.261049 647.737503 
L 544.175 647.737503 
z
" clip-path="url(#pe60c0dd472)" style="fill: #1f77b4"/>
   </g>
   <g id="patch_6">
    <path d="M 764.821667 668 
L 768.907716 668 
L 768.907716 596.030451 
L 764.821667 596.030451 
z
" clip-path="url(#pe60c0dd472)" style="fill: #1f77b4"/>
   </g>
   <g id="patch_7">
    <path d="M 985.468333 668 
L 989.554383 668 
L 989.554383 648.644246 
L 985.468333 648.644246 
z
" clip-path="url(#pe60c0dd472)" style="fill: #1f77b4"/>
   </g>
   <g id="patch_8">
    <path d="M 1206.115 668 
L 1210.201049 668 
L 1210.201049 652.517134 
L 1206.115 652.517134 
z
" clip-path="url(#pe60c0dd472)" style="fill: #1f77b4"/>
   </g>
   <g id="patch_9">
    <path d="M 106.967716 668 
L 111.053765 668 
L 111.053765 626.114663 
L 106.967716 626.114663 
z
" clip-path="url(#pe60c0dd472)" style="fill: #ff7f0e"/>
   </g>
   <g id="patch_10">
    <path d="M 327.614383 668 
L 331.700432 668 
L 331.700432 625.023086 
L 327.614383 625.023086 
z
" clip-path="url(#pe60c0dd472)" style="fill: #ff7f0e"/>
   </g>
   <g id="patch_11">
    <path d="M 548.261049 668 
L 552.347099 668 
L 552.347099 621.751794 
L 548.261049 621.751794 
z
" clip-path="url(#pe60c0dd472)" style="fill: #ff7f0e"/>
   </g>
   <g id="patch_12">
    <path d="M 768.907716 668 
L 772.993765 668 
L 772.993765 516.657702 
L 768.907716 516.657702 
z
" clip-path="url(#pe60c0dd472)" style="fill: #ff7f0e"/>
   </g>
   <g id="patch_13">
    <path d="M 989.554383 668 
L 993.640432 668 
L 993.640432 612.374483 
L 989.554383 612.374483 
z
" clip-path="url(#pe60c0dd472)" style="fill: #ff7f0e"/>
   </g>
   <g id="patch_14">
    <path d="M 1210.201049 668 
L 1214.287099 668 
L 1214.287099 623.149019 
L 1210.201049 623.149019 
z
" clip-path="url(#pe60c0dd472)" style="fill: #ff7f0e"/>
   </g>
   <g id="patch_15">
    <path d="M 111.053765 668 
L 115.139815 668 
L 115.139815 612.447546 
L 111.053765 612.447546 
z
" clip-path="url(#pe60c0dd472)" style="fill: #2ca02c"/>
   </g>
   <g id="patch_16">
    <path d="M 331.700432 668 
L 335.786481 668 
L 335.786481 612.777659 
L 331.700432 612.777659 
z
" clip-path="url(#pe60c0dd472)" style="fill: #2ca02c"/>
   </g>
   <g id="patch_17">
    <path d="M 552.347099 668 
L 556.433148 668 
L 556.433148 609.235172 
L 552.347099 609.235172 
z
" clip-path="url(#pe60c0dd472)" style="fill: #2ca02c"/>
   </g>
   <g id="patch_18">
    <path d="M 772.993765 668 
L 777.079815 668 
L 777.079815 578.978569 
L 772.993765 578.978569 
z
" clip-path="url(#pe60c0dd472)" style="fill: #2ca02c"/>
   </g>
   <g id="patch_19">
    <path d="M 993.640432 668 
L 997.726481 668 
L 997.726481 603.177193 
L 993.640432 603.177193 
z
" clip-path="url(#pe60c0dd472)" style="fill: #2ca02c"/>
   </g>
   <g id="patch_20">
    <path d="M 1214.287099 668 
L 1218.373148 668 
L 1218.373148 612.82201 
L 1214.287099 612.82201 
z
" clip-path="url(#pe60c0dd472)" style="fill: #2ca02c"/>
   </g>
   <g id="patch_21">
    <path d="M 115.139815 668 
L 119.225864 668 
L 119.225864 629.971666 
L 115.139815 629.971666 
z
" clip-path="url(#pe60c0dd472)" style="fill: #d62728"/>
   </g>
   <g id="patch_22">
    <path d="M 335.786481 668 
L 339.872531 668 
L 339.872531 627.169918 
L 335.786481 627.169918 
z
" clip-path="url(#pe60c0dd472)" style="fill: #d62728"/>
   </g>
   <g id="patch_23">
    <path d="M 556.433148 668 
L 560.519198 668 
L 560.519198 605.983323 
L 556.433148 605.983323 
z
" clip-path="url(#pe60c0dd472)" style="fill: #d62728"/>
   </g>
   <g id="patch_24">
    <path d="M 777.079815 668 
L 781.165864 668 
L 781.165864 348.000976 
L 777.079815 348.000976 
z
" clip-path="url(#pe60c0dd472)" style="fill: #d62728"/>
   </g>
   <g id="patch_25">
    <path d="M 997.726481 668 
L 1001.812531 668 
L 1001.812531 604.574916 
L 997.726481 604.574916 
z
" clip-path="url(#pe60c0dd472)" style="fill: #d62728"/>
   </g>
   <g id="patch_26">
    <path d="M 1218.373148 668 
L 1222.459198 668 
L 1222.459198 622.715578 
L 1218.373148 622.715578 
z
" clip-path="url(#pe60c0dd472)" style="fill: #d62728"/>
   </g>
   <g id="patch_27">
    <path d="M 119.225864 668 
L 123.311914 668 
L 123.311914 653.141115 
L 119.225864 653.141115 
z
" clip-path="url(#pe60c0dd472)" style="fill: #9467bd"/>
   </g>
   <g id="patch_28">
    <path d="M 339.872531 668 
L 343.95858 668 
L 343.95858 653.144344 
L 339.872531 653.144344 
z
" clip-path="url(#pe60c0dd472)" style="fill: #9467bd"/>
   </g>
   <g id="patch_29">
    <path d="M 560.519198 668 
L 564.605247 668 
L 564.605247 649.820725 
L 560.519198 649.820725 
z
" clip-path="url(#pe60c0dd472)" style="fill: #9467bd"/>
   </g>
   <g id="patch_30">
    <path d="M 781.165864 668 
L 785.251914 668 
L 785.251914 597.283704 
L 781.165864 597.283704 
z
" clip-path="url(#pe60c0dd472)" style="fill: #9467bd"/>
   </g>
   <g id="patch_31">
    <path d="M 1001.812531 668 
L 1005.89858 668 
L 1005.89858 650.173983 
L 1001.812531 650.173983 
z
" clip-path="url(#pe60c0dd472)" style="fill: #9467bd"/>
   </g>
   <g id="patch_32">
    <path d="M 1222.459198 668 
L 1226.545247 668 
L 1226.545247 652.763751 
L 1222.459198 652.763751 
z
" clip-path="url(#pe60c0dd472)" style="fill: #9467bd"/>
   </g>
   <g id="patch_33">
    <path d="M 123.311914 668 
L 127.397963 668 
L 127.397963 654.036271 
L 123.311914 654.036271 
z
" clip-path="url(#pe60c0dd472)" style="fill: #8c564b"/>
   </g>
   <g id="patch_34">
    <path d="M 343.95858 668 
L 348.04463 668 
L 348.04463 653.863603 
L 343.95858 653.863603 
z
" clip-path="url(#pe60c0dd472)" style="fill: #8c564b"/>
   </g>
   <g id="patch_35">
    <path d="M 564.605247 668 
L 568.691296 668 
L 568.691296 650.548897 
L 564.605247 650.548897 
z
" clip-path="url(#pe60c0dd472)" style="fill: #8c564b"/>
   </g>
   <g id="patch_36">
    <path d="M 785.251914 668 
L 789.337963 668 
L 789.337963 598.710889 
L 785.251914 598.710889 
z
" clip-path="url(#pe60c0dd472)" style="fill: #8c564b"/>
   </g>
   <g id="patch_37">
    <path d="M 1005.89858 668 
L 1009.98463 668 
L 1009.98463 651.542547 
L 1005.89858 651.542547 
z
" clip-path="url(#pe60c0dd472)" style="fill: #8c564b"/>
   </g>
   <g id="patch_38">
    <path d="M 1226.545247 668 
L 1230.631296 668 
L 1230.631296 653.510691 
L 1226.545247 653.510691 
z
" clip-path="url(#pe60c0dd472)" style="fill: #8c564b"/>
   </g>
   <g id="patch_39">
    <path d="M 127.397963 668 
L 131.484012 668 
L 131.484012 629.971666 
L 127.397963 629.971666 
z
" clip-path="url(#pe60c0dd472)" style="fill: #e377c2"/>
   </g>
   <g id="patch_40">
    <path d="M 348.04463 668 
L 352.130679 668 
L 352.130679 627.169918 
L 348.04463 627.169918 
z
" clip-path="url(#pe60c0dd472)" style="fill: #e377c2"/>
   </g>
   <g id="patch_41">
    <path d="M 568.691296 668 
L 572.777346 668 
L 572.777346 605.983323 
L 568.691296 605.983323 
z
" clip-path="url(#pe60c0dd472)" style="fill: #e377c2"/>
   </g>
   <g id="patch_42">
    <path d="M 789.337963 668 
L 793.424012 668 
L 793.424012 348.000976 
L 789.337963 348.000976 
z
" clip-path="url(#pe60c0dd472)" style="fill: #e377c2"/>
   </g>
   <g id="patch_43">
    <path d="M 1009.98463 668 
L 1014.070679 668 
L 1014.070679 604.574916 
L 1009.98463 604.574916 
z
" clip-path="url(#pe60c0dd472)" style="fill: #e377c2"/>
   </g>
   <g id="patch_44">
    <path d="M 1230.631296 668 
L 1234.717346 668 
L 1234.717346 622.715578 
L 1230.631296 622.715578 
z
" clip-path="url(#pe60c0dd472)" style="fill: #e377c2"/>
   </g>
   <g id="patch_45">
    <path d="M 131.484012 668 
L 135.570062 668 
L 135.570062 630.661165 
L 131.484012 630.661165 
z
" clip-path="url(#pe60c0dd472)" style="fill: #7f7f7f"/>
   </g>
   <g id="patch_46">
    <path d="M 352.130679 668 
L 356.216728 668 
L 356.216728 625.459008 
L 352.130679 625.459008 
z
" clip-path="url(#pe60c0dd472)" style="fill: #7f7f7f"/>
   </g>
   <g id="patch_47">
    <path d="M 572.777346 668 
L 576.863395 668 
L 576.863395 594.636057 
L 572.777346 594.636057 
z
" clip-path="url(#pe60c0dd472)" style="fill: #7f7f7f"/>
   </g>
   <g id="patch_48">
    <path d="M 793.424012 668 
L 797.510062 668 
L 797.510062 57.409524 
L 793.424012 57.409524 
z
" clip-path="url(#pe60c0dd472)" style="fill: #7f7f7f"/>
   </g>
   <g id="patch_49">
    <path d="M 1014.070679 668 
L 1018.156728 668 
L 1018.156728 598.735366 
L 1014.070679 598.735366 
z
" clip-path="url(#pe60c0dd472)" style="fill: #7f7f7f"/>
   </g>
   <g id="patch_50">
    <path d="M 1234.717346 668 
L 1238.803395 668 
L 1238.803395 624.761375 
L 1234.717346 624.761375 
z
" clip-path="url(#pe60c0dd472)" style="fill: #7f7f7f"/>
   </g>
   <g id="patch_51">
    <path d="M 135.570062 668 
L 139.656111 668 
L 139.656111 653.34058 
L 135.570062 653.34058 
z
" clip-path="url(#pe60c0dd472)" style="fill: #bcbd22"/>
   </g>
   <g id="patch_52">
    <path d="M 356.216728 668 
L 360.302778 668 
L 360.302778 653.302083 
L 356.216728 653.302083 
z
" clip-path="url(#pe60c0dd472)" style="fill: #bcbd22"/>
   </g>
   <g id="patch_53">
    <path d="M 576.863395 668 
L 580.949444 668 
L 580.949444 650.139887 
L 576.863395 650.139887 
z
" clip-path="url(#pe60c0dd472)" style="fill: #bcbd22"/>
   </g>
   <g id="patch_54">
    <path d="M 797.510062 668 
L 801.596111 668 
L 801.596111 597.656062 
L 797.510062 597.656062 
z
" clip-path="url(#pe60c0dd472)" style="fill: #bcbd22"/>
   </g>
   <g id="patch_55">
    <path d="M 1018.156728 668 
L 1022.242778 668 
L 1022.242778 650.539957 
L 1018.156728 650.539957 
z
" clip-path="url(#pe60c0dd472)" style="fill: #bcbd22"/>
   </g>
   <g id="patch_56">
    <path d="M 1238.803395 668 
L 1242.889444 668 
L 1242.889444 652.791854 
L 1238.803395 652.791854 
z
" clip-path="url(#pe60c0dd472)" style="fill: #bcbd22"/>
   </g>
   <g id="patch_57">
    <path d="M 139.656111 668 
L 143.74216 668 
L 143.74216 650.150501 
L 139.656111 650.150501 
z
" clip-path="url(#pe60c0dd472)" style="fill: #17becf"/>
   </g>
   <g id="patch_58">
    <path d="M 360.302778 668 
L 364.388827 668 
L 364.388827 649.955964 
L 360.302778 649.955964 
z
" clip-path="url(#pe60c0dd472)" style="fill: #17becf"/>
   </g>
   <g id="patch_59">
    <path d="M 580.949444 668 
L 585.035494 668 
L 585.035494 644.765008 
L 580.949444 644.765008 
z
" clip-path="url(#pe60c0dd472)" style="fill: #17becf"/>
   </g>
   <g id="patch_60">
    <path d="M 801.596111 668 
L 805.68216 668 
L 805.68216 564.560036 
L 801.596111 564.560036 
z
" clip-path="url(#pe60c0dd472)" style="fill: #17becf"/>
   </g>
   <g id="patch_61">
    <path d="M 1022.242778 668 
L 1026.328827 668 
L 1026.328827 645.729194 
L 1022.242778 645.729194 
z
" clip-path="url(#pe60c0dd472)" style="fill: #17becf"/>
   </g>
   <g id="patch_62">
    <path d="M 1242.889444 668 
L 1246.975494 668 
L 1246.975494 649.381776 
L 1242.889444 649.381776 
z
" clip-path="url(#pe60c0dd472)" style="fill: #17becf"/>
   </g>
   <g id="patch_63">
    <path d="M 143.74216 668 
L 147.82821 668 
L 147.82821 619.694555 
L 143.74216 619.694555 
z
" clip-path="url(#pe60c0dd472)" style="fill: #1f77b4"/>
   </g>
   <g id="patch_64">
    <path d="M 364.388827 668 
L 368.474877 668 
L 368.474877 616.094009 
L 364.388827 616.094009 
z
" clip-path="url(#pe60c0dd472)" style="fill: #1f77b4"/>
   </g>
   <g id="patch_65">
    <path d="M 585.035494 668 
L 589.121543 668 
L 589.121543 582.447155 
L 585.035494 582.447155 
z
" clip-path="url(#pe60c0dd472)" style="fill: #1f77b4"/>
   </g>
   <g id="patch_66">
    <path d="M 805.68216 668 
L 809.76821 668 
L 809.76821 164.926973 
L 805.68216 164.926973 
z
" clip-path="url(#pe60c0dd472)" style="fill: #1f77b4"/>
   </g>
   <g id="patch_67">
    <path d="M 1026.328827 668 
L 1030.414877 668 
L 1030.414877 587.684816 
L 1026.328827 587.684816 
z
" clip-path="url(#pe60c0dd472)" style="fill: #1f77b4"/>
   </g>
   <g id="patch_68">
    <path d="M 1246.975494 668 
L 1251.061543 668 
L 1251.061543 613.552171 
L 1246.975494 613.552171 
z
" clip-path="url(#pe60c0dd472)" style="fill: #1f77b4"/>
   </g>
   <g id="patch_69">
    <path d="M 147.82821 668 
L 151.914259 668 
L 151.914259 634.015882 
L 147.82821 634.015882 
z
" clip-path="url(#pe60c0dd472)" style="fill: #ff7f0e"/>
   </g>
   <g id="patch_70">
    <path d="M 368.474877 668 
L 372.560926 668 
L 372.560926 633.572988 
L 368.474877 633.572988 
z
" clip-path="url(#pe60c0dd472)" style="fill: #ff7f0e"/>
   </g>
   <g id="patch_71">
    <path d="M 589.121543 668 
L 593.207593 668 
L 593.207593 595.571325 
L 589.121543 595.571325 
z
" clip-path="url(#pe60c0dd472)" style="fill: #ff7f0e"/>
   </g>
   <g id="patch_72">
    <path d="M 809.76821 668 
L 813.854259 668 
L 813.854259 142.128573 
L 809.76821 142.128573 
z
" clip-path="url(#pe60c0dd472)" style="fill: #ff7f0e"/>
   </g>
   <g id="patch_73">
    <path d="M 1030.414877 668 
L 1034.500926 668 
L 1034.500926 601.673365 
L 1030.414877 601.673365 
z
" clip-path="url(#pe60c0dd472)" style="fill: #ff7f0e"/>
   </g>
   <g id="patch_74">
    <path d="M 1251.061543 668 
L 1255.147593 668 
L 1255.147593 635.633254 
L 1251.061543 635.633254 
z
" clip-path="url(#pe60c0dd472)" style="fill: #ff7f0e"/>
   </g>
   <g id="patch_75">
    <path d="M 151.914259 668 
L 156.000309 668 
L 156.000309 654.018489 
L 151.914259 654.018489 
z
" clip-path="url(#pe60c0dd472)" style="fill: #2ca02c"/>
   </g>
   <g id="patch_76">
    <path d="M 372.560926 668 
L 376.646975 668 
L 376.646975 653.797232 
L 372.560926 653.797232 
z
" clip-path="url(#pe60c0dd472)" style="fill: #2ca02c"/>
   </g>
   <g id="patch_77">
    <path d="M 593.207593 668 
L 597.293642 668 
L 597.293642 650.624828 
L 593.207593 650.624828 
z
" clip-path="url(#pe60c0dd472)" style="fill: #2ca02c"/>
   </g>
   <g id="patch_78">
    <path d="M 813.854259 668 
L 817.940309 668 
L 817.940309 598.329367 
L 813.854259 598.329367 
z
" clip-path="url(#pe60c0dd472)" style="fill: #2ca02c"/>
   </g>
   <g id="patch_79">
    <path d="M 1034.500926 668 
L 1038.586975 668 
L 1038.586975 651.051012 
L 1034.500926 651.051012 
z
" clip-path="url(#pe60c0dd472)" style="fill: #2ca02c"/>
   </g>
   <g id="patch_80">
    <path d="M 1255.147593 668 
L 1259.233642 668 
L 1259.233642 653.398521 
L 1255.147593 653.398521 
z
" clip-path="url(#pe60c0dd472)" style="fill: #2ca02c"/>
   </g>
   <g id="patch_81">
    <path d="M 156.000309 668 
L 160.086358 668 
L 160.086358 629.769013 
L 156.000309 629.769013 
z
" clip-path="url(#pe60c0dd472)" style="fill: #d62728"/>
   </g>
   <g id="patch_82">
    <path d="M 376.646975 668 
L 380.733025 668 
L 380.733025 626.06959 
L 376.646975 626.06959 
z
" clip-path="url(#pe60c0dd472)" style="fill: #d62728"/>
   </g>
   <g id="patch_83">
    <path d="M 597.293642 668 
L 601.379691 668 
L 601.379691 605.865165 
L 597.293642 605.865165 
z
" clip-path="url(#pe60c0dd472)" style="fill: #d62728"/>
   </g>
   <g id="patch_84">
    <path d="M 817.940309 668 
L 822.026358 668 
L 822.026358 341.042106 
L 817.940309 341.042106 
z
" clip-path="url(#pe60c0dd472)" style="fill: #d62728"/>
   </g>
   <g id="patch_85">
    <path d="M 1038.586975 668 
L 1042.673025 668 
L 1042.673025 605.662776 
L 1038.586975 605.662776 
z
" clip-path="url(#pe60c0dd472)" style="fill: #d62728"/>
   </g>
   <g id="patch_86">
    <path d="M 1259.233642 668 
L 1263.319691 668 
L 1263.319691 622.215968 
L 1259.233642 622.215968 
z
" clip-path="url(#pe60c0dd472)" style="fill: #d62728"/>
   </g>
   <g id="patch_87">
    <path d="M 160.086358 668 
L 164.172407 668 
L 164.172407 623.219869 
L 160.086358 623.219869 
z
" clip-path="url(#pe60c0dd472)" style="fill: #9467bd"/>
   </g>
   <g id="patch_88">
    <path d="M 380.733025 668 
L 384.819074 668 
L 384.819074 622.226988 
L 380.733025 622.226988 
z
" clip-path="url(#pe60c0dd472)" style="fill: #9467bd"/>
   </g>
   <g id="patch_89">
    <path d="M 601.379691 668 
L 605.465741 668 
L 605.465741 618.972145 
L 601.379691 618.972145 
z
" clip-path="url(#pe60c0dd472)" style="fill: #9467bd"/>
   </g>
   <g id="patch_90">
    <path d="M 822.026358 668 
L 826.112407 668 
L 826.112407 515.122625 
L 822.026358 515.122625 
z
" clip-path="url(#pe60c0dd472)" style="fill: #9467bd"/>
   </g>
   <g id="patch_91">
    <path d="M 1042.673025 668 
L 1046.759074 668 
L 1046.759074 612.167282 
L 1042.673025 612.167282 
z
" clip-path="url(#pe60c0dd472)" style="fill: #9467bd"/>
   </g>
   <g id="patch_92">
    <path d="M 1263.319691 668 
L 1267.405741 668 
L 1267.405741 620.592633 
L 1263.319691 620.592633 
z
" clip-path="url(#pe60c0dd472)" style="fill: #9467bd"/>
   </g>
   <g id="patch_93">
    <path d="M 164.172407 668 
L 168.258457 668 
L 168.258457 636.904006 
L 164.172407 636.904006 
z
" clip-path="url(#pe60c0dd472)" style="fill: #8c564b"/>
   </g>
   <g id="patch_94">
    <path d="M 384.819074 668 
L 388.905123 668 
L 388.905123 635.377175 
L 384.819074 635.377175 
z
" clip-path="url(#pe60c0dd472)" style="fill: #8c564b"/>
   </g>
   <g id="patch_95">
    <path d="M 605.465741 668 
L 609.55179 668 
L 609.55179 600.833451 
L 605.465741 600.833451 
z
" clip-path="url(#pe60c0dd472)" style="fill: #8c564b"/>
   </g>
   <g id="patch_96">
    <path d="M 826.112407 668 
L 830.198457 668 
L 830.198457 179.921706 
L 826.112407 179.921706 
z
" clip-path="url(#pe60c0dd472)" style="fill: #8c564b"/>
   </g>
   <g id="patch_97">
    <path d="M 1046.759074 668 
L 1050.845123 668 
L 1050.845123 607.828117 
L 1046.759074 607.828117 
z
" clip-path="url(#pe60c0dd472)" style="fill: #8c564b"/>
   </g>
   <g id="patch_98">
    <path d="M 1267.405741 668 
L 1271.49179 668 
L 1271.49179 633.028294 
L 1267.405741 633.028294 
z
" clip-path="url(#pe60c0dd472)" style="fill: #8c564b"/>
   </g>
   <g id="patch_99">
    <path d="M 168.258457 668 
L 172.344506 668 
L 172.344506 623.993377 
L 168.258457 623.993377 
z
" clip-path="url(#pe60c0dd472)" style="fill: #e377c2"/>
   </g>
   <g id="patch_100">
    <path d="M 388.905123 668 
L 392.991173 668 
L 392.991173 622.6391 
L 388.905123 622.6391 
z
" clip-path="url(#pe60c0dd472)" style="fill: #e377c2"/>
   </g>
   <g id="patch_101">
    <path d="M 609.55179 668 
L 613.63784 668 
L 613.63784 615.514992 
L 609.55179 615.514992 
z
" clip-path="url(#pe60c0dd472)" style="fill: #e377c2"/>
   </g>
   <g id="patch_102">
    <path d="M 830.198457 668 
L 834.284506 668 
L 834.284506 523.319022 
L 830.198457 523.319022 
z
" clip-path="url(#pe60c0dd472)" style="fill: #e377c2"/>
   </g>
   <g id="patch_103">
    <path d="M 1050.845123 668 
L 1054.931173 668 
L 1054.931173 609.929821 
L 1050.845123 609.929821 
z
" clip-path="url(#pe60c0dd472)" style="fill: #e377c2"/>
   </g>
   <g id="patch_104">
    <path d="M 1271.49179 668 
L 1275.57784 668 
L 1275.57784 620.470257 
L 1271.49179 620.470257 
z
" clip-path="url(#pe60c0dd472)" style="fill: #e377c2"/>
   </g>
   <g id="patch_105">
    <path d="M 172.344506 668 
L 176.430556 668 
L 176.430556 616.999187 
L 172.344506 616.999187 
z
" clip-path="url(#pe60c0dd472)" style="fill: #7f7f7f"/>
   </g>
   <g id="patch_106">
    <path d="M 392.991173 668 
L 397.077222 668 
L 397.077222 617.373588 
L 392.991173 617.373588 
z
" clip-path="url(#pe60c0dd472)" style="fill: #7f7f7f"/>
   </g>
   <g id="patch_107">
    <path d="M 613.63784 668 
L 617.723889 668 
L 617.723889 611.055189 
L 613.63784 611.055189 
z
" clip-path="url(#pe60c0dd472)" style="fill: #7f7f7f"/>
   </g>
   <g id="patch_108">
    <path d="M 834.284506 668 
L 838.370556 668 
L 838.370556 502.512217 
L 834.284506 502.512217 
z
" clip-path="url(#pe60c0dd472)" style="fill: #7f7f7f"/>
   </g>
   <g id="patch_109">
    <path d="M 1054.931173 668 
L 1059.017222 668 
L 1059.017222 606.505906 
L 1054.931173 606.505906 
z
" clip-path="url(#pe60c0dd472)" style="fill: #7f7f7f"/>
   </g>
   <g id="patch_110">
    <path d="M 1275.57784 668 
L 1279.663889 668 
L 1279.663889 616.397663 
L 1275.57784 616.397663 
z
" clip-path="url(#pe60c0dd472)" style="fill: #7f7f7f"/>
   </g>
   <g id="patch_111">
    <path d="M 176.430556 668 
L 180.516605 668 
L 180.516605 619.436615 
L 176.430556 619.436615 
z
" clip-path="url(#pe60c0dd472)" style="fill: #bcbd22"/>
   </g>
   <g id="patch_112">
    <path d="M 397.077222 668 
L 401.163272 668 
L 401.163272 616.044561 
L 397.077222 616.044561 
z
" clip-path="url(#pe60c0dd472)" style="fill: #bcbd22"/>
   </g>
   <g id="patch_113">
    <path d="M 617.723889 668 
L 621.809938 668 
L 621.809938 580.768569 
L 617.723889 580.768569 
z
" clip-path="url(#pe60c0dd472)" style="fill: #bcbd22"/>
   </g>
   <g id="patch_114">
    <path d="M 838.370556 668 
L 842.456605 668 
L 842.456605 164.262614 
L 838.370556 164.262614 
z
" clip-path="url(#pe60c0dd472)" style="fill: #bcbd22"/>
   </g>
   <g id="patch_115">
    <path d="M 1059.017222 668 
L 1063.103272 668 
L 1063.103272 587.804937 
L 1059.017222 587.804937 
z
" clip-path="url(#pe60c0dd472)" style="fill: #bcbd22"/>
   </g>
   <g id="patch_116">
    <path d="M 1279.663889 668 
L 1283.749938 668 
L 1283.749938 613.108794 
L 1279.663889 613.108794 
z
" clip-path="url(#pe60c0dd472)" style="fill: #bcbd22"/>
   </g>
   <g id="patch_117">
    <path d="M 180.516605 668 
L 184.602654 668 
L 184.602654 653.10062 
L 180.516605 653.10062 
z
" clip-path="url(#pe60c0dd472)" style="fill: #17becf"/>
   </g>
   <g id="patch_118">
    <path d="M 401.163272 668 
L 405.249321 668 
L 405.249321 652.824065 
L 401.163272 652.824065 
z
" clip-path="url(#pe60c0dd472)" style="fill: #17becf"/>
   </g>
   <g id="patch_119">
    <path d="M 621.809938 668 
L 625.895988 668 
L 625.895988 649.277394 
L 621.809938 649.277394 
z
" clip-path="url(#pe60c0dd472)" style="fill: #17becf"/>
   </g>
   <g id="patch_120">
    <path d="M 842.456605 668 
L 846.542654 668 
L 846.542654 597.33976 
L 842.456605 597.33976 
z
" clip-path="url(#pe60c0dd472)" style="fill: #17becf"/>
   </g>
   <g id="patch_121">
    <path d="M 1063.103272 668 
L 1067.189321 668 
L 1067.189321 650.309288 
L 1063.103272 650.309288 
z
" clip-path="url(#pe60c0dd472)" style="fill: #17becf"/>
   </g>
   <g id="patch_122">
    <path d="M 1283.749938 668 
L 1287.835988 668 
L 1287.835988 652.360623 
L 1283.749938 652.360623 
z
" clip-path="url(#pe60c0dd472)" style="fill: #17becf"/>
   </g>
   <g id="patch_123">
    <path d="M 184.602654 668 
L 188.688704 668 
L 188.688704 651.852997 
L 184.602654 651.852997 
z
" clip-path="url(#pe60c0dd472)" style="fill: #1f77b4"/>
   </g>
   <g id="patch_124">
    <path d="M 405.249321 668 
L 409.33537 668 
L 409.33537 651.472351 
L 405.249321 651.472351 
z
" clip-path="url(#pe60c0dd472)" style="fill: #1f77b4"/>
   </g>
   <g id="patch_125">
    <path d="M 625.895988 668 
L 629.982037 668 
L 629.982037 647.280041 
L 625.895988 647.280041 
z
" clip-path="url(#pe60c0dd472)" style="fill: #1f77b4"/>
   </g>
   <g id="patch_126">
    <path d="M 846.542654 668 
L 850.628704 668 
L 850.628704 589.345815 
L 846.542654 589.345815 
z
" clip-path="url(#pe60c0dd472)" style="fill: #1f77b4"/>
   </g>
   <g id="patch_127">
    <path d="M 1067.189321 668 
L 1071.27537 668 
L 1071.27537 648.030107 
L 1067.189321 648.030107 
z
" clip-path="url(#pe60c0dd472)" style="fill: #1f77b4"/>
   </g>
   <g id="patch_128">
    <path d="M 1287.835988 668 
L 1291.922037 668 
L 1291.922037 650.926831 
L 1287.835988 650.926831 
z
" clip-path="url(#pe60c0dd472)" style="fill: #1f77b4"/>
   </g>
   <g id="patch_129">
    <path d="M 188.688704 668 
L 192.774753 668 
L 192.774753 648.6735 
L 188.688704 648.6735 
z
" clip-path="url(#pe60c0dd472)" style="fill: #ff7f0e"/>
   </g>
   <g id="patch_130">
    <path d="M 409.33537 668 
L 413.42142 668 
L 413.42142 648.950513 
L 409.33537 648.950513 
z
" clip-path="url(#pe60c0dd472)" style="fill: #ff7f0e"/>
   </g>
   <g id="patch_131">
    <path d="M 629.982037 668 
L 634.068086 668 
L 634.068086 647.115373 
L 629.982037 647.115373 
z
" clip-path="url(#pe60c0dd472)" style="fill: #ff7f0e"/>
   </g>
   <g id="patch_132">
    <path d="M 850.628704 668 
L 854.714753 668 
L 854.714753 587.768035 
L 850.628704 587.768035 
z
" clip-path="url(#pe60c0dd472)" style="fill: #ff7f0e"/>
   </g>
   <g id="patch_133">
    <path d="M 1071.27537 668 
L 1075.36142 668 
L 1075.36142 643.478338 
L 1071.27537 643.478338 
z
" clip-path="url(#pe60c0dd472)" style="fill: #ff7f0e"/>
   </g>
   <g id="patch_134">
    <path d="M 1291.922037 668 
L 1296.008086 668 
L 1296.008086 648.757282 
L 1291.922037 648.757282 
z
" clip-path="url(#pe60c0dd472)" style="fill: #ff7f0e"/>
   </g>
   <g id="patch_135">
    <path d="M 192.774753 668 
L 196.860802 668 
L 196.860802 653.454464 
L 192.774753 653.454464 
z
" clip-path="url(#pe60c0dd472)" style="fill: #2ca02c"/>
   </g>
   <g id="patch_136">
    <path d="M 413.42142 668 
L 417.507469 668 
L 417.507469 653.0799 
L 413.42142 653.0799 
z
" clip-path="url(#pe60c0dd472)" style="fill: #2ca02c"/>
   </g>
   <g id="patch_137">
    <path d="M 634.068086 668 
L 638.154136 668 
L 638.154136 649.935337 
L 634.068086 649.935337 
z
" clip-path="url(#pe60c0dd472)" style="fill: #2ca02c"/>
   </g>
   <g id="patch_138">
    <path d="M 854.714753 668 
L 858.800802 668 
L 858.800802 597.74032 
L 854.714753 597.74032 
z
" clip-path="url(#pe60c0dd472)" style="fill: #2ca02c"/>
   </g>
   <g id="patch_139">
    <path d="M 1075.36142 668 
L 1079.447469 668 
L 1079.447469 650.388789 
L 1075.36142 650.388789 
z
" clip-path="url(#pe60c0dd472)" style="fill: #2ca02c"/>
   </g>
   <g id="patch_140">
    <path d="M 1296.008086 668 
L 1300.094136 668 
L 1300.094136 652.84872 
L 1296.008086 652.84872 
z
" clip-path="url(#pe60c0dd472)" style="fill: #2ca02c"/>
   </g>
   <g id="patch_141">
    <path d="M 196.860802 668 
L 200.946852 668 
L 200.946852 653.117864 
L 196.860802 653.117864 
z
" clip-path="url(#pe60c0dd472)" style="fill: #d62728"/>
   </g>
   <g id="patch_142">
    <path d="M 417.507469 668 
L 421.593519 668 
L 421.593519 652.872831 
L 417.507469 652.872831 
z
" clip-path="url(#pe60c0dd472)" style="fill: #d62728"/>
   </g>
   <g id="patch_143">
    <path d="M 638.154136 668 
L 642.240185 668 
L 642.240185 649.783611 
L 638.154136 649.783611 
z
" clip-path="url(#pe60c0dd472)" style="fill: #d62728"/>
   </g>
   <g id="patch_144">
    <path d="M 858.800802 668 
L 862.886852 668 
L 862.886852 597.095527 
L 858.800802 597.095527 
z
" clip-path="url(#pe60c0dd472)" style="fill: #d62728"/>
   </g>
   <g id="patch_145">
    <path d="M 1079.447469 668 
L 1083.533519 668 
L 1083.533519 649.959738 
L 1079.447469 649.959738 
z
" clip-path="url(#pe60c0dd472)" style="fill: #d62728"/>
   </g>
   <g id="patch_146">
    <path d="M 1300.094136 668 
L 1304.180185 668 
L 1304.180185 652.638123 
L 1300.094136 652.638123 
z
" clip-path="url(#pe60c0dd472)" style="fill: #d62728"/>
   </g>
   <g id="patch_147">
    <path d="M 200.946852 668 
L 205.032901 668 
L 205.032901 629.764785 
L 200.946852 629.764785 
z
" clip-path="url(#pe60c0dd472)" style="fill: #9467bd"/>
   </g>
   <g id="patch_148">
    <path d="M 421.593519 668 
L 425.679568 668 
L 425.679568 629.225581 
L 421.593519 629.225581 
z
" clip-path="url(#pe60c0dd472)" style="fill: #9467bd"/>
   </g>
   <g id="patch_149">
    <path d="M 642.240185 668 
L 646.326235 668 
L 646.326235 602.934568 
L 642.240185 602.934568 
z
" clip-path="url(#pe60c0dd472)" style="fill: #9467bd"/>
   </g>
   <g id="patch_150">
    <path d="M 862.886852 668 
L 866.972901 668 
L 866.972901 328.474551 
L 862.886852 328.474551 
z
" clip-path="url(#pe60c0dd472)" style="fill: #9467bd"/>
   </g>
   <g id="patch_151">
    <path d="M 1083.533519 668 
L 1087.619568 668 
L 1087.619568 601.267594 
L 1083.533519 601.267594 
z
" clip-path="url(#pe60c0dd472)" style="fill: #9467bd"/>
   </g>
   <g id="patch_152">
    <path d="M 1304.180185 668 
L 1308.266235 668 
L 1308.266235 621.327487 
L 1304.180185 621.327487 
z
" clip-path="url(#pe60c0dd472)" style="fill: #9467bd"/>
   </g>
   <g id="patch_153">
    <path d="M 205.032901 668 
L 209.118951 668 
L 209.118951 653.861152 
L 205.032901 653.861152 
z
" clip-path="url(#pe60c0dd472)" style="fill: #8c564b"/>
   </g>
   <g id="patch_154">
    <path d="M 425.679568 668 
L 429.765617 668 
L 429.765617 653.402782 
L 425.679568 653.402782 
z
" clip-path="url(#pe60c0dd472)" style="fill: #8c564b"/>
   </g>
   <g id="patch_155">
    <path d="M 646.326235 668 
L 650.412284 668 
L 650.412284 649.736227 
L 646.326235 649.736227 
z
" clip-path="url(#pe60c0dd472)" style="fill: #8c564b"/>
   </g>
   <g id="patch_156">
    <path d="M 866.972901 668 
L 871.058951 668 
L 871.058951 598.156233 
L 866.972901 598.156233 
z
" clip-path="url(#pe60c0dd472)" style="fill: #8c564b"/>
   </g>
   <g id="patch_157">
    <path d="M 1087.619568 668 
L 1091.705617 668 
L 1091.705617 650.354996 
L 1087.619568 650.354996 
z
" clip-path="url(#pe60c0dd472)" style="fill: #8c564b"/>
   </g>
   <g id="patch_158">
    <path d="M 1308.266235 668 
L 1312.352284 668 
L 1312.352284 652.809722 
L 1308.266235 652.809722 
z
" clip-path="url(#pe60c0dd472)" style="fill: #8c564b"/>
   </g>
   <g id="patch_159">
    <path d="M 209.118951 668 
L 213.205 668 
L 213.205 634.363584 
L 209.118951 634.363584 
z
" clip-path="url(#pe60c0dd472)" style="fill: #e377c2"/>
   </g>
   <g id="patch_160">
    <path d="M 429.765617 668 
L 433.851667 668 
L 433.851667 633.358532 
L 429.765617 633.358532 
z
" clip-path="url(#pe60c0dd472)" style="fill: #e377c2"/>
   </g>
   <g id="patch_161">
    <path d="M 650.412284 668 
L 654.498333 668 
L 654.498333 595.668287 
L 650.412284 595.668287 
z
" clip-path="url(#pe60c0dd472)" style="fill: #e377c2"/>
   </g>
   <g id="patch_162">
    <path d="M 871.058951 668 
L 875.145 668 
L 875.145 142.250154 
L 871.058951 142.250154 
z
" clip-path="url(#pe60c0dd472)" style="fill: #e377c2"/>
   </g>
   <g id="patch_163">
    <path d="M 1091.705617 668 
L 1095.791667 668 
L 1095.791667 601.844065 
L 1091.705617 601.844065 
z
" clip-path="url(#pe60c0dd472)" style="fill: #e377c2"/>
   </g>
   <g id="patch_164">
    <path d="M 1312.352284 668 
L 1316.438333 668 
L 1316.438333 635.465761 
L 1312.352284 635.465761 
z
" clip-path="url(#pe60c0dd472)" style="fill: #e377c2"/>
   </g>
   <g id="matplotlib.axis_1">
    <g id="xtick_1">
     <g id="line2d_1">
      <defs>
       <path id="m603d672055" d="M 0 0 
L 0 3.5 
" style="stroke: #000000; stroke-width: 0.8"/>
      </defs>
      <g>
       <use xlink:href="#m603d672055" x="158.043333" y="668" style="stroke: #000000; stroke-width: 0.8"/>
      </g>
     </g>
     <g id="text_1">
      <!-- winewhite -->
      <g transform="translate(160.802708 725.814063) rotate(-90) scale(0.1 -0.1)">
       <defs>
        <path id="DejaVuSans-77" d="M 269 3500 
L 844 3500 
L 1563 769 
L 2278 3500 
L 2956 3500 
L 3675 769 
L 4391 3500 
L 4966 3500 
L 4050 0 
L 3372 0 
L 2619 2869 
L 1863 0 
L 1184 0 
L 269 3500 
z
" transform="scale(0.015625)"/>
        <path id="DejaVuSans-69" d="M 603 3500 
L 1178 3500 
L 1178 0 
L 603 0 
L 603 3500 
z
M 603 4863 
L 1178 4863 
L 1178 4134 
L 603 4134 
L 603 4863 
z
" transform="scale(0.015625)"/>
        <path id="DejaVuSans-6e" d="M 3513 2113 
L 3513 0 
L 2938 0 
L 2938 2094 
Q 2938 2591 2744 2837 
Q 2550 3084 2163 3084 
Q 1697 3084 1428 2787 
Q 1159 2491 1159 1978 
L 1159 0 
L 581 0 
L 581 3500 
L 1159 3500 
L 1159 2956 
Q 1366 3272 1645 3428 
Q 1925 3584 2291 3584 
Q 2894 3584 3203 3211 
Q 3513 2838 3513 2113 
z
" transform="scale(0.015625)"/>
        <path id="DejaVuSans-65" d="M 3597 1894 
L 3597 1613 
L 953 1613 
Q 991 1019 1311 708 
Q 1631 397 2203 397 
Q 2534 397 2845 478 
Q 3156 559 3463 722 
L 3463 178 
Q 3153 47 2828 -22 
Q 2503 -91 2169 -91 
Q 1331 -91 842 396 
Q 353 884 353 1716 
Q 353 2575 817 3079 
Q 1281 3584 2069 3584 
Q 2775 3584 3186 3129 
Q 3597 2675 3597 1894 
z
M 3022 2063 
Q 3016 2534 2758 2815 
Q 2500 3097 2075 3097 
Q 1594 3097 1305 2825 
Q 1016 2553 972 2059 
L 3022 2063 
z
" transform="scale(0.015625)"/>
        <path id="DejaVuSans-68" d="M 3513 2113 
L 3513 0 
L 2938 0 
L 2938 2094 
Q 2938 2591 2744 2837 
Q 2550 3084 2163 3084 
Q 1697 3084 1428 2787 
Q 1159 2491 1159 1978 
L 1159 0 
L 581 0 
L 581 4863 
L 1159 4863 
L 1159 2956 
Q 1366 3272 1645 3428 
Q 1925 3584 2291 3584 
Q 2894 3584 3203 3211 
Q 3513 2838 3513 2113 
z
" transform="scale(0.015625)"/>
        <path id="DejaVuSans-74" d="M 1172 4494 
L 1172 3500 
L 2356 3500 
L 2356 3053 
L 1172 3053 
L 1172 1153 
Q 1172 725 1289 603 
Q 1406 481 1766 481 
L 2356 481 
L 2356 0 
L 1766 0 
Q 1100 0 847 248 
Q 594 497 594 1153 
L 594 3053 
L 172 3053 
L 172 3500 
L 594 3500 
L 594 4494 
L 1172 4494 
z
" transform="scale(0.015625)"/>
       </defs>
       <use xlink:href="#DejaVuSans-77"/>
       <use xlink:href="#DejaVuSans-69" x="81.787109"/>
       <use xlink:href="#DejaVuSans-6e" x="109.570312"/>
       <use xlink:href="#DejaVuSans-65" x="172.949219"/>
       <use xlink:href="#DejaVuSans-77" x="234.472656"/>
       <use xlink:href="#DejaVuSans-68" x="316.259766"/>
       <use xlink:href="#DejaVuSans-69" x="379.638672"/>
       <use xlink:href="#DejaVuSans-74" x="407.421875"/>
       <use xlink:href="#DejaVuSans-65" x="446.630859"/>
      </g>
     </g>
    </g>
    <g id="xtick_2">
     <g id="line2d_2">
      <g>
       <use xlink:href="#m603d672055" x="378.69" y="668" style="stroke: #000000; stroke-width: 0.8"/>
      </g>
     </g>
     <g id="text_2">
      <!-- winered -->
      <g transform="translate(381.449375 714.834375) rotate(-90) scale(0.1 -0.1)">
       <defs>
        <path id="DejaVuSans-72" d="M 2631 2963 
Q 2534 3019 2420 3045 
Q 2306 3072 2169 3072 
Q 1681 3072 1420 2755 
Q 1159 2438 1159 1844 
L 1159 0 
L 581 0 
L 581 3500 
L 1159 3500 
L 1159 2956 
Q 1341 3275 1631 3429 
Q 1922 3584 2338 3584 
Q 2397 3584 2469 3576 
Q 2541 3569 2628 3553 
L 2631 2963 
z
" transform="scale(0.015625)"/>
        <path id="DejaVuSans-64" d="M 2906 2969 
L 2906 4863 
L 3481 4863 
L 3481 0 
L 2906 0 
L 2906 525 
Q 2725 213 2448 61 
Q 2172 -91 1784 -91 
Q 1150 -91 751 415 
Q 353 922 353 1747 
Q 353 2572 751 3078 
Q 1150 3584 1784 3584 
Q 2172 3584 2448 3432 
Q 2725 3281 2906 2969 
z
M 947 1747 
Q 947 1113 1208 752 
Q 1469 391 1925 391 
Q 2381 391 2643 752 
Q 2906 1113 2906 1747 
Q 2906 2381 2643 2742 
Q 2381 3103 1925 3103 
Q 1469 3103 1208 2742 
Q 947 2381 947 1747 
z
" transform="scale(0.015625)"/>
       </defs>
       <use xlink:href="#DejaVuSans-77"/>
       <use xlink:href="#DejaVuSans-69" x="81.787109"/>
       <use xlink:href="#DejaVuSans-6e" x="109.570312"/>
       <use xlink:href="#DejaVuSans-65" x="172.949219"/>
       <use xlink:href="#DejaVuSans-72" x="234.472656"/>
       <use xlink:href="#DejaVuSans-65" x="273.335938"/>
       <use xlink:href="#DejaVuSans-64" x="334.859375"/>
      </g>
     </g>
    </g>
    <g id="xtick_3">
     <g id="line2d_3">
      <g>
       <use xlink:href="#m603d672055" x="599.336667" y="668" style="stroke: #000000; stroke-width: 0.8"/>
      </g>
     </g>
     <g id="text_3">
      <!-- cardio -->
      <g transform="translate(602.096042 705.807813) rotate(-90) scale(0.1 -0.1)">
       <defs>
        <path id="DejaVuSans-63" d="M 3122 3366 
L 3122 2828 
Q 2878 2963 2633 3030 
Q 2388 3097 2138 3097 
Q 1578 3097 1268 2742 
Q 959 2388 959 1747 
Q 959 1106 1268 751 
Q 1578 397 2138 397 
Q 2388 397 2633 464 
Q 2878 531 3122 666 
L 3122 134 
Q 2881 22 2623 -34 
Q 2366 -91 2075 -91 
Q 1284 -91 818 406 
Q 353 903 353 1747 
Q 353 2603 823 3093 
Q 1294 3584 2113 3584 
Q 2378 3584 2631 3529 
Q 2884 3475 3122 3366 
z
" transform="scale(0.015625)"/>
        <path id="DejaVuSans-61" d="M 2194 1759 
Q 1497 1759 1228 1600 
Q 959 1441 959 1056 
Q 959 750 1161 570 
Q 1363 391 1709 391 
Q 2188 391 2477 730 
Q 2766 1069 2766 1631 
L 2766 1759 
L 2194 1759 
z
M 3341 1997 
L 3341 0 
L 2766 0 
L 2766 531 
Q 2569 213 2275 61 
Q 1981 -91 1556 -91 
Q 1019 -91 701 211 
Q 384 513 384 1019 
Q 384 1609 779 1909 
Q 1175 2209 1959 2209 
L 2766 2209 
L 2766 2266 
Q 2766 2663 2505 2880 
Q 2244 3097 1772 3097 
Q 1472 3097 1187 3025 
Q 903 2953 641 2809 
L 641 3341 
Q 956 3463 1253 3523 
Q 1550 3584 1831 3584 
Q 2591 3584 2966 3190 
Q 3341 2797 3341 1997 
z
" transform="scale(0.015625)"/>
        <path id="DejaVuSans-6f" d="M 1959 3097 
Q 1497 3097 1228 2736 
Q 959 2375 959 1747 
Q 959 1119 1226 758 
Q 1494 397 1959 397 
Q 2419 397 2687 759 
Q 2956 1122 2956 1747 
Q 2956 2369 2687 2733 
Q 2419 3097 1959 3097 
z
M 1959 3584 
Q 2709 3584 3137 3096 
Q 3566 2609 3566 1747 
Q 3566 888 3137 398 
Q 2709 -91 1959 -91 
Q 1206 -91 779 398 
Q 353 888 353 1747 
Q 353 2609 779 3096 
Q 1206 3584 1959 3584 
z
" transform="scale(0.015625)"/>
       </defs>
       <use xlink:href="#DejaVuSans-63"/>
       <use xlink:href="#DejaVuSans-61" x="54.980469"/>
       <use xlink:href="#DejaVuSans-72" x="116.259766"/>
       <use xlink:href="#DejaVuSans-64" x="155.623047"/>
       <use xlink:href="#DejaVuSans-69" x="219.099609"/>
       <use xlink:href="#DejaVuSans-6f" x="246.882812"/>
      </g>
     </g>
    </g>
    <g id="xtick_4">
     <g id="line2d_4">
      <g>
       <use xlink:href="#m603d672055" x="819.983333" y="668" style="stroke: #000000; stroke-width: 0.8"/>
      </g>
     </g>
     <g id="text_4">
      <!-- gasId -->
      <g transform="translate(822.742708 701.984375) rotate(-90) scale(0.1 -0.1)">
       <defs>
        <path id="DejaVuSans-67" d="M 2906 1791 
Q 2906 2416 2648 2759 
Q 2391 3103 1925 3103 
Q 1463 3103 1205 2759 
Q 947 2416 947 1791 
Q 947 1169 1205 825 
Q 1463 481 1925 481 
Q 2391 481 2648 825 
Q 2906 1169 2906 1791 
z
M 3481 434 
Q 3481 -459 3084 -895 
Q 2688 -1331 1869 -1331 
Q 1566 -1331 1297 -1286 
Q 1028 -1241 775 -1147 
L 775 -588 
Q 1028 -725 1275 -790 
Q 1522 -856 1778 -856 
Q 2344 -856 2625 -561 
Q 2906 -266 2906 331 
L 2906 616 
Q 2728 306 2450 153 
Q 2172 0 1784 0 
Q 1141 0 747 490 
Q 353 981 353 1791 
Q 353 2603 747 3093 
Q 1141 3584 1784 3584 
Q 2172 3584 2450 3431 
Q 2728 3278 2906 2969 
L 2906 3500 
L 3481 3500 
L 3481 434 
z
" transform="scale(0.015625)"/>
        <path id="DejaVuSans-73" d="M 2834 3397 
L 2834 2853 
Q 2591 2978 2328 3040 
Q 2066 3103 1784 3103 
Q 1356 3103 1142 2972 
Q 928 2841 928 2578 
Q 928 2378 1081 2264 
Q 1234 2150 1697 2047 
L 1894 2003 
Q 2506 1872 2764 1633 
Q 3022 1394 3022 966 
Q 3022 478 2636 193 
Q 2250 -91 1575 -91 
Q 1294 -91 989 -36 
Q 684 19 347 128 
L 347 722 
Q 666 556 975 473 
Q 1284 391 1588 391 
Q 1994 391 2212 530 
Q 2431 669 2431 922 
Q 2431 1156 2273 1281 
Q 2116 1406 1581 1522 
L 1381 1569 
Q 847 1681 609 1914 
Q 372 2147 372 2553 
Q 372 3047 722 3315 
Q 1072 3584 1716 3584 
Q 2034 3584 2315 3537 
Q 2597 3491 2834 3397 
z
" transform="scale(0.015625)"/>
        <path id="DejaVuSans-49" d="M 628 4666 
L 1259 4666 
L 1259 0 
L 628 0 
L 628 4666 
z
" transform="scale(0.015625)"/>
       </defs>
       <use xlink:href="#DejaVuSans-67"/>
       <use xlink:href="#DejaVuSans-61" x="63.476562"/>
       <use xlink:href="#DejaVuSans-73" x="124.755859"/>
       <use xlink:href="#DejaVuSans-49" x="176.855469"/>
       <use xlink:href="#DejaVuSans-64" x="206.347656"/>
      </g>
     </g>
    </g>
    <g id="xtick_5">
     <g id="line2d_5">
      <g>
       <use xlink:href="#m603d672055" x="1040.63" y="668" style="stroke: #000000; stroke-width: 0.8"/>
      </g>
     </g>
     <g id="text_5">
      <!-- pendigits -->
      <g transform="translate(1043.389375 721.221875) rotate(-90) scale(0.1 -0.1)">
       <defs>
        <path id="DejaVuSans-70" d="M 1159 525 
L 1159 -1331 
L 581 -1331 
L 581 3500 
L 1159 3500 
L 1159 2969 
Q 1341 3281 1617 3432 
Q 1894 3584 2278 3584 
Q 2916 3584 3314 3078 
Q 3713 2572 3713 1747 
Q 3713 922 3314 415 
Q 2916 -91 2278 -91 
Q 1894 -91 1617 61 
Q 1341 213 1159 525 
z
M 3116 1747 
Q 3116 2381 2855 2742 
Q 2594 3103 2138 3103 
Q 1681 3103 1420 2742 
Q 1159 2381 1159 1747 
Q 1159 1113 1420 752 
Q 1681 391 2138 391 
Q 2594 391 2855 752 
Q 3116 1113 3116 1747 
z
" transform="scale(0.015625)"/>
       </defs>
       <use xlink:href="#DejaVuSans-70"/>
       <use xlink:href="#DejaVuSans-65" x="63.476562"/>
       <use xlink:href="#DejaVuSans-6e" x="125"/>
       <use xlink:href="#DejaVuSans-64" x="188.378906"/>
       <use xlink:href="#DejaVuSans-69" x="251.855469"/>
       <use xlink:href="#DejaVuSans-67" x="279.638672"/>
       <use xlink:href="#DejaVuSans-69" x="343.115234"/>
       <use xlink:href="#DejaVuSans-74" x="370.898438"/>
       <use xlink:href="#DejaVuSans-73" x="410.107422"/>
      </g>
     </g>
    </g>
    <g id="xtick_6">
     <g id="line2d_6">
      <g>
       <use xlink:href="#m603d672055" x="1261.276667" y="668" style="stroke: #000000; stroke-width: 0.8"/>
      </g>
     </g>
     <g id="text_6">
      <!-- Har -->
      <g transform="translate(1264.036042 692.759375) rotate(-90) scale(0.1 -0.1)">
       <defs>
        <path id="DejaVuSans-48" d="M 628 4666 
L 1259 4666 
L 1259 2753 
L 3553 2753 
L 3553 4666 
L 4184 4666 
L 4184 0 
L 3553 0 
L 3553 2222 
L 1259 2222 
L 1259 0 
L 628 0 
L 628 4666 
z
" transform="scale(0.015625)"/>
       </defs>
       <use xlink:href="#DejaVuSans-48"/>
       <use xlink:href="#DejaVuSans-61" x="75.195312"/>
       <use xlink:href="#DejaVuSans-72" x="136.474609"/>
      </g>
     </g>
    </g>
   </g>
   <g id="matplotlib.axis_2">
    <g id="ytick_1">
     <g id="line2d_7">
      <defs>
       <path id="m4cbecb9876" d="M 0 0 
L -3.5 0 
" style="stroke: #000000; stroke-width: 0.8"/>
      </defs>
      <g>
       <use xlink:href="#m4cbecb9876" x="47.72" y="668" style="stroke: #000000; stroke-width: 0.8"/>
      </g>
     </g>
     <g id="text_7">
      <!-- 0.0 -->
      <g transform="translate(24.816875 671.799219) scale(0.1 -0.1)">
       <defs>
        <path id="DejaVuSans-30" d="M 2034 4250 
Q 1547 4250 1301 3770 
Q 1056 3291 1056 2328 
Q 1056 1369 1301 889 
Q 1547 409 2034 409 
Q 2525 409 2770 889 
Q 3016 1369 3016 2328 
Q 3016 3291 2770 3770 
Q 2525 4250 2034 4250 
z
M 2034 4750 
Q 2819 4750 3233 4129 
Q 3647 3509 3647 2328 
Q 3647 1150 3233 529 
Q 2819 -91 2034 -91 
Q 1250 -91 836 529 
Q 422 1150 422 2328 
Q 422 3509 836 4129 
Q 1250 4750 2034 4750 
z
" transform="scale(0.015625)"/>
        <path id="DejaVuSans-2e" d="M 684 794 
L 1344 794 
L 1344 0 
L 684 0 
L 684 794 
z
" transform="scale(0.015625)"/>
       </defs>
       <use xlink:href="#DejaVuSans-30"/>
       <use xlink:href="#DejaVuSans-2e" x="63.623047"/>
       <use xlink:href="#DejaVuSans-30" x="95.410156"/>
      </g>
     </g>
    </g>
    <g id="ytick_2">
     <g id="line2d_8">
      <g>
       <use xlink:href="#m4cbecb9876" x="47.72" y="574.632969" style="stroke: #000000; stroke-width: 0.8"/>
      </g>
     </g>
     <g id="text_8">
      <!-- 0.5 -->
      <g transform="translate(24.816875 578.432188) scale(0.1 -0.1)">
       <defs>
        <path id="DejaVuSans-35" d="M 691 4666 
L 3169 4666 
L 3169 4134 
L 1269 4134 
L 1269 2991 
Q 1406 3038 1543 3061 
Q 1681 3084 1819 3084 
Q 2600 3084 3056 2656 
Q 3513 2228 3513 1497 
Q 3513 744 3044 326 
Q 2575 -91 1722 -91 
Q 1428 -91 1123 -41 
Q 819 9 494 109 
L 494 744 
Q 775 591 1075 516 
Q 1375 441 1709 441 
Q 2250 441 2565 725 
Q 2881 1009 2881 1497 
Q 2881 1984 2565 2268 
Q 2250 2553 1709 2553 
Q 1456 2553 1204 2497 
Q 953 2441 691 2322 
L 691 4666 
z
" transform="scale(0.015625)"/>
       </defs>
       <use xlink:href="#DejaVuSans-30"/>
       <use xlink:href="#DejaVuSans-2e" x="63.623047"/>
       <use xlink:href="#DejaVuSans-35" x="95.410156"/>
      </g>
     </g>
    </g>
    <g id="ytick_3">
     <g id="line2d_9">
      <g>
       <use xlink:href="#m4cbecb9876" x="47.72" y="481.265938" style="stroke: #000000; stroke-width: 0.8"/>
      </g>
     </g>
     <g id="text_9">
      <!-- 1.0 -->
      <g transform="translate(24.816875 485.065156) scale(0.1 -0.1)">
       <defs>
        <path id="DejaVuSans-31" d="M 794 531 
L 1825 531 
L 1825 4091 
L 703 3866 
L 703 4441 
L 1819 4666 
L 2450 4666 
L 2450 531 
L 3481 531 
L 3481 0 
L 794 0 
L 794 531 
z
" transform="scale(0.015625)"/>
       </defs>
       <use xlink:href="#DejaVuSans-31"/>
       <use xlink:href="#DejaVuSans-2e" x="63.623047"/>
       <use xlink:href="#DejaVuSans-30" x="95.410156"/>
      </g>
     </g>
    </g>
    <g id="ytick_4">
     <g id="line2d_10">
      <g>
       <use xlink:href="#m4cbecb9876" x="47.72" y="387.898907" style="stroke: #000000; stroke-width: 0.8"/>
      </g>
     </g>
     <g id="text_10">
      <!-- 1.5 -->
      <g transform="translate(24.816875 391.698125) scale(0.1 -0.1)">
       <use xlink:href="#DejaVuSans-31"/>
       <use xlink:href="#DejaVuSans-2e" x="63.623047"/>
       <use xlink:href="#DejaVuSans-35" x="95.410156"/>
      </g>
     </g>
    </g>
    <g id="ytick_5">
     <g id="line2d_11">
      <g>
       <use xlink:href="#m4cbecb9876" x="47.72" y="294.531875" style="stroke: #000000; stroke-width: 0.8"/>
      </g>
     </g>
     <g id="text_11">
      <!-- 2.0 -->
      <g transform="translate(24.816875 298.331094) scale(0.1 -0.1)">
       <defs>
        <path id="DejaVuSans-32" d="M 1228 531 
L 3431 531 
L 3431 0 
L 469 0 
L 469 531 
Q 828 903 1448 1529 
Q 2069 2156 2228 2338 
Q 2531 2678 2651 2914 
Q 2772 3150 2772 3378 
Q 2772 3750 2511 3984 
Q 2250 4219 1831 4219 
Q 1534 4219 1204 4116 
Q 875 4013 500 3803 
L 500 4441 
Q 881 4594 1212 4672 
Q 1544 4750 1819 4750 
Q 2544 4750 2975 4387 
Q 3406 4025 3406 3419 
Q 3406 3131 3298 2873 
Q 3191 2616 2906 2266 
Q 2828 2175 2409 1742 
Q 1991 1309 1228 531 
z
" transform="scale(0.015625)"/>
       </defs>
       <use xlink:href="#DejaVuSans-32"/>
       <use xlink:href="#DejaVuSans-2e" x="63.623047"/>
       <use xlink:href="#DejaVuSans-30" x="95.410156"/>
      </g>
     </g>
    </g>
    <g id="ytick_6">
     <g id="line2d_12">
      <g>
       <use xlink:href="#m4cbecb9876" x="47.72" y="201.164844" style="stroke: #000000; stroke-width: 0.8"/>
      </g>
     </g>
     <g id="text_12">
      <!-- 2.5 -->
      <g transform="translate(24.816875 204.964063) scale(0.1 -0.1)">
       <use xlink:href="#DejaVuSans-32"/>
       <use xlink:href="#DejaVuSans-2e" x="63.623047"/>
       <use xlink:href="#DejaVuSans-35" x="95.410156"/>
      </g>
     </g>
    </g>
    <g id="ytick_7">
     <g id="line2d_13">
      <g>
       <use xlink:href="#m4cbecb9876" x="47.72" y="107.797813" style="stroke: #000000; stroke-width: 0.8"/>
      </g>
     </g>
     <g id="text_13">
      <!-- 3.0 -->
      <g transform="translate(24.816875 111.597032) scale(0.1 -0.1)">
       <defs>
        <path id="DejaVuSans-33" d="M 2597 2516 
Q 3050 2419 3304 2112 
Q 3559 1806 3559 1356 
Q 3559 666 3084 287 
Q 2609 -91 1734 -91 
Q 1441 -91 1130 -33 
Q 819 25 488 141 
L 488 750 
Q 750 597 1062 519 
Q 1375 441 1716 441 
Q 2309 441 2620 675 
Q 2931 909 2931 1356 
Q 2931 1769 2642 2001 
Q 2353 2234 1838 2234 
L 1294 2234 
L 1294 2753 
L 1863 2753 
Q 2328 2753 2575 2939 
Q 2822 3125 2822 3475 
Q 2822 3834 2567 4026 
Q 2313 4219 1838 4219 
Q 1578 4219 1281 4162 
Q 984 4106 628 3988 
L 628 4550 
Q 988 4650 1302 4700 
Q 1616 4750 1894 4750 
Q 2613 4750 3031 4423 
Q 3450 4097 3450 3541 
Q 3450 3153 3228 2886 
Q 3006 2619 2597 2516 
z
" transform="scale(0.015625)"/>
       </defs>
       <use xlink:href="#DejaVuSans-33"/>
       <use xlink:href="#DejaVuSans-2e" x="63.623047"/>
       <use xlink:href="#DejaVuSans-30" x="95.410156"/>
      </g>
     </g>
    </g>
    <g id="text_14">
     <!-- Area -->
     <g transform="translate(18.737187 358.943906) rotate(-90) scale(0.1 -0.1)">
      <defs>
       <path id="DejaVuSans-41" d="M 2188 4044 
L 1331 1722 
L 3047 1722 
L 2188 4044 
z
M 1831 4666 
L 2547 4666 
L 4325 0 
L 3669 0 
L 3244 1197 
L 1141 1197 
L 716 0 
L 50 0 
L 1831 4666 
z
" transform="scale(0.015625)"/>
      </defs>
      <use xlink:href="#DejaVuSans-41"/>
      <use xlink:href="#DejaVuSans-72" x="68.408203"/>
      <use xlink:href="#DejaVuSans-65" x="107.271484"/>
      <use xlink:href="#DejaVuSans-61" x="168.794922"/>
     </g>
    </g>
    <g id="text_15">
     <!-- 1e10 -->
     <g transform="translate(47.72 23.88) scale(0.1 -0.1)">
      <use xlink:href="#DejaVuSans-31"/>
      <use xlink:href="#DejaVuSans-65" x="63.623047"/>
      <use xlink:href="#DejaVuSans-31" x="125.146484"/>
      <use xlink:href="#DejaVuSans-30" x="188.769531"/>
     </g>
    </g>
   </g>
   <g id="patch_165">
    <path d="M 47.72 668 
L 47.72 26.88 
" style="fill: none; stroke: #000000; stroke-width: 0.8; stroke-linejoin: miter; stroke-linecap: square"/>
   </g>
   <g id="patch_166">
    <path d="M 1371.6 668 
L 1371.6 26.88 
" style="fill: none; stroke: #000000; stroke-width: 0.8; stroke-linejoin: miter; stroke-linecap: square"/>
   </g>
   <g id="patch_167">
    <path d="M 47.72 668 
L 1371.6 668 
" style="fill: none; stroke: #000000; stroke-width: 0.8; stroke-linejoin: miter; stroke-linecap: square"/>
   </g>
   <g id="patch_168">
    <path d="M 47.72 26.88 
L 1371.6 26.88 
" style="fill: none; stroke: #000000; stroke-width: 0.8; stroke-linejoin: miter; stroke-linecap: square"/>
   </g>
   <g id="text_16">
    <!-- Area comparison -->
    <g transform="translate(658.915 20.88) scale(0.12 -0.12)">
     <defs>
      <path id="DejaVuSans-20" transform="scale(0.015625)"/>
      <path id="DejaVuSans-6d" d="M 3328 2828 
Q 3544 3216 3844 3400 
Q 4144 3584 4550 3584 
Q 5097 3584 5394 3201 
Q 5691 2819 5691 2113 
L 5691 0 
L 5113 0 
L 5113 2094 
Q 5113 2597 4934 2840 
Q 4756 3084 4391 3084 
Q 3944 3084 3684 2787 
Q 3425 2491 3425 1978 
L 3425 0 
L 2847 0 
L 2847 2094 
Q 2847 2600 2669 2842 
Q 2491 3084 2119 3084 
Q 1678 3084 1418 2786 
Q 1159 2488 1159 1978 
L 1159 0 
L 581 0 
L 581 3500 
L 1159 3500 
L 1159 2956 
Q 1356 3278 1631 3431 
Q 1906 3584 2284 3584 
Q 2666 3584 2933 3390 
Q 3200 3197 3328 2828 
z
" transform="scale(0.015625)"/>
     </defs>
     <use xlink:href="#DejaVuSans-41"/>
     <use xlink:href="#DejaVuSans-72" x="68.408203"/>
     <use xlink:href="#DejaVuSans-65" x="107.271484"/>
     <use xlink:href="#DejaVuSans-61" x="168.794922"/>
     <use xlink:href="#DejaVuSans-20" x="230.074219"/>
     <use xlink:href="#DejaVuSans-63" x="261.861328"/>
     <use xlink:href="#DejaVuSans-6f" x="316.841797"/>
     <use xlink:href="#DejaVuSans-6d" x="378.023438"/>
     <use xlink:href="#DejaVuSans-70" x="475.435547"/>
     <use xlink:href="#DejaVuSans-61" x="538.912109"/>
     <use xlink:href="#DejaVuSans-72" x="600.191406"/>
     <use xlink:href="#DejaVuSans-69" x="641.304688"/>
     <use xlink:href="#DejaVuSans-73" x="669.087891"/>
     <use xlink:href="#DejaVuSans-6f" x="721.1875"/>
     <use xlink:href="#DejaVuSans-6e" x="782.369141"/>
    </g>
   </g>
   <g id="legend_1">
    <g id="patch_169">
     <path d="M 1267.179688 431.189375 
L 1364.6 431.189375 
Q 1366.6 431.189375 1366.6 429.189375 
L 1366.6 33.88 
Q 1366.6 31.88 1364.6 31.88 
L 1267.179688 31.88 
Q 1265.179688 31.88 1265.179688 33.88 
L 1265.179688 429.189375 
Q 1265.179688 431.189375 1267.179688 431.189375 
z
" style="fill: #ffffff; opacity: 0.8; stroke: #cccccc; stroke-linejoin: miter"/>
    </g>
    <g id="patch_170">
     <path d="M 1269.179688 43.478438 
L 1289.179688 43.478438 
L 1289.179688 36.478438 
L 1269.179688 36.478438 
z
" style="fill: #1f77b4"/>
    </g>
    <g id="text_17">
     <!-- bnnrolin -->
     <g transform="translate(1297.179688 43.478438) scale(0.1 -0.1)">
      <defs>
       <path id="DejaVuSans-62" d="M 3116 1747 
Q 3116 2381 2855 2742 
Q 2594 3103 2138 3103 
Q 1681 3103 1420 2742 
Q 1159 2381 1159 1747 
Q 1159 1113 1420 752 
Q 1681 391 2138 391 
Q 2594 391 2855 752 
Q 3116 1113 3116 1747 
z
M 1159 2969 
Q 1341 3281 1617 3432 
Q 1894 3584 2278 3584 
Q 2916 3584 3314 3078 
Q 3713 2572 3713 1747 
Q 3713 922 3314 415 
Q 2916 -91 2278 -91 
Q 1894 -91 1617 61 
Q 1341 213 1159 525 
L 1159 0 
L 581 0 
L 581 4863 
L 1159 4863 
L 1159 2969 
z
" transform="scale(0.015625)"/>
       <path id="DejaVuSans-6c" d="M 603 4863 
L 1178 4863 
L 1178 0 
L 603 0 
L 603 4863 
z
" transform="scale(0.015625)"/>
      </defs>
      <use xlink:href="#DejaVuSans-62"/>
      <use xlink:href="#DejaVuSans-6e" x="63.476562"/>
      <use xlink:href="#DejaVuSans-6e" x="126.855469"/>
      <use xlink:href="#DejaVuSans-72" x="190.234375"/>
      <use xlink:href="#DejaVuSans-6f" x="229.097656"/>
      <use xlink:href="#DejaVuSans-6c" x="290.279297"/>
      <use xlink:href="#DejaVuSans-69" x="318.0625"/>
      <use xlink:href="#DejaVuSans-6e" x="345.845703"/>
     </g>
    </g>
    <g id="patch_171">
     <path d="M 1269.179688 58.156563 
L 1289.179688 58.156563 
L 1289.179688 51.156563 
L 1269.179688 51.156563 
z
" style="fill: #ff7f0e"/>
    </g>
    <g id="text_18">
     <!-- bnndsat -->
     <g transform="translate(1297.179688 58.156563) scale(0.1 -0.1)">
      <use xlink:href="#DejaVuSans-62"/>
      <use xlink:href="#DejaVuSans-6e" x="63.476562"/>
      <use xlink:href="#DejaVuSans-6e" x="126.855469"/>
      <use xlink:href="#DejaVuSans-64" x="190.234375"/>
      <use xlink:href="#DejaVuSans-73" x="253.710938"/>
      <use xlink:href="#DejaVuSans-61" x="305.810547"/>
      <use xlink:href="#DejaVuSans-74" x="367.089844"/>
     </g>
    </g>
    <g id="patch_172">
     <path d="M 1269.179688 72.834688 
L 1289.179688 72.834688 
L 1289.179688 65.834688 
L 1269.179688 65.834688 
z
" style="fill: #2ca02c"/>
    </g>
    <g id="text_19">
     <!-- bnnseq -->
     <g transform="translate(1297.179688 72.834688) scale(0.1 -0.1)">
      <defs>
       <path id="DejaVuSans-71" d="M 947 1747 
Q 947 1113 1208 752 
Q 1469 391 1925 391 
Q 2381 391 2643 752 
Q 2906 1113 2906 1747 
Q 2906 2381 2643 2742 
Q 2381 3103 1925 3103 
Q 1469 3103 1208 2742 
Q 947 2381 947 1747 
z
M 2906 525 
Q 2725 213 2448 61 
Q 2172 -91 1784 -91 
Q 1150 -91 751 415 
Q 353 922 353 1747 
Q 353 2572 751 3078 
Q 1150 3584 1784 3584 
Q 2172 3584 2448 3432 
Q 2725 3281 2906 2969 
L 2906 3500 
L 3481 3500 
L 3481 -1331 
L 2906 -1331 
L 2906 525 
z
" transform="scale(0.015625)"/>
      </defs>
      <use xlink:href="#DejaVuSans-62"/>
      <use xlink:href="#DejaVuSans-6e" x="63.476562"/>
      <use xlink:href="#DejaVuSans-6e" x="126.855469"/>
      <use xlink:href="#DejaVuSans-73" x="190.234375"/>
      <use xlink:href="#DejaVuSans-65" x="242.333984"/>
      <use xlink:href="#DejaVuSans-71" x="303.857422"/>
     </g>
    </g>
    <g id="patch_173">
     <path d="M 1269.179688 87.512812 
L 1289.179688 87.512812 
L 1289.179688 80.512812 
L 1269.179688 80.512812 
z
" style="fill: #d62728"/>
    </g>
    <g id="text_20">
     <!-- bnnparser -->
     <g transform="translate(1297.179688 87.512812) scale(0.1 -0.1)">
      <use xlink:href="#DejaVuSans-62"/>
      <use xlink:href="#DejaVuSans-6e" x="63.476562"/>
      <use xlink:href="#DejaVuSans-6e" x="126.855469"/>
      <use xlink:href="#DejaVuSans-70" x="190.234375"/>
      <use xlink:href="#DejaVuSans-61" x="253.710938"/>
      <use xlink:href="#DejaVuSans-72" x="314.990234"/>
      <use xlink:href="#DejaVuSans-73" x="356.103516"/>
      <use xlink:href="#DejaVuSans-65" x="408.203125"/>
      <use xlink:href="#DejaVuSans-72" x="469.726562"/>
     </g>
    </g>
    <g id="patch_174">
     <path d="M 1269.179688 102.190938 
L 1289.179688 102.190938 
L 1289.179688 95.190938 
L 1269.179688 95.190938 
z
" style="fill: #9467bd"/>
    </g>
    <g id="text_21">
     <!-- bnnromem -->
     <g transform="translate(1297.179688 102.190938) scale(0.1 -0.1)">
      <use xlink:href="#DejaVuSans-62"/>
      <use xlink:href="#DejaVuSans-6e" x="63.476562"/>
      <use xlink:href="#DejaVuSans-6e" x="126.855469"/>
      <use xlink:href="#DejaVuSans-72" x="190.234375"/>
      <use xlink:href="#DejaVuSans-6f" x="229.097656"/>
      <use xlink:href="#DejaVuSans-6d" x="290.279297"/>
      <use xlink:href="#DejaVuSans-65" x="387.691406"/>
      <use xlink:href="#DejaVuSans-6d" x="449.214844"/>
     </g>
    </g>
    <g id="patch_175">
     <path d="M 1269.179688 116.869063 
L 1289.179688 116.869063 
L 1289.179688 109.869063 
L 1269.179688 109.869063 
z
" style="fill: #8c564b"/>
    </g>
    <g id="text_22">
     <!-- bnnrospinor -->
     <g transform="translate(1297.179688 116.869063) scale(0.1 -0.1)">
      <use xlink:href="#DejaVuSans-62"/>
      <use xlink:href="#DejaVuSans-6e" x="63.476562"/>
      <use xlink:href="#DejaVuSans-6e" x="126.855469"/>
      <use xlink:href="#DejaVuSans-72" x="190.234375"/>
      <use xlink:href="#DejaVuSans-6f" x="229.097656"/>
      <use xlink:href="#DejaVuSans-73" x="290.279297"/>
      <use xlink:href="#DejaVuSans-70" x="342.378906"/>
      <use xlink:href="#DejaVuSans-69" x="405.855469"/>
      <use xlink:href="#DejaVuSans-6e" x="433.638672"/>
      <use xlink:href="#DejaVuSans-6f" x="497.017578"/>
      <use xlink:href="#DejaVuSans-72" x="558.199219"/>
     </g>
    </g>
    <g id="patch_176">
     <path d="M 1269.179688 131.547188 
L 1289.179688 131.547188 
L 1289.179688 124.547188 
L 1269.179688 124.547188 
z
" style="fill: #e377c2"/>
    </g>
    <g id="text_23">
     <!-- bnnparw -->
     <g transform="translate(1297.179688 131.547188) scale(0.1 -0.1)">
      <use xlink:href="#DejaVuSans-62"/>
      <use xlink:href="#DejaVuSans-6e" x="63.476562"/>
      <use xlink:href="#DejaVuSans-6e" x="126.855469"/>
      <use xlink:href="#DejaVuSans-70" x="190.234375"/>
      <use xlink:href="#DejaVuSans-61" x="253.710938"/>
      <use xlink:href="#DejaVuSans-72" x="314.990234"/>
      <use xlink:href="#DejaVuSans-77" x="356.103516"/>
     </g>
    </g>
    <g id="patch_177">
     <path d="M 1269.179688 146.225313 
L 1289.179688 146.225313 
L 1289.179688 139.225313 
L 1269.179688 139.225313 
z
" style="fill: #7f7f7f"/>
    </g>
    <g id="text_24">
     <!-- bnnparstepw -->
     <g transform="translate(1297.179688 146.225313) scale(0.1 -0.1)">
      <use xlink:href="#DejaVuSans-62"/>
      <use xlink:href="#DejaVuSans-6e" x="63.476562"/>
      <use xlink:href="#DejaVuSans-6e" x="126.855469"/>
      <use xlink:href="#DejaVuSans-70" x="190.234375"/>
      <use xlink:href="#DejaVuSans-61" x="253.710938"/>
      <use xlink:href="#DejaVuSans-72" x="314.990234"/>
      <use xlink:href="#DejaVuSans-73" x="356.103516"/>
      <use xlink:href="#DejaVuSans-74" x="408.203125"/>
      <use xlink:href="#DejaVuSans-65" x="447.412109"/>
      <use xlink:href="#DejaVuSans-70" x="508.935547"/>
      <use xlink:href="#DejaVuSans-77" x="572.412109"/>
     </g>
    </g>
    <g id="patch_178">
     <path d="M 1269.179688 160.903437 
L 1289.179688 160.903437 
L 1289.179688 153.903437 
L 1269.179688 153.903437 
z
" style="fill: #bcbd22"/>
    </g>
    <g id="text_25">
     <!-- bnnroperm -->
     <g transform="translate(1297.179688 160.903437) scale(0.1 -0.1)">
      <use xlink:href="#DejaVuSans-62"/>
      <use xlink:href="#DejaVuSans-6e" x="63.476562"/>
      <use xlink:href="#DejaVuSans-6e" x="126.855469"/>
      <use xlink:href="#DejaVuSans-72" x="190.234375"/>
      <use xlink:href="#DejaVuSans-6f" x="229.097656"/>
      <use xlink:href="#DejaVuSans-70" x="290.279297"/>
      <use xlink:href="#DejaVuSans-65" x="353.755859"/>
      <use xlink:href="#DejaVuSans-72" x="415.279297"/>
      <use xlink:href="#DejaVuSans-6d" x="454.642578"/>
     </g>
    </g>
    <g id="patch_179">
     <path d="M 1269.179688 175.581563 
L 1289.179688 175.581563 
L 1289.179688 168.581563 
L 1269.179688 168.581563 
z
" style="fill: #17becf"/>
    </g>
    <g id="text_26">
     <!-- bnnrobus -->
     <g transform="translate(1297.179688 175.581563) scale(0.1 -0.1)">
      <defs>
       <path id="DejaVuSans-75" d="M 544 1381 
L 544 3500 
L 1119 3500 
L 1119 1403 
Q 1119 906 1312 657 
Q 1506 409 1894 409 
Q 2359 409 2629 706 
Q 2900 1003 2900 1516 
L 2900 3500 
L 3475 3500 
L 3475 0 
L 2900 0 
L 2900 538 
Q 2691 219 2414 64 
Q 2138 -91 1772 -91 
Q 1169 -91 856 284 
Q 544 659 544 1381 
z
M 1991 3584 
L 1991 3584 
z
" transform="scale(0.015625)"/>
      </defs>
      <use xlink:href="#DejaVuSans-62"/>
      <use xlink:href="#DejaVuSans-6e" x="63.476562"/>
      <use xlink:href="#DejaVuSans-6e" x="126.855469"/>
      <use xlink:href="#DejaVuSans-72" x="190.234375"/>
      <use xlink:href="#DejaVuSans-6f" x="229.097656"/>
      <use xlink:href="#DejaVuSans-62" x="290.279297"/>
      <use xlink:href="#DejaVuSans-75" x="353.755859"/>
      <use xlink:href="#DejaVuSans-73" x="417.134766"/>
     </g>
    </g>
    <g id="patch_180">
     <path d="M 1269.179688 190.259688 
L 1289.179688 190.259688 
L 1289.179688 183.259688 
L 1269.179688 183.259688 
z
" style="fill: #1f77b4"/>
    </g>
    <g id="text_27">
     <!-- bnnparpnw -->
     <g transform="translate(1297.179688 190.259688) scale(0.1 -0.1)">
      <use xlink:href="#DejaVuSans-62"/>
      <use xlink:href="#DejaVuSans-6e" x="63.476562"/>
      <use xlink:href="#DejaVuSans-6e" x="126.855469"/>
      <use xlink:href="#DejaVuSans-70" x="190.234375"/>
      <use xlink:href="#DejaVuSans-61" x="253.710938"/>
      <use xlink:href="#DejaVuSans-72" x="314.990234"/>
      <use xlink:href="#DejaVuSans-70" x="356.103516"/>
      <use xlink:href="#DejaVuSans-6e" x="419.580078"/>
      <use xlink:href="#DejaVuSans-77" x="482.958984"/>
     </g>
    </g>
    <g id="patch_181">
     <path d="M 1269.179688 204.937812 
L 1289.179688 204.937812 
L 1289.179688 197.937812 
L 1269.179688 197.937812 
z
" style="fill: #ff7f0e"/>
    </g>
    <g id="text_28">
     <!-- bnnpaarx -->
     <g transform="translate(1297.179688 204.937812) scale(0.1 -0.1)">
      <defs>
       <path id="DejaVuSans-78" d="M 3513 3500 
L 2247 1797 
L 3578 0 
L 2900 0 
L 1881 1375 
L 863 0 
L 184 0 
L 1544 1831 
L 300 3500 
L 978 3500 
L 1906 2253 
L 2834 3500 
L 3513 3500 
z
" transform="scale(0.015625)"/>
      </defs>
      <use xlink:href="#DejaVuSans-62"/>
      <use xlink:href="#DejaVuSans-6e" x="63.476562"/>
      <use xlink:href="#DejaVuSans-6e" x="126.855469"/>
      <use xlink:href="#DejaVuSans-70" x="190.234375"/>
      <use xlink:href="#DejaVuSans-61" x="253.710938"/>
      <use xlink:href="#DejaVuSans-61" x="314.990234"/>
      <use xlink:href="#DejaVuSans-72" x="376.269531"/>
      <use xlink:href="#DejaVuSans-78" x="414.757812"/>
     </g>
    </g>
    <g id="patch_182">
     <path d="M 1269.179688 219.615937 
L 1289.179688 219.615937 
L 1289.179688 212.615937 
L 1269.179688 212.615937 
z
" style="fill: #2ca02c"/>
    </g>
    <g id="text_29">
     <!-- bnnrospine -->
     <g transform="translate(1297.179688 219.615937) scale(0.1 -0.1)">
      <use xlink:href="#DejaVuSans-62"/>
      <use xlink:href="#DejaVuSans-6e" x="63.476562"/>
      <use xlink:href="#DejaVuSans-6e" x="126.855469"/>
      <use xlink:href="#DejaVuSans-72" x="190.234375"/>
      <use xlink:href="#DejaVuSans-6f" x="229.097656"/>
      <use xlink:href="#DejaVuSans-73" x="290.279297"/>
      <use xlink:href="#DejaVuSans-70" x="342.378906"/>
      <use xlink:href="#DejaVuSans-69" x="405.855469"/>
      <use xlink:href="#DejaVuSans-6e" x="433.638672"/>
      <use xlink:href="#DejaVuSans-65" x="497.017578"/>
     </g>
    </g>
    <g id="patch_183">
     <path d="M 1269.179688 234.294062 
L 1289.179688 234.294062 
L 1289.179688 227.294062 
L 1269.179688 227.294062 
z
" style="fill: #d62728"/>
    </g>
    <g id="text_30">
     <!-- bnnparsign -->
     <g transform="translate(1297.179688 234.294062) scale(0.1 -0.1)">
      <use xlink:href="#DejaVuSans-62"/>
      <use xlink:href="#DejaVuSans-6e" x="63.476562"/>
      <use xlink:href="#DejaVuSans-6e" x="126.855469"/>
      <use xlink:href="#DejaVuSans-70" x="190.234375"/>
      <use xlink:href="#DejaVuSans-61" x="253.710938"/>
      <use xlink:href="#DejaVuSans-72" x="314.990234"/>
      <use xlink:href="#DejaVuSans-73" x="356.103516"/>
      <use xlink:href="#DejaVuSans-69" x="408.203125"/>
      <use xlink:href="#DejaVuSans-67" x="435.986328"/>
      <use xlink:href="#DejaVuSans-6e" x="499.462891"/>
     </g>
    </g>
    <g id="patch_184">
     <path d="M 1269.179688 248.972188 
L 1289.179688 248.972188 
L 1289.179688 241.972188 
L 1269.179688 241.972188 
z
" style="fill: #9467bd"/>
    </g>
    <g id="text_31">
     <!-- bnndw -->
     <g transform="translate(1297.179688 248.972188) scale(0.1 -0.1)">
      <use xlink:href="#DejaVuSans-62"/>
      <use xlink:href="#DejaVuSans-6e" x="63.476562"/>
      <use xlink:href="#DejaVuSans-6e" x="126.855469"/>
      <use xlink:href="#DejaVuSans-64" x="190.234375"/>
      <use xlink:href="#DejaVuSans-77" x="253.710938"/>
     </g>
    </g>
    <g id="patch_185">
     <path d="M 1269.179688 263.650312 
L 1289.179688 263.650312 
L 1289.179688 256.650312 
L 1269.179688 256.650312 
z
" style="fill: #8c564b"/>
    </g>
    <g id="text_32">
     <!-- bnnpaarter -->
     <g transform="translate(1297.179688 263.650312) scale(0.1 -0.1)">
      <use xlink:href="#DejaVuSans-62"/>
      <use xlink:href="#DejaVuSans-6e" x="63.476562"/>
      <use xlink:href="#DejaVuSans-6e" x="126.855469"/>
      <use xlink:href="#DejaVuSans-70" x="190.234375"/>
      <use xlink:href="#DejaVuSans-61" x="253.710938"/>
      <use xlink:href="#DejaVuSans-61" x="314.990234"/>
      <use xlink:href="#DejaVuSans-72" x="376.269531"/>
      <use xlink:href="#DejaVuSans-74" x="417.382812"/>
      <use xlink:href="#DejaVuSans-65" x="456.591797"/>
      <use xlink:href="#DejaVuSans-72" x="518.115234"/>
     </g>
    </g>
    <g id="patch_186">
     <path d="M 1269.179688 278.328437 
L 1289.179688 278.328437 
L 1289.179688 271.328437 
L 1269.179688 271.328437 
z
" style="fill: #e377c2"/>
    </g>
    <g id="text_33">
     <!-- bnndsatin -->
     <g transform="translate(1297.179688 278.328437) scale(0.1 -0.1)">
      <use xlink:href="#DejaVuSans-62"/>
      <use xlink:href="#DejaVuSans-6e" x="63.476562"/>
      <use xlink:href="#DejaVuSans-6e" x="126.855469"/>
      <use xlink:href="#DejaVuSans-64" x="190.234375"/>
      <use xlink:href="#DejaVuSans-73" x="253.710938"/>
      <use xlink:href="#DejaVuSans-61" x="305.810547"/>
      <use xlink:href="#DejaVuSans-74" x="367.089844"/>
      <use xlink:href="#DejaVuSans-69" x="406.298828"/>
      <use xlink:href="#DejaVuSans-6e" x="434.082031"/>
     </g>
    </g>
    <g id="patch_187">
     <path d="M 1269.179688 293.006562 
L 1289.179688 293.006562 
L 1289.179688 286.006562 
L 1269.179688 286.006562 
z
" style="fill: #7f7f7f"/>
    </g>
    <g id="text_34">
     <!-- bnndirect -->
     <g transform="translate(1297.179688 293.006562) scale(0.1 -0.1)">
      <use xlink:href="#DejaVuSans-62"/>
      <use xlink:href="#DejaVuSans-6e" x="63.476562"/>
      <use xlink:href="#DejaVuSans-6e" x="126.855469"/>
      <use xlink:href="#DejaVuSans-64" x="190.234375"/>
      <use xlink:href="#DejaVuSans-69" x="253.710938"/>
      <use xlink:href="#DejaVuSans-72" x="281.494141"/>
      <use xlink:href="#DejaVuSans-65" x="320.357422"/>
      <use xlink:href="#DejaVuSans-63" x="381.880859"/>
      <use xlink:href="#DejaVuSans-74" x="436.861328"/>
     </g>
    </g>
    <g id="patch_188">
     <path d="M 1269.179688 307.684687 
L 1289.179688 307.684687 
L 1289.179688 300.684687 
L 1269.179688 300.684687 
z
" style="fill: #bcbd22"/>
    </g>
    <g id="text_35">
     <!-- bnnpar -->
     <g transform="translate(1297.179688 307.684687) scale(0.1 -0.1)">
      <use xlink:href="#DejaVuSans-62"/>
      <use xlink:href="#DejaVuSans-6e" x="63.476562"/>
      <use xlink:href="#DejaVuSans-6e" x="126.855469"/>
      <use xlink:href="#DejaVuSans-70" x="190.234375"/>
      <use xlink:href="#DejaVuSans-61" x="253.710938"/>
      <use xlink:href="#DejaVuSans-72" x="314.990234"/>
     </g>
    </g>
    <g id="patch_189">
     <path d="M 1269.179688 322.362813 
L 1289.179688 322.362813 
L 1289.179688 315.362813 
L 1269.179688 315.362813 
z
" style="fill: #17becf"/>
    </g>
    <g id="text_36">
     <!-- bnnromesx -->
     <g transform="translate(1297.179688 322.362813) scale(0.1 -0.1)">
      <use xlink:href="#DejaVuSans-62"/>
      <use xlink:href="#DejaVuSans-6e" x="63.476562"/>
      <use xlink:href="#DejaVuSans-6e" x="126.855469"/>
      <use xlink:href="#DejaVuSans-72" x="190.234375"/>
      <use xlink:href="#DejaVuSans-6f" x="229.097656"/>
      <use xlink:href="#DejaVuSans-6d" x="290.279297"/>
      <use xlink:href="#DejaVuSans-65" x="387.691406"/>
      <use xlink:href="#DejaVuSans-73" x="449.214844"/>
      <use xlink:href="#DejaVuSans-78" x="501.314453"/>
     </g>
    </g>
    <g id="patch_190">
     <path d="M 1269.179688 337.040938 
L 1289.179688 337.040938 
L 1289.179688 330.040938 
L 1269.179688 330.040938 
z
" style="fill: #1f77b4"/>
    </g>
    <g id="text_37">
     <!-- bnnrolx -->
     <g transform="translate(1297.179688 337.040938) scale(0.1 -0.1)">
      <use xlink:href="#DejaVuSans-62"/>
      <use xlink:href="#DejaVuSans-6e" x="63.476562"/>
      <use xlink:href="#DejaVuSans-6e" x="126.855469"/>
      <use xlink:href="#DejaVuSans-72" x="190.234375"/>
      <use xlink:href="#DejaVuSans-6f" x="229.097656"/>
      <use xlink:href="#DejaVuSans-6c" x="290.279297"/>
      <use xlink:href="#DejaVuSans-78" x="318.0625"/>
     </g>
    </g>
    <g id="patch_191">
     <path d="M 1269.179688 351.719063 
L 1289.179688 351.719063 
L 1289.179688 344.719063 
L 1269.179688 344.719063 
z
" style="fill: #ff7f0e"/>
    </g>
    <g id="text_38">
     <!-- bnnroll -->
     <g transform="translate(1297.179688 351.719063) scale(0.1 -0.1)">
      <use xlink:href="#DejaVuSans-62"/>
      <use xlink:href="#DejaVuSans-6e" x="63.476562"/>
      <use xlink:href="#DejaVuSans-6e" x="126.855469"/>
      <use xlink:href="#DejaVuSans-72" x="190.234375"/>
      <use xlink:href="#DejaVuSans-6f" x="229.097656"/>
      <use xlink:href="#DejaVuSans-6c" x="290.279297"/>
      <use xlink:href="#DejaVuSans-6c" x="318.0625"/>
     </g>
    </g>
    <g id="patch_192">
     <path d="M 1269.179688 366.397188 
L 1289.179688 366.397188 
L 1289.179688 359.397188 
L 1269.179688 359.397188 
z
" style="fill: #2ca02c"/>
    </g>
    <g id="text_39">
     <!-- bnnromesh -->
     <g transform="translate(1297.179688 366.397188) scale(0.1 -0.1)">
      <use xlink:href="#DejaVuSans-62"/>
      <use xlink:href="#DejaVuSans-6e" x="63.476562"/>
      <use xlink:href="#DejaVuSans-6e" x="126.855469"/>
      <use xlink:href="#DejaVuSans-72" x="190.234375"/>
      <use xlink:href="#DejaVuSans-6f" x="229.097656"/>
      <use xlink:href="#DejaVuSans-6d" x="290.279297"/>
      <use xlink:href="#DejaVuSans-65" x="387.691406"/>
      <use xlink:href="#DejaVuSans-73" x="449.214844"/>
      <use xlink:href="#DejaVuSans-68" x="501.314453"/>
     </g>
    </g>
    <g id="patch_193">
     <path d="M 1269.179688 381.075313 
L 1289.179688 381.075313 
L 1289.179688 374.075313 
L 1269.179688 374.075313 
z
" style="fill: #d62728"/>
    </g>
    <g id="text_40">
     <!-- bnnromex -->
     <g transform="translate(1297.179688 381.075313) scale(0.1 -0.1)">
      <use xlink:href="#DejaVuSans-62"/>
      <use xlink:href="#DejaVuSans-6e" x="63.476562"/>
      <use xlink:href="#DejaVuSans-6e" x="126.855469"/>
      <use xlink:href="#DejaVuSans-72" x="190.234375"/>
      <use xlink:href="#DejaVuSans-6f" x="229.097656"/>
      <use xlink:href="#DejaVuSans-6d" x="290.279297"/>
      <use xlink:href="#DejaVuSans-65" x="387.691406"/>
      <use xlink:href="#DejaVuSans-78" x="447.464844"/>
     </g>
    </g>
    <g id="patch_194">
     <path d="M 1269.179688 395.753438 
L 1289.179688 395.753438 
L 1289.179688 388.753438 
L 1269.179688 388.753438 
z
" style="fill: #9467bd"/>
    </g>
    <g id="text_41">
     <!-- bnnparce -->
     <g transform="translate(1297.179688 395.753438) scale(0.1 -0.1)">
      <use xlink:href="#DejaVuSans-62"/>
      <use xlink:href="#DejaVuSans-6e" x="63.476562"/>
      <use xlink:href="#DejaVuSans-6e" x="126.855469"/>
      <use xlink:href="#DejaVuSans-70" x="190.234375"/>
      <use xlink:href="#DejaVuSans-61" x="253.710938"/>
      <use xlink:href="#DejaVuSans-72" x="314.990234"/>
      <use xlink:href="#DejaVuSans-63" x="353.853516"/>
      <use xlink:href="#DejaVuSans-65" x="408.833984"/>
     </g>
    </g>
    <g id="patch_195">
     <path d="M 1269.179688 410.431563 
L 1289.179688 410.431563 
L 1289.179688 403.431563 
L 1269.179688 403.431563 
z
" style="fill: #8c564b"/>
    </g>
    <g id="text_42">
     <!-- bnnroclk -->
     <g transform="translate(1297.179688 410.431563) scale(0.1 -0.1)">
      <defs>
       <path id="DejaVuSans-6b" d="M 581 4863 
L 1159 4863 
L 1159 1991 
L 2875 3500 
L 3609 3500 
L 1753 1863 
L 3688 0 
L 2938 0 
L 1159 1709 
L 1159 0 
L 581 0 
L 581 4863 
z
" transform="scale(0.015625)"/>
      </defs>
      <use xlink:href="#DejaVuSans-62"/>
      <use xlink:href="#DejaVuSans-6e" x="63.476562"/>
      <use xlink:href="#DejaVuSans-6e" x="126.855469"/>
      <use xlink:href="#DejaVuSans-72" x="190.234375"/>
      <use xlink:href="#DejaVuSans-6f" x="229.097656"/>
      <use xlink:href="#DejaVuSans-63" x="290.279297"/>
      <use xlink:href="#DejaVuSans-6c" x="345.259766"/>
      <use xlink:href="#DejaVuSans-6b" x="373.042969"/>
     </g>
    </g>
    <g id="patch_196">
     <path d="M 1269.179688 425.109688 
L 1289.179688 425.109688 
L 1289.179688 418.109688 
L 1269.179688 418.109688 
z
" style="fill: #e377c2"/>
    </g>
    <g id="text_43">
     <!-- bnnpaar -->
     <g transform="translate(1297.179688 425.109688) scale(0.1 -0.1)">
      <use xlink:href="#DejaVuSans-62"/>
      <use xlink:href="#DejaVuSans-6e" x="63.476562"/>
      <use xlink:href="#DejaVuSans-6e" x="126.855469"/>
      <use xlink:href="#DejaVuSans-70" x="190.234375"/>
      <use xlink:href="#DejaVuSans-61" x="253.710938"/>
      <use xlink:href="#DejaVuSans-61" x="314.990234"/>
      <use xlink:href="#DejaVuSans-72" x="376.269531"/>
     </g>
    </g>
   </g>
  </g>
 </g>
 <defs>
  <clipPath id="pe60c0dd472">
   <rect x="47.72" y="26.88" width="1323.88" height="641.12"/>
  </clipPath>
 </defs>
</svg>
