<?xml version="1.0" encoding="utf-8" standalone="no"?>
<!DOCTYPE svg PUBLIC "-//W3C//DTD SVG 1.1//EN"
  "http://www.w3.org/Graphics/SVG/1.1/DTD/svg11.dtd">
<svg xmlns:xlink="http://www.w3.org/1999/xlink" width="1382.4pt" height="736.56pt" viewBox="0 0 1382.4 736.56" xmlns="http://www.w3.org/2000/svg" version="1.1">
 <metadata>
  <rdf:RDF xmlns:dc="http://purl.org/dc/elements/1.1/" xmlns:cc="http://creativecommons.org/ns#" xmlns:rdf="http://www.w3.org/1999/02/22-rdf-syntax-ns#">
   <cc:Work>
    <dc:type rdf:resource="http://purl.org/dc/dcmitype/StillImage"/>
    <dc:date>2023-06-24T22:12:21.585360</dc:date>
    <dc:format>image/svg+xml</dc:format>
    <dc:creator>
     <cc:Agent>
      <dc:title>Matplotlib v3.6.2, https://matplotlib.org/</dc:title>
     </cc:Agent>
    </dc:creator>
   </cc:Work>
  </rdf:RDF>
 </metadata>
 <defs>
  <style type="text/css">*{stroke-linejoin: round; stroke-linecap: butt}</style>
 </defs>
 <g id="figure_1">
  <g id="patch_1">
   <path d="M 0 736.56 
L 1382.4 736.56 
L 1382.4 0 
L 0 0 
z
" style="fill: #ffffff"/>
  </g>
  <g id="axes_1">
   <g id="patch_2">
    <path d="M 110.18 575.57 
L 1355.4 575.57 
L 1355.4 57.24 
L 110.18 57.24 
z
" style="fill: #ffffff"/>
   </g>
   <g id="patch_3">
    <path d="M 162.064167 575.57 
L 175.035208 575.57 
L 175.035208 549.266855 
L 162.064167 549.266855 
z
" clip-path="url(#p64d8d2a157)" style="fill: #1f77b4"/>
   </g>
   <g id="patch_4">
    <path d="M 369.600833 575.57 
L 382.571875 575.57 
L 382.571875 517.091561 
L 369.600833 517.091561 
z
" clip-path="url(#p64d8d2a157)" style="fill: #1f77b4"/>
   </g>
   <g id="patch_5">
    <path d="M 577.1375 575.57 
L 590.108542 575.57 
L 590.108542 150.513977 
L 577.1375 150.513977 
z
" clip-path="url(#p64d8d2a157)" style="fill: #1f77b4"/>
   </g>
   <g id="patch_6">
    <path d="M 784.674167 575.57 
L 797.645208 575.57 
L 797.645208 522.084528 
L 784.674167 522.084528 
z
" clip-path="url(#p64d8d2a157)" style="fill: #1f77b4"/>
   </g>
   <g id="patch_7">
    <path d="M 992.210833 575.57 
L 1005.181875 575.57 
L 1005.181875 547.563212 
L 992.210833 547.563212 
z
" clip-path="url(#p64d8d2a157)" style="fill: #1f77b4"/>
   </g>
   <g id="patch_8">
    <path d="M 1199.7475 575.57 
L 1212.718542 575.57 
L 1212.718542 548.375772 
L 1199.7475 548.375772 
z
" clip-path="url(#p64d8d2a157)" style="fill: #1f77b4"/>
   </g>
   <g id="patch_9">
    <path d="M 175.035208 575.57 
L 188.00625 575.57 
L 188.00625 538.958641 
L 175.035208 538.958641 
z
" clip-path="url(#p64d8d2a157)" style="fill: #ff7f0e"/>
   </g>
   <g id="patch_10">
    <path d="M 382.571875 575.57 
L 395.542917 575.57 
L 395.542917 525.431018 
L 382.571875 525.431018 
z
" clip-path="url(#p64d8d2a157)" style="fill: #ff7f0e"/>
   </g>
   <g id="patch_11">
    <path d="M 590.108542 575.57 
L 603.079583 575.57 
L 603.079583 316.858535 
L 590.108542 316.858535 
z
" clip-path="url(#p64d8d2a157)" style="fill: #ff7f0e"/>
   </g>
   <g id="patch_12">
    <path d="M 797.645208 575.57 
L 810.61625 575.57 
L 810.61625 524.292355 
L 797.645208 524.292355 
z
" clip-path="url(#p64d8d2a157)" style="fill: #ff7f0e"/>
   </g>
   <g id="patch_13">
    <path d="M 1005.181875 575.57 
L 1018.152917 575.57 
L 1018.152917 542.559867 
L 1005.181875 542.559867 
z
" clip-path="url(#p64d8d2a157)" style="fill: #ff7f0e"/>
   </g>
   <g id="patch_14">
    <path d="M 1212.718542 575.57 
L 1225.689583 575.57 
L 1225.689583 544.825013 
L 1212.718542 544.825013 
z
" clip-path="url(#p64d8d2a157)" style="fill: #ff7f0e"/>
   </g>
   <g id="patch_15">
    <path d="M 188.00625 575.57 
L 200.977292 575.57 
L 200.977292 531.191789 
L 188.00625 531.191789 
z
" clip-path="url(#p64d8d2a157)" style="fill: #2ca02c"/>
   </g>
   <g id="patch_16">
    <path d="M 395.542917 575.57 
L 408.513958 575.57 
L 408.513958 505.0455 
L 395.542917 505.0455 
z
" clip-path="url(#p64d8d2a157)" style="fill: #2ca02c"/>
   </g>
   <g id="patch_17">
    <path d="M 603.079583 575.57 
L 616.050625 575.57 
L 616.050625 168.310518 
L 603.079583 168.310518 
z
" clip-path="url(#p64d8d2a157)" style="fill: #2ca02c"/>
   </g>
   <g id="patch_18">
    <path d="M 810.61625 575.57 
L 823.587292 575.57 
L 823.587292 510.734233 
L 810.61625 510.734233 
z
" clip-path="url(#p64d8d2a157)" style="fill: #2ca02c"/>
   </g>
   <g id="patch_19">
    <path d="M 1018.152917 575.57 
L 1031.123958 575.57 
L 1031.123958 533.565286 
L 1018.152917 533.565286 
z
" clip-path="url(#p64d8d2a157)" style="fill: #2ca02c"/>
   </g>
   <g id="patch_20">
    <path d="M 1225.689583 575.57 
L 1238.660625 575.57 
L 1238.660625 536.307678 
L 1225.689583 536.307678 
z
" clip-path="url(#p64d8d2a157)" style="fill: #2ca02c"/>
   </g>
   <g id="patch_21">
    <path d="M 200.977292 575.57 
L 213.948333 575.57 
L 213.948333 538.554719 
L 200.977292 538.554719 
z
" clip-path="url(#p64d8d2a157)" style="fill: #d62728"/>
   </g>
   <g id="patch_22">
    <path d="M 408.513958 575.57 
L 421.485 575.57 
L 421.485 525.33549 
L 408.513958 525.33549 
z
" clip-path="url(#p64d8d2a157)" style="fill: #d62728"/>
   </g>
   <g id="patch_23">
    <path d="M 616.050625 575.57 
L 629.021667 575.57 
L 629.021667 311.232457 
L 616.050625 311.232457 
z
" clip-path="url(#p64d8d2a157)" style="fill: #d62728"/>
   </g>
   <g id="patch_24">
    <path d="M 823.587292 575.57 
L 836.558333 575.57 
L 836.558333 525.171864 
L 823.587292 525.171864 
z
" clip-path="url(#p64d8d2a157)" style="fill: #d62728"/>
   </g>
   <g id="patch_25">
    <path d="M 1031.123958 575.57 
L 1044.095 575.57 
L 1044.095 541.670278 
L 1031.123958 541.670278 
z
" clip-path="url(#p64d8d2a157)" style="fill: #d62728"/>
   </g>
   <g id="patch_26">
    <path d="M 1238.660625 575.57 
L 1251.631667 575.57 
L 1251.631667 544.661172 
L 1238.660625 544.661172 
z
" clip-path="url(#p64d8d2a157)" style="fill: #d62728"/>
   </g>
   <g id="patch_27">
    <path d="M 213.948333 575.57 
L 226.919375 575.57 
L 226.919375 555.342688 
L 213.948333 555.342688 
z
" clip-path="url(#p64d8d2a157)" style="fill: #9467bd"/>
   </g>
   <g id="patch_28">
    <path d="M 421.485 575.57 
L 434.456042 575.57 
L 434.456042 546.561806 
L 421.485 546.561806 
z
" clip-path="url(#p64d8d2a157)" style="fill: #9467bd"/>
   </g>
   <g id="patch_29">
    <path d="M 629.021667 575.57 
L 641.992708 575.57 
L 641.992708 422.113211 
L 629.021667 422.113211 
z
" clip-path="url(#p64d8d2a157)" style="fill: #9467bd"/>
   </g>
   <g id="patch_30">
    <path d="M 836.558333 575.57 
L 849.529375 575.57 
L 849.529375 531.134886 
L 836.558333 531.134886 
z
" clip-path="url(#p64d8d2a157)" style="fill: #9467bd"/>
   </g>
   <g id="patch_31">
    <path d="M 1044.095 575.57 
L 1057.066042 575.57 
L 1057.066042 557.781728 
L 1044.095 557.781728 
z
" clip-path="url(#p64d8d2a157)" style="fill: #9467bd"/>
   </g>
   <g id="patch_32">
    <path d="M 1251.631667 575.57 
L 1264.602708 575.57 
L 1264.602708 561.183922 
L 1251.631667 561.183922 
z
" clip-path="url(#p64d8d2a157)" style="fill: #9467bd"/>
   </g>
   <g id="patch_33">
    <path d="M 226.919375 575.57 
L 239.890417 575.57 
L 239.890417 540.612619 
L 226.919375 540.612619 
z
" clip-path="url(#p64d8d2a157)" style="fill: #8c564b"/>
   </g>
   <g id="patch_34">
    <path d="M 434.456042 575.57 
L 447.427083 575.57 
L 447.427083 516.257028 
L 434.456042 516.257028 
z
" clip-path="url(#p64d8d2a157)" style="fill: #8c564b"/>
   </g>
   <g id="patch_35">
    <path d="M 641.992708 575.57 
L 654.96375 575.57 
L 654.96375 81.922381 
L 641.992708 81.922381 
z
" clip-path="url(#p64d8d2a157)" style="fill: #8c564b"/>
   </g>
   <g id="patch_36">
    <path d="M 849.529375 575.57 
L 862.500417 575.57 
L 862.500417 519.57122 
L 849.529375 519.57122 
z
" clip-path="url(#p64d8d2a157)" style="fill: #8c564b"/>
   </g>
   <g id="patch_37">
    <path d="M 1057.066042 575.57 
L 1070.037083 575.57 
L 1070.037083 541.176638 
L 1057.066042 541.176638 
z
" clip-path="url(#p64d8d2a157)" style="fill: #8c564b"/>
   </g>
   <g id="patch_38">
    <path d="M 1264.602708 575.57 
L 1277.57375 575.57 
L 1277.57375 545.382455 
L 1264.602708 545.382455 
z
" clip-path="url(#p64d8d2a157)" style="fill: #8c564b"/>
   </g>
   <g id="patch_39">
    <path d="M 239.890417 575.57 
L 252.861458 575.57 
L 252.861458 537.836403 
L 239.890417 537.836403 
z
" clip-path="url(#p64d8d2a157)" style="fill: #e377c2"/>
   </g>
   <g id="patch_40">
    <path d="M 447.427083 575.57 
L 460.398125 575.57 
L 460.398125 522.966174 
L 447.427083 522.966174 
z
" clip-path="url(#p64d8d2a157)" style="fill: #e377c2"/>
   </g>
   <g id="patch_41">
    <path d="M 654.96375 575.57 
L 667.934792 575.57 
L 667.934792 301.071894 
L 654.96375 301.071894 
z
" clip-path="url(#p64d8d2a157)" style="fill: #e377c2"/>
   </g>
   <g id="patch_42">
    <path d="M 862.500417 575.57 
L 875.471458 575.57 
L 875.471458 521.618465 
L 862.500417 521.618465 
z
" clip-path="url(#p64d8d2a157)" style="fill: #e377c2"/>
   </g>
   <g id="patch_43">
    <path d="M 1070.037083 575.57 
L 1083.008125 575.57 
L 1083.008125 544.221821 
L 1070.037083 544.221821 
z
" clip-path="url(#p64d8d2a157)" style="fill: #e377c2"/>
   </g>
   <g id="patch_44">
    <path d="M 1277.57375 575.57 
L 1290.544792 575.57 
L 1290.544792 544.657755 
L 1277.57375 544.657755 
z
" clip-path="url(#p64d8d2a157)" style="fill: #e377c2"/>
   </g>
   <g id="patch_45">
    <path d="M 252.861458 575.57 
L 265.8325 575.57 
L 265.8325 547.296222 
L 252.861458 547.296222 
z
" clip-path="url(#p64d8d2a157)" style="fill: #7f7f7f"/>
   </g>
   <g id="patch_46">
    <path d="M 460.398125 575.57 
L 473.369167 575.57 
L 473.369167 521.267471 
L 460.398125 521.267471 
z
" clip-path="url(#p64d8d2a157)" style="fill: #7f7f7f"/>
   </g>
   <g id="patch_47">
    <path d="M 667.934792 575.57 
L 680.905833 575.57 
L 680.905833 180.970515 
L 667.934792 180.970515 
z
" clip-path="url(#p64d8d2a157)" style="fill: #7f7f7f"/>
   </g>
   <g id="patch_48">
    <path d="M 875.471458 575.57 
L 888.4425 575.57 
L 888.4425 526.922489 
L 875.471458 526.922489 
z
" clip-path="url(#p64d8d2a157)" style="fill: #7f7f7f"/>
   </g>
   <g id="patch_49">
    <path d="M 1083.008125 575.57 
L 1095.979167 575.57 
L 1095.979167 549.195236 
L 1083.008125 549.195236 
z
" clip-path="url(#p64d8d2a157)" style="fill: #7f7f7f"/>
   </g>
   <g id="patch_50">
    <path d="M 1290.544792 575.57 
L 1303.515833 575.57 
L 1303.515833 550.429642 
L 1290.544792 550.429642 
z
" clip-path="url(#p64d8d2a157)" style="fill: #7f7f7f"/>
   </g>
   <g id="matplotlib.axis_1">
    <g id="xtick_1">
     <g id="line2d_1">
      <defs>
       <path id="mec871f0b51" d="M 0 0 
L 0 3.5 
" style="stroke: #000000; stroke-width: 0.8"/>
      </defs>
      <g>
       <use xlink:href="#mec871f0b51" x="213.948333" y="575.57" style="stroke: #000000; stroke-width: 0.8"/>
      </g>
     </g>
     <g id="text_1">
      <!-- Har -->
      <g transform="translate(220.846771 626.968438) rotate(-90) scale(0.25 -0.25)">
       <defs>
        <path id="DejaVuSans-48" d="M 628 4666 
L 1259 4666 
L 1259 2753 
L 3553 2753 
L 3553 4666 
L 4184 4666 
L 4184 0 
L 3553 0 
L 3553 2222 
L 1259 2222 
L 1259 0 
L 628 0 
L 628 4666 
z
" transform="scale(0.015625)"/>
        <path id="DejaVuSans-61" d="M 2194 1759 
Q 1497 1759 1228 1600 
Q 959 1441 959 1056 
Q 959 750 1161 570 
Q 1363 391 1709 391 
Q 2188 391 2477 730 
Q 2766 1069 2766 1631 
L 2766 1759 
L 2194 1759 
z
M 3341 1997 
L 3341 0 
L 2766 0 
L 2766 531 
Q 2569 213 2275 61 
Q 1981 -91 1556 -91 
Q 1019 -91 701 211 
Q 384 513 384 1019 
Q 384 1609 779 1909 
Q 1175 2209 1959 2209 
L 2766 2209 
L 2766 2266 
Q 2766 2663 2505 2880 
Q 2244 3097 1772 3097 
Q 1472 3097 1187 3025 
Q 903 2953 641 2809 
L 641 3341 
Q 956 3463 1253 3523 
Q 1550 3584 1831 3584 
Q 2591 3584 2966 3190 
Q 3341 2797 3341 1997 
z
" transform="scale(0.015625)"/>
        <path id="DejaVuSans-72" d="M 2631 2963 
Q 2534 3019 2420 3045 
Q 2306 3072 2169 3072 
Q 1681 3072 1420 2755 
Q 1159 2438 1159 1844 
L 1159 0 
L 581 0 
L 581 3500 
L 1159 3500 
L 1159 2956 
Q 1341 3275 1631 3429 
Q 1922 3584 2338 3584 
Q 2397 3584 2469 3576 
Q 2541 3569 2628 3553 
L 2631 2963 
z
" transform="scale(0.015625)"/>
       </defs>
       <use xlink:href="#DejaVuSans-48"/>
       <use xlink:href="#DejaVuSans-61" x="75.195312"/>
       <use xlink:href="#DejaVuSans-72" x="136.474609"/>
      </g>
     </g>
    </g>
    <g id="xtick_2">
     <g id="line2d_2">
      <g>
       <use xlink:href="#mec871f0b51" x="421.485" y="575.57" style="stroke: #000000; stroke-width: 0.8"/>
      </g>
     </g>
     <g id="text_2">
      <!-- cardio -->
      <g transform="translate(428.383437 659.589531) rotate(-90) scale(0.25 -0.25)">
       <defs>
        <path id="DejaVuSans-63" d="M 3122 3366 
L 3122 2828 
Q 2878 2963 2633 3030 
Q 2388 3097 2138 3097 
Q 1578 3097 1268 2742 
Q 959 2388 959 1747 
Q 959 1106 1268 751 
Q 1578 397 2138 397 
Q 2388 397 2633 464 
Q 2878 531 3122 666 
L 3122 134 
Q 2881 22 2623 -34 
Q 2366 -91 2075 -91 
Q 1284 -91 818 406 
Q 353 903 353 1747 
Q 353 2603 823 3093 
Q 1294 3584 2113 3584 
Q 2378 3584 2631 3529 
Q 2884 3475 3122 3366 
z
" transform="scale(0.015625)"/>
        <path id="DejaVuSans-64" d="M 2906 2969 
L 2906 4863 
L 3481 4863 
L 3481 0 
L 2906 0 
L 2906 525 
Q 2725 213 2448 61 
Q 2172 -91 1784 -91 
Q 1150 -91 751 415 
Q 353 922 353 1747 
Q 353 2572 751 3078 
Q 1150 3584 1784 3584 
Q 2172 3584 2448 3432 
Q 2725 3281 2906 2969 
z
M 947 1747 
Q 947 1113 1208 752 
Q 1469 391 1925 391 
Q 2381 391 2643 752 
Q 2906 1113 2906 1747 
Q 2906 2381 2643 2742 
Q 2381 3103 1925 3103 
Q 1469 3103 1208 2742 
Q 947 2381 947 1747 
z
" transform="scale(0.015625)"/>
        <path id="DejaVuSans-69" d="M 603 3500 
L 1178 3500 
L 1178 0 
L 603 0 
L 603 3500 
z
M 603 4863 
L 1178 4863 
L 1178 4134 
L 603 4134 
L 603 4863 
z
" transform="scale(0.015625)"/>
        <path id="DejaVuSans-6f" d="M 1959 3097 
Q 1497 3097 1228 2736 
Q 959 2375 959 1747 
Q 959 1119 1226 758 
Q 1494 397 1959 397 
Q 2419 397 2687 759 
Q 2956 1122 2956 1747 
Q 2956 2369 2687 2733 
Q 2419 3097 1959 3097 
z
M 1959 3584 
Q 2709 3584 3137 3096 
Q 3566 2609 3566 1747 
Q 3566 888 3137 398 
Q 2709 -91 1959 -91 
Q 1206 -91 779 398 
Q 353 888 353 1747 
Q 353 2609 779 3096 
Q 1206 3584 1959 3584 
z
" transform="scale(0.015625)"/>
       </defs>
       <use xlink:href="#DejaVuSans-63"/>
       <use xlink:href="#DejaVuSans-61" x="54.980469"/>
       <use xlink:href="#DejaVuSans-72" x="116.259766"/>
       <use xlink:href="#DejaVuSans-64" x="155.623047"/>
       <use xlink:href="#DejaVuSans-69" x="219.099609"/>
       <use xlink:href="#DejaVuSans-6f" x="246.882812"/>
      </g>
     </g>
    </g>
    <g id="xtick_3">
     <g id="line2d_3">
      <g>
       <use xlink:href="#mec871f0b51" x="629.021667" y="575.57" style="stroke: #000000; stroke-width: 0.8"/>
      </g>
     </g>
     <g id="text_3">
      <!-- gasId -->
      <g transform="translate(635.920104 650.030938) rotate(-90) scale(0.25 -0.25)">
       <defs>
        <path id="DejaVuSans-67" d="M 2906 1791 
Q 2906 2416 2648 2759 
Q 2391 3103 1925 3103 
Q 1463 3103 1205 2759 
Q 947 2416 947 1791 
Q 947 1169 1205 825 
Q 1463 481 1925 481 
Q 2391 481 2648 825 
Q 2906 1169 2906 1791 
z
M 3481 434 
Q 3481 -459 3084 -895 
Q 2688 -1331 1869 -1331 
Q 1566 -1331 1297 -1286 
Q 1028 -1241 775 -1147 
L 775 -588 
Q 1028 -725 1275 -790 
Q 1522 -856 1778 -856 
Q 2344 -856 2625 -561 
Q 2906 -266 2906 331 
L 2906 616 
Q 2728 306 2450 153 
Q 2172 0 1784 0 
Q 1141 0 747 490 
Q 353 981 353 1791 
Q 353 2603 747 3093 
Q 1141 3584 1784 3584 
Q 2172 3584 2450 3431 
Q 2728 3278 2906 2969 
L 2906 3500 
L 3481 3500 
L 3481 434 
z
" transform="scale(0.015625)"/>
        <path id="DejaVuSans-73" d="M 2834 3397 
L 2834 2853 
Q 2591 2978 2328 3040 
Q 2066 3103 1784 3103 
Q 1356 3103 1142 2972 
Q 928 2841 928 2578 
Q 928 2378 1081 2264 
Q 1234 2150 1697 2047 
L 1894 2003 
Q 2506 1872 2764 1633 
Q 3022 1394 3022 966 
Q 3022 478 2636 193 
Q 2250 -91 1575 -91 
Q 1294 -91 989 -36 
Q 684 19 347 128 
L 347 722 
Q 666 556 975 473 
Q 1284 391 1588 391 
Q 1994 391 2212 530 
Q 2431 669 2431 922 
Q 2431 1156 2273 1281 
Q 2116 1406 1581 1522 
L 1381 1569 
Q 847 1681 609 1914 
Q 372 2147 372 2553 
Q 372 3047 722 3315 
Q 1072 3584 1716 3584 
Q 2034 3584 2315 3537 
Q 2597 3491 2834 3397 
z
" transform="scale(0.015625)"/>
        <path id="DejaVuSans-49" d="M 628 4666 
L 1259 4666 
L 1259 0 
L 628 0 
L 628 4666 
z
" transform="scale(0.015625)"/>
       </defs>
       <use xlink:href="#DejaVuSans-67"/>
       <use xlink:href="#DejaVuSans-61" x="63.476562"/>
       <use xlink:href="#DejaVuSans-73" x="124.755859"/>
       <use xlink:href="#DejaVuSans-49" x="176.855469"/>
       <use xlink:href="#DejaVuSans-64" x="206.347656"/>
      </g>
     </g>
    </g>
    <g id="xtick_4">
     <g id="line2d_4">
      <g>
       <use xlink:href="#mec871f0b51" x="836.558333" y="575.57" style="stroke: #000000; stroke-width: 0.8"/>
      </g>
     </g>
     <g id="text_4">
      <!-- pendigits -->
      <g transform="translate(843.456771 698.124688) rotate(-90) scale(0.25 -0.25)">
       <defs>
        <path id="DejaVuSans-70" d="M 1159 525 
L 1159 -1331 
L 581 -1331 
L 581 3500 
L 1159 3500 
L 1159 2969 
Q 1341 3281 1617 3432 
Q 1894 3584 2278 3584 
Q 2916 3584 3314 3078 
Q 3713 2572 3713 1747 
Q 3713 922 3314 415 
Q 2916 -91 2278 -91 
Q 1894 -91 1617 61 
Q 1341 213 1159 525 
z
M 3116 1747 
Q 3116 2381 2855 2742 
Q 2594 3103 2138 3103 
Q 1681 3103 1420 2742 
Q 1159 2381 1159 1747 
Q 1159 1113 1420 752 
Q 1681 391 2138 391 
Q 2594 391 2855 752 
Q 3116 1113 3116 1747 
z
" transform="scale(0.015625)"/>
        <path id="DejaVuSans-65" d="M 3597 1894 
L 3597 1613 
L 953 1613 
Q 991 1019 1311 708 
Q 1631 397 2203 397 
Q 2534 397 2845 478 
Q 3156 559 3463 722 
L 3463 178 
Q 3153 47 2828 -22 
Q 2503 -91 2169 -91 
Q 1331 -91 842 396 
Q 353 884 353 1716 
Q 353 2575 817 3079 
Q 1281 3584 2069 3584 
Q 2775 3584 3186 3129 
Q 3597 2675 3597 1894 
z
M 3022 2063 
Q 3016 2534 2758 2815 
Q 2500 3097 2075 3097 
Q 1594 3097 1305 2825 
Q 1016 2553 972 2059 
L 3022 2063 
z
" transform="scale(0.015625)"/>
        <path id="DejaVuSans-6e" d="M 3513 2113 
L 3513 0 
L 2938 0 
L 2938 2094 
Q 2938 2591 2744 2837 
Q 2550 3084 2163 3084 
Q 1697 3084 1428 2787 
Q 1159 2491 1159 1978 
L 1159 0 
L 581 0 
L 581 3500 
L 1159 3500 
L 1159 2956 
Q 1366 3272 1645 3428 
Q 1925 3584 2291 3584 
Q 2894 3584 3203 3211 
Q 3513 2838 3513 2113 
z
" transform="scale(0.015625)"/>
        <path id="DejaVuSans-74" d="M 1172 4494 
L 1172 3500 
L 2356 3500 
L 2356 3053 
L 1172 3053 
L 1172 1153 
Q 1172 725 1289 603 
Q 1406 481 1766 481 
L 2356 481 
L 2356 0 
L 1766 0 
Q 1100 0 847 248 
Q 594 497 594 1153 
L 594 3053 
L 172 3053 
L 172 3500 
L 594 3500 
L 594 4494 
L 1172 4494 
z
" transform="scale(0.015625)"/>
       </defs>
       <use xlink:href="#DejaVuSans-70"/>
       <use xlink:href="#DejaVuSans-65" x="63.476562"/>
       <use xlink:href="#DejaVuSans-6e" x="125"/>
       <use xlink:href="#DejaVuSans-64" x="188.378906"/>
       <use xlink:href="#DejaVuSans-69" x="251.855469"/>
       <use xlink:href="#DejaVuSans-67" x="279.638672"/>
       <use xlink:href="#DejaVuSans-69" x="343.115234"/>
       <use xlink:href="#DejaVuSans-74" x="370.898438"/>
       <use xlink:href="#DejaVuSans-73" x="410.107422"/>
      </g>
     </g>
    </g>
    <g id="xtick_5">
     <g id="line2d_5">
      <g>
       <use xlink:href="#mec871f0b51" x="1044.095" y="575.57" style="stroke: #000000; stroke-width: 0.8"/>
      </g>
     </g>
     <g id="text_5">
      <!-- winered -->
      <g transform="translate(1050.993437 682.155938) rotate(-90) scale(0.25 -0.25)">
       <defs>
        <path id="DejaVuSans-77" d="M 269 3500 
L 844 3500 
L 1563 769 
L 2278 3500 
L 2956 3500 
L 3675 769 
L 4391 3500 
L 4966 3500 
L 4050 0 
L 3372 0 
L 2619 2869 
L 1863 0 
L 1184 0 
L 269 3500 
z
" transform="scale(0.015625)"/>
       </defs>
       <use xlink:href="#DejaVuSans-77"/>
       <use xlink:href="#DejaVuSans-69" x="81.787109"/>
       <use xlink:href="#DejaVuSans-6e" x="109.570312"/>
       <use xlink:href="#DejaVuSans-65" x="172.949219"/>
       <use xlink:href="#DejaVuSans-72" x="234.472656"/>
       <use xlink:href="#DejaVuSans-65" x="273.335938"/>
       <use xlink:href="#DejaVuSans-64" x="334.859375"/>
      </g>
     </g>
    </g>
    <g id="xtick_6">
     <g id="line2d_6">
      <g>
       <use xlink:href="#mec871f0b51" x="1251.631667" y="575.57" style="stroke: #000000; stroke-width: 0.8"/>
      </g>
     </g>
     <g id="text_6">
      <!-- winewhite -->
      <g transform="translate(1258.530104 709.605156) rotate(-90) scale(0.25 -0.25)">
       <defs>
        <path id="DejaVuSans-68" d="M 3513 2113 
L 3513 0 
L 2938 0 
L 2938 2094 
Q 2938 2591 2744 2837 
Q 2550 3084 2163 3084 
Q 1697 3084 1428 2787 
Q 1159 2491 1159 1978 
L 1159 0 
L 581 0 
L 581 4863 
L 1159 4863 
L 1159 2956 
Q 1366 3272 1645 3428 
Q 1925 3584 2291 3584 
Q 2894 3584 3203 3211 
Q 3513 2838 3513 2113 
z
" transform="scale(0.015625)"/>
       </defs>
       <use xlink:href="#DejaVuSans-77"/>
       <use xlink:href="#DejaVuSans-69" x="81.787109"/>
       <use xlink:href="#DejaVuSans-6e" x="109.570312"/>
       <use xlink:href="#DejaVuSans-65" x="172.949219"/>
       <use xlink:href="#DejaVuSans-77" x="234.472656"/>
       <use xlink:href="#DejaVuSans-68" x="316.259766"/>
       <use xlink:href="#DejaVuSans-69" x="379.638672"/>
       <use xlink:href="#DejaVuSans-74" x="407.421875"/>
       <use xlink:href="#DejaVuSans-65" x="446.630859"/>
      </g>
     </g>
    </g>
   </g>
   <g id="matplotlib.axis_2">
    <g id="ytick_1">
     <g id="line2d_7">
      <defs>
       <path id="m3165eabe1f" d="M 0 0 
L -3.5 0 
" style="stroke: #000000; stroke-width: 0.8"/>
      </defs>
      <g>
       <use xlink:href="#m3165eabe1f" x="110.18" y="575.57" style="stroke: #000000; stroke-width: 0.8"/>
      </g>
     </g>
     <g id="text_7">
      <!-- 0 -->
      <g transform="translate(87.27375 585.068047) scale(0.25 -0.25)">
       <defs>
        <path id="DejaVuSans-30" d="M 2034 4250 
Q 1547 4250 1301 3770 
Q 1056 3291 1056 2328 
Q 1056 1369 1301 889 
Q 1547 409 2034 409 
Q 2525 409 2770 889 
Q 3016 1369 3016 2328 
Q 3016 3291 2770 3770 
Q 2525 4250 2034 4250 
z
M 2034 4750 
Q 2819 4750 3233 4129 
Q 3647 3509 3647 2328 
Q 3647 1150 3233 529 
Q 2819 -91 2034 -91 
Q 1250 -91 836 529 
Q 422 1150 422 2328 
Q 422 3509 836 4129 
Q 1250 4750 2034 4750 
z
" transform="scale(0.015625)"/>
       </defs>
       <use xlink:href="#DejaVuSans-30"/>
      </g>
     </g>
    </g>
    <g id="ytick_2">
     <g id="line2d_8">
      <g>
       <use xlink:href="#m3165eabe1f" x="110.18" y="500.085016" style="stroke: #000000; stroke-width: 0.8"/>
      </g>
     </g>
     <g id="text_8">
      <!-- 50 -->
      <g transform="translate(71.3675 509.583062) scale(0.25 -0.25)">
       <defs>
        <path id="DejaVuSans-35" d="M 691 4666 
L 3169 4666 
L 3169 4134 
L 1269 4134 
L 1269 2991 
Q 1406 3038 1543 3061 
Q 1681 3084 1819 3084 
Q 2600 3084 3056 2656 
Q 3513 2228 3513 1497 
Q 3513 744 3044 326 
Q 2575 -91 1722 -91 
Q 1428 -91 1123 -41 
Q 819 9 494 109 
L 494 744 
Q 775 591 1075 516 
Q 1375 441 1709 441 
Q 2250 441 2565 725 
Q 2881 1009 2881 1497 
Q 2881 1984 2565 2268 
Q 2250 2553 1709 2553 
Q 1456 2553 1204 2497 
Q 953 2441 691 2322 
L 691 4666 
z
" transform="scale(0.015625)"/>
       </defs>
       <use xlink:href="#DejaVuSans-35"/>
       <use xlink:href="#DejaVuSans-30" x="63.623047"/>
      </g>
     </g>
    </g>
    <g id="ytick_3">
     <g id="line2d_9">
      <g>
       <use xlink:href="#m3165eabe1f" x="110.18" y="424.600031" style="stroke: #000000; stroke-width: 0.8"/>
      </g>
     </g>
     <g id="text_9">
      <!-- 100 -->
      <g transform="translate(55.46125 434.098078) scale(0.25 -0.25)">
       <defs>
        <path id="DejaVuSans-31" d="M 794 531 
L 1825 531 
L 1825 4091 
L 703 3866 
L 703 4441 
L 1819 4666 
L 2450 4666 
L 2450 531 
L 3481 531 
L 3481 0 
L 794 0 
L 794 531 
z
" transform="scale(0.015625)"/>
       </defs>
       <use xlink:href="#DejaVuSans-31"/>
       <use xlink:href="#DejaVuSans-30" x="63.623047"/>
       <use xlink:href="#DejaVuSans-30" x="127.246094"/>
      </g>
     </g>
    </g>
    <g id="ytick_4">
     <g id="line2d_10">
      <g>
       <use xlink:href="#m3165eabe1f" x="110.18" y="349.115047" style="stroke: #000000; stroke-width: 0.8"/>
      </g>
     </g>
     <g id="text_10">
      <!-- 150 -->
      <g transform="translate(55.46125 358.613093) scale(0.25 -0.25)">
       <use xlink:href="#DejaVuSans-31"/>
       <use xlink:href="#DejaVuSans-35" x="63.623047"/>
       <use xlink:href="#DejaVuSans-30" x="127.246094"/>
      </g>
     </g>
    </g>
    <g id="ytick_5">
     <g id="line2d_11">
      <g>
       <use xlink:href="#m3165eabe1f" x="110.18" y="273.630062" style="stroke: #000000; stroke-width: 0.8"/>
      </g>
     </g>
     <g id="text_11">
      <!-- 200 -->
      <g transform="translate(55.46125 283.128109) scale(0.25 -0.25)">
       <defs>
        <path id="DejaVuSans-32" d="M 1228 531 
L 3431 531 
L 3431 0 
L 469 0 
L 469 531 
Q 828 903 1448 1529 
Q 2069 2156 2228 2338 
Q 2531 2678 2651 2914 
Q 2772 3150 2772 3378 
Q 2772 3750 2511 3984 
Q 2250 4219 1831 4219 
Q 1534 4219 1204 4116 
Q 875 4013 500 3803 
L 500 4441 
Q 881 4594 1212 4672 
Q 1544 4750 1819 4750 
Q 2544 4750 2975 4387 
Q 3406 4025 3406 3419 
Q 3406 3131 3298 2873 
Q 3191 2616 2906 2266 
Q 2828 2175 2409 1742 
Q 1991 1309 1228 531 
z
" transform="scale(0.015625)"/>
       </defs>
       <use xlink:href="#DejaVuSans-32"/>
       <use xlink:href="#DejaVuSans-30" x="63.623047"/>
       <use xlink:href="#DejaVuSans-30" x="127.246094"/>
      </g>
     </g>
    </g>
    <g id="ytick_6">
     <g id="line2d_12">
      <g>
       <use xlink:href="#m3165eabe1f" x="110.18" y="198.145078" style="stroke: #000000; stroke-width: 0.8"/>
      </g>
     </g>
     <g id="text_12">
      <!-- 250 -->
      <g transform="translate(55.46125 207.643124) scale(0.25 -0.25)">
       <use xlink:href="#DejaVuSans-32"/>
       <use xlink:href="#DejaVuSans-35" x="63.623047"/>
       <use xlink:href="#DejaVuSans-30" x="127.246094"/>
      </g>
     </g>
    </g>
    <g id="ytick_7">
     <g id="line2d_13">
      <g>
       <use xlink:href="#m3165eabe1f" x="110.18" y="122.660093" style="stroke: #000000; stroke-width: 0.8"/>
      </g>
     </g>
     <g id="text_13">
      <!-- 300 -->
      <g transform="translate(55.46125 132.15814) scale(0.25 -0.25)">
       <defs>
        <path id="DejaVuSans-33" d="M 2597 2516 
Q 3050 2419 3304 2112 
Q 3559 1806 3559 1356 
Q 3559 666 3084 287 
Q 2609 -91 1734 -91 
Q 1441 -91 1130 -33 
Q 819 25 488 141 
L 488 750 
Q 750 597 1062 519 
Q 1375 441 1716 441 
Q 2309 441 2620 675 
Q 2931 909 2931 1356 
Q 2931 1769 2642 2001 
Q 2353 2234 1838 2234 
L 1294 2234 
L 1294 2753 
L 1863 2753 
Q 2328 2753 2575 2939 
Q 2822 3125 2822 3475 
Q 2822 3834 2567 4026 
Q 2313 4219 1838 4219 
Q 1578 4219 1281 4162 
Q 984 4106 628 3988 
L 628 4550 
Q 988 4650 1302 4700 
Q 1616 4750 1894 4750 
Q 2613 4750 3031 4423 
Q 3450 4097 3450 3541 
Q 3450 3153 3228 2886 
Q 3006 2619 2597 2516 
z
" transform="scale(0.015625)"/>
       </defs>
       <use xlink:href="#DejaVuSans-33"/>
       <use xlink:href="#DejaVuSans-30" x="63.623047"/>
       <use xlink:href="#DejaVuSans-30" x="127.246094"/>
      </g>
     </g>
    </g>
    <g id="text_14">
     <!-- Area (cm²) -->
     <g transform="translate(46.262031 382.951875) rotate(-90) scale(0.25 -0.25)">
      <defs>
       <path id="DejaVuSans-41" d="M 2188 4044 
L 1331 1722 
L 3047 1722 
L 2188 4044 
z
M 1831 4666 
L 2547 4666 
L 4325 0 
L 3669 0 
L 3244 1197 
L 1141 1197 
L 716 0 
L 50 0 
L 1831 4666 
z
" transform="scale(0.015625)"/>
       <path id="DejaVuSans-20" transform="scale(0.015625)"/>
       <path id="DejaVuSans-28" d="M 1984 4856 
Q 1566 4138 1362 3434 
Q 1159 2731 1159 2009 
Q 1159 1288 1364 580 
Q 1569 -128 1984 -844 
L 1484 -844 
Q 1016 -109 783 600 
Q 550 1309 550 2009 
Q 550 2706 781 3412 
Q 1013 4119 1484 4856 
L 1984 4856 
z
" transform="scale(0.015625)"/>
       <path id="DejaVuSans-6d" d="M 3328 2828 
Q 3544 3216 3844 3400 
Q 4144 3584 4550 3584 
Q 5097 3584 5394 3201 
Q 5691 2819 5691 2113 
L 5691 0 
L 5113 0 
L 5113 2094 
Q 5113 2597 4934 2840 
Q 4756 3084 4391 3084 
Q 3944 3084 3684 2787 
Q 3425 2491 3425 1978 
L 3425 0 
L 2847 0 
L 2847 2094 
Q 2847 2600 2669 2842 
Q 2491 3084 2119 3084 
Q 1678 3084 1418 2786 
Q 1159 2488 1159 1978 
L 1159 0 
L 581 0 
L 581 3500 
L 1159 3500 
L 1159 2956 
Q 1356 3278 1631 3431 
Q 1906 3584 2284 3584 
Q 2666 3584 2933 3390 
Q 3200 3197 3328 2828 
z
" transform="scale(0.015625)"/>
       <path id="DejaVuSans-b2" d="M 838 2444 
L 2163 2444 
L 2163 2088 
L 294 2088 
L 294 2431 
Q 400 2528 597 2703 
Q 1672 3656 1672 3950 
Q 1672 4156 1509 4282 
Q 1347 4409 1081 4409 
Q 919 4409 728 4354 
Q 538 4300 313 4191 
L 313 4575 
Q 553 4663 761 4706 
Q 969 4750 1147 4750 
Q 1600 4750 1872 4544 
Q 2144 4338 2144 4000 
Q 2144 3566 1109 2678 
Q 934 2528 838 2444 
z
" transform="scale(0.015625)"/>
       <path id="DejaVuSans-29" d="M 513 4856 
L 1013 4856 
Q 1481 4119 1714 3412 
Q 1947 2706 1947 2009 
Q 1947 1309 1714 600 
Q 1481 -109 1013 -844 
L 513 -844 
Q 928 -128 1133 580 
Q 1338 1288 1338 2009 
Q 1338 2731 1133 3434 
Q 928 4138 513 4856 
z
" transform="scale(0.015625)"/>
      </defs>
      <use xlink:href="#DejaVuSans-41"/>
      <use xlink:href="#DejaVuSans-72" x="68.408203"/>
      <use xlink:href="#DejaVuSans-65" x="107.271484"/>
      <use xlink:href="#DejaVuSans-61" x="168.794922"/>
      <use xlink:href="#DejaVuSans-20" x="230.074219"/>
      <use xlink:href="#DejaVuSans-28" x="261.861328"/>
      <use xlink:href="#DejaVuSans-63" x="300.875"/>
      <use xlink:href="#DejaVuSans-6d" x="355.855469"/>
      <use xlink:href="#DejaVuSans-b2" x="453.267578"/>
      <use xlink:href="#DejaVuSans-29" x="493.355469"/>
     </g>
    </g>
   </g>
   <g id="patch_51">
    <path d="M 110.18 575.57 
L 110.18 57.24 
" style="fill: none; stroke: #000000; stroke-width: 0.8; stroke-linejoin: miter; stroke-linecap: square"/>
   </g>
   <g id="patch_52">
    <path d="M 1355.4 575.57 
L 1355.4 57.24 
" style="fill: none; stroke: #000000; stroke-width: 0.8; stroke-linejoin: miter; stroke-linecap: square"/>
   </g>
   <g id="patch_53">
    <path d="M 110.18 575.57 
L 1355.4 575.57 
" style="fill: none; stroke: #000000; stroke-width: 0.8; stroke-linejoin: miter; stroke-linecap: square"/>
   </g>
   <g id="patch_54">
    <path d="M 110.18 57.24 
L 1355.4 57.24 
" style="fill: none; stroke: #000000; stroke-width: 0.8; stroke-linejoin: miter; stroke-linecap: square"/>
   </g>
   <g id="text_15">
    <!-- Area comparison -->
    <g transform="translate(605.9275 51.000937) scale(0.3 -0.3)">
     <use xlink:href="#DejaVuSans-41"/>
     <use xlink:href="#DejaVuSans-72" x="68.408203"/>
     <use xlink:href="#DejaVuSans-65" x="107.271484"/>
     <use xlink:href="#DejaVuSans-61" x="168.794922"/>
     <use xlink:href="#DejaVuSans-20" x="230.074219"/>
     <use xlink:href="#DejaVuSans-63" x="261.861328"/>
     <use xlink:href="#DejaVuSans-6f" x="316.841797"/>
     <use xlink:href="#DejaVuSans-6d" x="378.023438"/>
     <use xlink:href="#DejaVuSans-70" x="475.435547"/>
     <use xlink:href="#DejaVuSans-61" x="538.912109"/>
     <use xlink:href="#DejaVuSans-72" x="600.191406"/>
     <use xlink:href="#DejaVuSans-69" x="641.304688"/>
     <use xlink:href="#DejaVuSans-73" x="669.087891"/>
     <use xlink:href="#DejaVuSans-6f" x="721.1875"/>
     <use xlink:href="#DejaVuSans-6e" x="782.369141"/>
    </g>
   </g>
   <g id="legend_1">
    <g id="patch_55">
     <path d="M 1094.349219 370.8025 
L 1337.9 370.8025 
Q 1342.9 370.8025 1342.9 365.8025 
L 1342.9 74.74 
Q 1342.9 69.74 1337.9 69.74 
L 1094.349219 69.74 
Q 1089.349219 69.74 1089.349219 74.74 
L 1089.349219 365.8025 
Q 1089.349219 370.8025 1094.349219 370.8025 
z
" style="fill: #ffffff; opacity: 0.8; stroke: #cccccc; stroke-linejoin: miter"/>
    </g>
    <g id="patch_56">
     <path d="M 1099.349219 98.736094 
L 1149.349219 98.736094 
L 1149.349219 81.236094 
L 1099.349219 81.236094 
z
" style="fill: #1f77b4"/>
    </g>
    <g id="text_16">
     <!-- bnnpaar -->
     <g transform="translate(1169.349219 98.736094) scale(0.25 -0.25)">
      <defs>
       <path id="DejaVuSans-62" d="M 3116 1747 
Q 3116 2381 2855 2742 
Q 2594 3103 2138 3103 
Q 1681 3103 1420 2742 
Q 1159 2381 1159 1747 
Q 1159 1113 1420 752 
Q 1681 391 2138 391 
Q 2594 391 2855 752 
Q 3116 1113 3116 1747 
z
M 1159 2969 
Q 1341 3281 1617 3432 
Q 1894 3584 2278 3584 
Q 2916 3584 3314 3078 
Q 3713 2572 3713 1747 
Q 3713 922 3314 415 
Q 2916 -91 2278 -91 
Q 1894 -91 1617 61 
Q 1341 213 1159 525 
L 1159 0 
L 581 0 
L 581 4863 
L 1159 4863 
L 1159 2969 
z
" transform="scale(0.015625)"/>
      </defs>
      <use xlink:href="#DejaVuSans-62"/>
      <use xlink:href="#DejaVuSans-6e" x="63.476562"/>
      <use xlink:href="#DejaVuSans-6e" x="126.855469"/>
      <use xlink:href="#DejaVuSans-70" x="190.234375"/>
      <use xlink:href="#DejaVuSans-61" x="253.710938"/>
      <use xlink:href="#DejaVuSans-61" x="314.990234"/>
      <use xlink:href="#DejaVuSans-72" x="376.269531"/>
     </g>
    </g>
    <g id="patch_57">
     <path d="M 1099.349219 135.431406 
L 1149.349219 135.431406 
L 1149.349219 117.931406 
L 1099.349219 117.931406 
z
" style="fill: #ff7f0e"/>
    </g>
    <g id="text_17">
     <!-- bnnparw -->
     <g transform="translate(1169.349219 135.431406) scale(0.25 -0.25)">
      <use xlink:href="#DejaVuSans-62"/>
      <use xlink:href="#DejaVuSans-6e" x="63.476562"/>
      <use xlink:href="#DejaVuSans-6e" x="126.855469"/>
      <use xlink:href="#DejaVuSans-70" x="190.234375"/>
      <use xlink:href="#DejaVuSans-61" x="253.710938"/>
      <use xlink:href="#DejaVuSans-72" x="314.990234"/>
      <use xlink:href="#DejaVuSans-77" x="356.103516"/>
     </g>
    </g>
    <g id="patch_58">
     <path d="M 1099.349219 172.126719 
L 1149.349219 172.126719 
L 1149.349219 154.626719 
L 1099.349219 154.626719 
z
" style="fill: #2ca02c"/>
    </g>
    <g id="text_18">
     <!-- bnnpar -->
     <g transform="translate(1169.349219 172.126719) scale(0.25 -0.25)">
      <use xlink:href="#DejaVuSans-62"/>
      <use xlink:href="#DejaVuSans-6e" x="63.476562"/>
      <use xlink:href="#DejaVuSans-6e" x="126.855469"/>
      <use xlink:href="#DejaVuSans-70" x="190.234375"/>
      <use xlink:href="#DejaVuSans-61" x="253.710938"/>
      <use xlink:href="#DejaVuSans-72" x="314.990234"/>
     </g>
    </g>
    <g id="patch_59">
     <path d="M 1099.349219 208.822031 
L 1149.349219 208.822031 
L 1149.349219 191.322031 
L 1099.349219 191.322031 
z
" style="fill: #d62728"/>
    </g>
    <g id="text_19">
     <!-- bnnparsign -->
     <g transform="translate(1169.349219 208.822031) scale(0.25 -0.25)">
      <use xlink:href="#DejaVuSans-62"/>
      <use xlink:href="#DejaVuSans-6e" x="63.476562"/>
      <use xlink:href="#DejaVuSans-6e" x="126.855469"/>
      <use xlink:href="#DejaVuSans-70" x="190.234375"/>
      <use xlink:href="#DejaVuSans-61" x="253.710938"/>
      <use xlink:href="#DejaVuSans-72" x="314.990234"/>
      <use xlink:href="#DejaVuSans-73" x="356.103516"/>
      <use xlink:href="#DejaVuSans-69" x="408.203125"/>
      <use xlink:href="#DejaVuSans-67" x="435.986328"/>
      <use xlink:href="#DejaVuSans-6e" x="499.462891"/>
     </g>
    </g>
    <g id="patch_60">
     <path d="M 1099.349219 245.517344 
L 1149.349219 245.517344 
L 1149.349219 228.017344 
L 1099.349219 228.017344 
z
" style="fill: #9467bd"/>
    </g>
    <g id="text_20">
     <!-- tnnparsign -->
     <g transform="translate(1169.349219 245.517344) scale(0.25 -0.25)">
      <use xlink:href="#DejaVuSans-74"/>
      <use xlink:href="#DejaVuSans-6e" x="39.208984"/>
      <use xlink:href="#DejaVuSans-6e" x="102.587891"/>
      <use xlink:href="#DejaVuSans-70" x="165.966797"/>
      <use xlink:href="#DejaVuSans-61" x="229.443359"/>
      <use xlink:href="#DejaVuSans-72" x="290.722656"/>
      <use xlink:href="#DejaVuSans-73" x="331.835938"/>
      <use xlink:href="#DejaVuSans-69" x="383.935547"/>
      <use xlink:href="#DejaVuSans-67" x="411.71875"/>
      <use xlink:href="#DejaVuSans-6e" x="475.195312"/>
     </g>
    </g>
    <g id="patch_61">
     <path d="M 1099.349219 282.212656 
L 1149.349219 282.212656 
L 1149.349219 264.712656 
L 1099.349219 264.712656 
z
" style="fill: #8c564b"/>
    </g>
    <g id="text_21">
     <!-- bnnparstepw -->
     <g transform="translate(1169.349219 282.212656) scale(0.25 -0.25)">
      <use xlink:href="#DejaVuSans-62"/>
      <use xlink:href="#DejaVuSans-6e" x="63.476562"/>
      <use xlink:href="#DejaVuSans-6e" x="126.855469"/>
      <use xlink:href="#DejaVuSans-70" x="190.234375"/>
      <use xlink:href="#DejaVuSans-61" x="253.710938"/>
      <use xlink:href="#DejaVuSans-72" x="314.990234"/>
      <use xlink:href="#DejaVuSans-73" x="356.103516"/>
      <use xlink:href="#DejaVuSans-74" x="408.203125"/>
      <use xlink:href="#DejaVuSans-65" x="447.412109"/>
      <use xlink:href="#DejaVuSans-70" x="508.935547"/>
      <use xlink:href="#DejaVuSans-77" x="572.412109"/>
     </g>
    </g>
    <g id="patch_62">
     <path d="M 1099.349219 318.907969 
L 1149.349219 318.907969 
L 1149.349219 301.407969 
L 1099.349219 301.407969 
z
" style="fill: #e377c2"/>
    </g>
    <g id="text_22">
     <!-- bnnparce -->
     <g transform="translate(1169.349219 318.907969) scale(0.25 -0.25)">
      <use xlink:href="#DejaVuSans-62"/>
      <use xlink:href="#DejaVuSans-6e" x="63.476562"/>
      <use xlink:href="#DejaVuSans-6e" x="126.855469"/>
      <use xlink:href="#DejaVuSans-70" x="190.234375"/>
      <use xlink:href="#DejaVuSans-61" x="253.710938"/>
      <use xlink:href="#DejaVuSans-72" x="314.990234"/>
      <use xlink:href="#DejaVuSans-63" x="353.853516"/>
      <use xlink:href="#DejaVuSans-65" x="408.833984"/>
     </g>
    </g>
    <g id="patch_63">
     <path d="M 1099.349219 355.603281 
L 1149.349219 355.603281 
L 1149.349219 338.103281 
L 1099.349219 338.103281 
z
" style="fill: #7f7f7f"/>
    </g>
    <g id="text_23">
     <!-- bnnpaarter -->
     <g transform="translate(1169.349219 355.603281) scale(0.25 -0.25)">
      <use xlink:href="#DejaVuSans-62"/>
      <use xlink:href="#DejaVuSans-6e" x="63.476562"/>
      <use xlink:href="#DejaVuSans-6e" x="126.855469"/>
      <use xlink:href="#DejaVuSans-70" x="190.234375"/>
      <use xlink:href="#DejaVuSans-61" x="253.710938"/>
      <use xlink:href="#DejaVuSans-61" x="314.990234"/>
      <use xlink:href="#DejaVuSans-72" x="376.269531"/>
      <use xlink:href="#DejaVuSans-74" x="417.382812"/>
      <use xlink:href="#DejaVuSans-65" x="456.591797"/>
      <use xlink:href="#DejaVuSans-72" x="518.115234"/>
     </g>
    </g>
   </g>
  </g>
 </g>
 <defs>
  <clipPath id="p64d8d2a157">
   <rect x="110.18" y="57.24" width="1245.22" height="518.33"/>
  </clipPath>
 </defs>
</svg>
