<?xml version="1.0" encoding="utf-8" standalone="no"?>
<!DOCTYPE svg PUBLIC "-//W3C//DTD SVG 1.1//EN"
  "http://www.w3.org/Graphics/SVG/1.1/DTD/svg11.dtd">
<svg xmlns:xlink="http://www.w3.org/1999/xlink" width="1382.4pt" height="736.56pt" viewBox="0 0 1382.4 736.56" xmlns="http://www.w3.org/2000/svg" version="1.1">
 <metadata>
  <rdf:RDF xmlns:dc="http://purl.org/dc/elements/1.1/" xmlns:cc="http://creativecommons.org/ns#" xmlns:rdf="http://www.w3.org/1999/02/22-rdf-syntax-ns#">
   <cc:Work>
    <dc:type rdf:resource="http://purl.org/dc/dcmitype/StillImage"/>
    <dc:date>2023-06-24T23:31:40.062448</dc:date>
    <dc:format>image/svg+xml</dc:format>
    <dc:creator>
     <cc:Agent>
      <dc:title>Matplotlib v3.6.2, https://matplotlib.org/</dc:title>
     </cc:Agent>
    </dc:creator>
   </cc:Work>
  </rdf:RDF>
 </metadata>
 <defs>
  <style type="text/css">*{stroke-linejoin: round; stroke-linecap: butt}</style>
 </defs>
 <g id="figure_1">
  <g id="patch_1">
   <path d="M 0 736.56 
L 1382.4 736.56 
L 1382.4 0 
L 0 0 
z
" style="fill: #ffffff"/>
  </g>
  <g id="axes_1">
   <g id="patch_2">
    <path d="M 94.25 575.57 
L 1355.4 575.57 
L 1355.4 57.24 
L 94.25 57.24 
z
" style="fill: #ffffff"/>
   </g>
   <g id="patch_3">
    <path d="M 146.797917 575.57 
L 159.934896 575.57 
L 159.934896 441.780185 
L 146.797917 441.780185 
z
" clip-path="url(#p2b6721639e)" style="fill: #1f77b4"/>
   </g>
   <g id="patch_4">
    <path d="M 356.989583 575.57 
L 370.126562 575.57 
L 370.126562 437.612283 
L 356.989583 437.612283 
z
" clip-path="url(#p2b6721639e)" style="fill: #1f77b4"/>
   </g>
   <g id="patch_5">
    <path d="M 567.18125 575.57 
L 580.318229 575.57 
L 580.318229 124.118153 
L 567.18125 124.118153 
z
" clip-path="url(#p2b6721639e)" style="fill: #1f77b4"/>
   </g>
   <g id="patch_6">
    <path d="M 777.372917 575.57 
L 790.509896 575.57 
L 790.509896 409.639902 
L 777.372917 409.639902 
z
" clip-path="url(#p2b6721639e)" style="fill: #1f77b4"/>
   </g>
   <g id="patch_7">
    <path d="M 987.564583 575.57 
L 1000.701562 575.57 
L 1000.701562 447.370498 
L 987.564583 447.370498 
z
" clip-path="url(#p2b6721639e)" style="fill: #1f77b4"/>
   </g>
   <g id="patch_8">
    <path d="M 1197.75625 575.57 
L 1210.893229 575.57 
L 1210.893229 450.626658 
L 1197.75625 450.626658 
z
" clip-path="url(#p2b6721639e)" style="fill: #1f77b4"/>
   </g>
   <g id="patch_9">
    <path d="M 159.934896 575.57 
L 173.071875 575.57 
L 173.071875 421.640989 
L 159.934896 421.640989 
z
" clip-path="url(#p2b6721639e)" style="fill: #ff7f0e"/>
   </g>
   <g id="patch_10">
    <path d="M 370.126562 575.57 
L 383.263542 575.57 
L 383.263542 405.704466 
L 370.126562 405.704466 
z
" clip-path="url(#p2b6721639e)" style="fill: #ff7f0e"/>
   </g>
   <g id="patch_11">
    <path d="M 580.318229 575.57 
L 593.455208 575.57 
L 593.455208 81.922381 
L 580.318229 81.922381 
z
" clip-path="url(#p2b6721639e)" style="fill: #ff7f0e"/>
   </g>
   <g id="patch_12">
    <path d="M 790.509896 575.57 
L 803.646875 575.57 
L 803.646875 392.134023 
L 790.509896 392.134023 
z
" clip-path="url(#p2b6721639e)" style="fill: #ff7f0e"/>
   </g>
   <g id="patch_13">
    <path d="M 1000.701562 575.57 
L 1013.838542 575.57 
L 1013.838542 424.552159 
L 1000.701562 424.552159 
z
" clip-path="url(#p2b6721639e)" style="fill: #ff7f0e"/>
   </g>
   <g id="patch_14">
    <path d="M 1210.893229 575.57 
L 1224.030208 575.57 
L 1224.030208 423.435327 
L 1210.893229 423.435327 
z
" clip-path="url(#p2b6721639e)" style="fill: #ff7f0e"/>
   </g>
   <g id="patch_15">
    <path d="M 173.071875 575.57 
L 186.208854 575.57 
L 186.208854 520.032111 
L 173.071875 520.032111 
z
" clip-path="url(#p2b6721639e)" style="fill: #2ca02c"/>
   </g>
   <g id="patch_16">
    <path d="M 383.263542 575.57 
L 396.400521 575.57 
L 396.400521 506.26036 
L 383.263542 506.26036 
z
" clip-path="url(#p2b6721639e)" style="fill: #2ca02c"/>
   </g>
   <g id="patch_17">
    <path d="M 593.455208 575.57 
L 606.592188 575.57 
L 606.592188 267.010111 
L 593.455208 267.010111 
z
" clip-path="url(#p2b6721639e)" style="fill: #2ca02c"/>
   </g>
   <g id="patch_18">
    <path d="M 803.646875 575.57 
L 816.783854 575.57 
L 816.783854 509.136513 
L 803.646875 509.136513 
z
" clip-path="url(#p2b6721639e)" style="fill: #2ca02c"/>
   </g>
   <g id="patch_19">
    <path d="M 1013.838542 575.57 
L 1026.975521 575.57 
L 1026.975521 521.744906 
L 1013.838542 521.744906 
z
" clip-path="url(#p2b6721639e)" style="fill: #2ca02c"/>
   </g>
   <g id="patch_20">
    <path d="M 1224.030208 575.57 
L 1237.167187 575.57 
L 1237.167187 522.325208 
L 1224.030208 522.325208 
z
" clip-path="url(#p2b6721639e)" style="fill: #2ca02c"/>
   </g>
   <g id="patch_21">
    <path d="M 186.208854 575.57 
L 199.345833 575.57 
L 199.345833 524.640989 
L 186.208854 524.640989 
z
" clip-path="url(#p2b6721639e)" style="fill: #d62728"/>
   </g>
   <g id="patch_22">
    <path d="M 396.400521 575.57 
L 409.5375 575.57 
L 409.5375 513.762667 
L 396.400521 513.762667 
z
" clip-path="url(#p2b6721639e)" style="fill: #d62728"/>
   </g>
   <g id="patch_23">
    <path d="M 606.592187 575.57 
L 619.729167 575.57 
L 619.729167 340.945725 
L 606.592187 340.945725 
z
" clip-path="url(#p2b6721639e)" style="fill: #d62728"/>
   </g>
   <g id="patch_24">
    <path d="M 816.783854 575.57 
L 829.920833 575.57 
L 829.920833 516.000105 
L 816.783854 516.000105 
z
" clip-path="url(#p2b6721639e)" style="fill: #d62728"/>
   </g>
   <g id="patch_25">
    <path d="M 1026.975521 575.57 
L 1040.1125 575.57 
L 1040.1125 526.268268 
L 1026.975521 526.268268 
z
" clip-path="url(#p2b6721639e)" style="fill: #d62728"/>
   </g>
   <g id="patch_26">
    <path d="M 1237.167187 575.57 
L 1250.304167 575.57 
L 1250.304167 527.403727 
L 1237.167187 527.403727 
z
" clip-path="url(#p2b6721639e)" style="fill: #d62728"/>
   </g>
   <g id="patch_27">
    <path d="M 199.345833 575.57 
L 212.482812 575.57 
L 212.482812 532.014003 
L 199.345833 532.014003 
z
" clip-path="url(#p2b6721639e)" style="fill: #9467bd"/>
   </g>
   <g id="patch_28">
    <path d="M 409.5375 575.57 
L 422.674479 575.57 
L 422.674479 523.740118 
L 409.5375 523.740118 
z
" clip-path="url(#p2b6721639e)" style="fill: #9467bd"/>
   </g>
   <g id="patch_29">
    <path d="M 619.729167 575.57 
L 632.866146 575.57 
L 632.866146 367.743528 
L 619.729167 367.743528 
z
" clip-path="url(#p2b6721639e)" style="fill: #9467bd"/>
   </g>
   <g id="patch_30">
    <path d="M 829.920833 575.57 
L 843.057812 575.57 
L 843.057812 525.011419 
L 829.920833 525.011419 
z
" clip-path="url(#p2b6721639e)" style="fill: #9467bd"/>
   </g>
   <g id="patch_31">
    <path d="M 1040.1125 575.57 
L 1053.249479 575.57 
L 1053.249479 533.203353 
L 1040.1125 533.203353 
z
" clip-path="url(#p2b6721639e)" style="fill: #9467bd"/>
   </g>
   <g id="patch_32">
    <path d="M 1250.304167 575.57 
L 1263.441146 575.57 
L 1263.441146 533.863358 
L 1250.304167 533.863358 
z
" clip-path="url(#p2b6721639e)" style="fill: #9467bd"/>
   </g>
   <g id="patch_33">
    <path d="M 212.482812 575.57 
L 225.619792 575.57 
L 225.619792 434.154523 
L 212.482812 434.154523 
z
" clip-path="url(#p2b6721639e)" style="fill: #8c564b"/>
   </g>
   <g id="patch_34">
    <path d="M 422.674479 575.57 
L 435.811458 575.57 
L 435.811458 429.320631 
L 422.674479 429.320631 
z
" clip-path="url(#p2b6721639e)" style="fill: #8c564b"/>
   </g>
   <g id="patch_35">
    <path d="M 632.866146 575.57 
L 646.003125 575.57 
L 646.003125 119.539042 
L 632.866146 119.539042 
z
" clip-path="url(#p2b6721639e)" style="fill: #8c564b"/>
   </g>
   <g id="patch_36">
    <path d="M 843.057812 575.57 
L 856.194792 575.57 
L 856.194792 409.021825 
L 843.057812 409.021825 
z
" clip-path="url(#p2b6721639e)" style="fill: #8c564b"/>
   </g>
   <g id="patch_37">
    <path d="M 1053.249479 575.57 
L 1066.386458 575.57 
L 1066.386458 439.029778 
L 1053.249479 439.029778 
z
" clip-path="url(#p2b6721639e)" style="fill: #8c564b"/>
   </g>
   <g id="patch_38">
    <path d="M 1263.441146 575.57 
L 1276.578125 575.57 
L 1276.578125 441.991527 
L 1263.441146 441.991527 
z
" clip-path="url(#p2b6721639e)" style="fill: #8c564b"/>
   </g>
   <g id="patch_39">
    <path d="M 225.619792 575.57 
L 238.756771 575.57 
L 238.756771 529.384837 
L 225.619792 529.384837 
z
" clip-path="url(#p2b6721639e)" style="fill: #e377c2"/>
   </g>
   <g id="patch_40">
    <path d="M 435.811458 575.57 
L 448.948437 575.57 
L 448.948437 515.127271 
L 435.811458 515.127271 
z
" clip-path="url(#p2b6721639e)" style="fill: #e377c2"/>
   </g>
   <g id="patch_41">
    <path d="M 646.003125 575.57 
L 659.140104 575.57 
L 659.140104 360.885894 
L 646.003125 360.885894 
z
" clip-path="url(#p2b6721639e)" style="fill: #e377c2"/>
   </g>
   <g id="patch_42">
    <path d="M 856.194792 575.57 
L 869.331771 575.57 
L 869.331771 517.832071 
L 856.194792 517.832071 
z
" clip-path="url(#p2b6721639e)" style="fill: #e377c2"/>
   </g>
   <g id="patch_43">
    <path d="M 1066.386458 575.57 
L 1079.523437 575.57 
L 1079.523437 530.781947 
L 1066.386458 530.781947 
z
" clip-path="url(#p2b6721639e)" style="fill: #e377c2"/>
   </g>
   <g id="patch_44">
    <path d="M 1276.578125 575.57 
L 1289.715104 575.57 
L 1289.715104 531.011044 
L 1276.578125 531.011044 
z
" clip-path="url(#p2b6721639e)" style="fill: #e377c2"/>
   </g>
   <g id="patch_45">
    <path d="M 238.756771 575.57 
L 251.89375 575.57 
L 251.89375 410.974867 
L 238.756771 410.974867 
z
" clip-path="url(#p2b6721639e)" style="fill: #7f7f7f"/>
   </g>
   <g id="patch_46">
    <path d="M 448.948437 575.57 
L 462.085417 575.57 
L 462.085417 400.275382 
L 448.948437 400.275382 
z
" clip-path="url(#p2b6721639e)" style="fill: #7f7f7f"/>
   </g>
   <g id="patch_47">
    <path d="M 659.140104 575.57 
L 672.277083 575.57 
L 672.277083 310.020382 
L 659.140104 310.020382 
z
" clip-path="url(#p2b6721639e)" style="fill: #7f7f7f"/>
   </g>
   <g id="patch_48">
    <path d="M 869.331771 575.57 
L 882.46875 575.57 
L 882.46875 382.204522 
L 869.331771 382.204522 
z
" clip-path="url(#p2b6721639e)" style="fill: #7f7f7f"/>
   </g>
   <g id="patch_49">
    <path d="M 1079.523438 575.57 
L 1092.660417 575.57 
L 1092.660417 410.842572 
L 1079.523438 410.842572 
z
" clip-path="url(#p2b6721639e)" style="fill: #7f7f7f"/>
   </g>
   <g id="patch_50">
    <path d="M 1289.715104 575.57 
L 1302.852083 575.57 
L 1302.852083 409.857847 
L 1289.715104 409.857847 
z
" clip-path="url(#p2b6721639e)" style="fill: #7f7f7f"/>
   </g>
   <g id="matplotlib.axis_1">
    <g id="xtick_1">
     <g id="line2d_1">
      <defs>
       <path id="m615fec0655" d="M 0 0 
L 0 3.5 
" style="stroke: #000000; stroke-width: 0.8"/>
      </defs>
      <g>
       <use xlink:href="#m615fec0655" x="199.345833" y="575.57" style="stroke: #000000; stroke-width: 0.8"/>
      </g>
     </g>
     <g id="text_1">
      <!-- Har -->
      <g transform="translate(206.244271 626.968438) rotate(-90) scale(0.25 -0.25)">
       <defs>
        <path id="DejaVuSans-48" d="M 628 4666 
L 1259 4666 
L 1259 2753 
L 3553 2753 
L 3553 4666 
L 4184 4666 
L 4184 0 
L 3553 0 
L 3553 2222 
L 1259 2222 
L 1259 0 
L 628 0 
L 628 4666 
z
" transform="scale(0.015625)"/>
        <path id="DejaVuSans-61" d="M 2194 1759 
Q 1497 1759 1228 1600 
Q 959 1441 959 1056 
Q 959 750 1161 570 
Q 1363 391 1709 391 
Q 2188 391 2477 730 
Q 2766 1069 2766 1631 
L 2766 1759 
L 2194 1759 
z
M 3341 1997 
L 3341 0 
L 2766 0 
L 2766 531 
Q 2569 213 2275 61 
Q 1981 -91 1556 -91 
Q 1019 -91 701 211 
Q 384 513 384 1019 
Q 384 1609 779 1909 
Q 1175 2209 1959 2209 
L 2766 2209 
L 2766 2266 
Q 2766 2663 2505 2880 
Q 2244 3097 1772 3097 
Q 1472 3097 1187 3025 
Q 903 2953 641 2809 
L 641 3341 
Q 956 3463 1253 3523 
Q 1550 3584 1831 3584 
Q 2591 3584 2966 3190 
Q 3341 2797 3341 1997 
z
" transform="scale(0.015625)"/>
        <path id="DejaVuSans-72" d="M 2631 2963 
Q 2534 3019 2420 3045 
Q 2306 3072 2169 3072 
Q 1681 3072 1420 2755 
Q 1159 2438 1159 1844 
L 1159 0 
L 581 0 
L 581 3500 
L 1159 3500 
L 1159 2956 
Q 1341 3275 1631 3429 
Q 1922 3584 2338 3584 
Q 2397 3584 2469 3576 
Q 2541 3569 2628 3553 
L 2631 2963 
z
" transform="scale(0.015625)"/>
       </defs>
       <use xlink:href="#DejaVuSans-48"/>
       <use xlink:href="#DejaVuSans-61" x="75.195312"/>
       <use xlink:href="#DejaVuSans-72" x="136.474609"/>
      </g>
     </g>
    </g>
    <g id="xtick_2">
     <g id="line2d_2">
      <g>
       <use xlink:href="#m615fec0655" x="409.5375" y="575.57" style="stroke: #000000; stroke-width: 0.8"/>
      </g>
     </g>
     <g id="text_2">
      <!-- cardio -->
      <g transform="translate(416.435937 659.589531) rotate(-90) scale(0.25 -0.25)">
       <defs>
        <path id="DejaVuSans-63" d="M 3122 3366 
L 3122 2828 
Q 2878 2963 2633 3030 
Q 2388 3097 2138 3097 
Q 1578 3097 1268 2742 
Q 959 2388 959 1747 
Q 959 1106 1268 751 
Q 1578 397 2138 397 
Q 2388 397 2633 464 
Q 2878 531 3122 666 
L 3122 134 
Q 2881 22 2623 -34 
Q 2366 -91 2075 -91 
Q 1284 -91 818 406 
Q 353 903 353 1747 
Q 353 2603 823 3093 
Q 1294 3584 2113 3584 
Q 2378 3584 2631 3529 
Q 2884 3475 3122 3366 
z
" transform="scale(0.015625)"/>
        <path id="DejaVuSans-64" d="M 2906 2969 
L 2906 4863 
L 3481 4863 
L 3481 0 
L 2906 0 
L 2906 525 
Q 2725 213 2448 61 
Q 2172 -91 1784 -91 
Q 1150 -91 751 415 
Q 353 922 353 1747 
Q 353 2572 751 3078 
Q 1150 3584 1784 3584 
Q 2172 3584 2448 3432 
Q 2725 3281 2906 2969 
z
M 947 1747 
Q 947 1113 1208 752 
Q 1469 391 1925 391 
Q 2381 391 2643 752 
Q 2906 1113 2906 1747 
Q 2906 2381 2643 2742 
Q 2381 3103 1925 3103 
Q 1469 3103 1208 2742 
Q 947 2381 947 1747 
z
" transform="scale(0.015625)"/>
        <path id="DejaVuSans-69" d="M 603 3500 
L 1178 3500 
L 1178 0 
L 603 0 
L 603 3500 
z
M 603 4863 
L 1178 4863 
L 1178 4134 
L 603 4134 
L 603 4863 
z
" transform="scale(0.015625)"/>
        <path id="DejaVuSans-6f" d="M 1959 3097 
Q 1497 3097 1228 2736 
Q 959 2375 959 1747 
Q 959 1119 1226 758 
Q 1494 397 1959 397 
Q 2419 397 2687 759 
Q 2956 1122 2956 1747 
Q 2956 2369 2687 2733 
Q 2419 3097 1959 3097 
z
M 1959 3584 
Q 2709 3584 3137 3096 
Q 3566 2609 3566 1747 
Q 3566 888 3137 398 
Q 2709 -91 1959 -91 
Q 1206 -91 779 398 
Q 353 888 353 1747 
Q 353 2609 779 3096 
Q 1206 3584 1959 3584 
z
" transform="scale(0.015625)"/>
       </defs>
       <use xlink:href="#DejaVuSans-63"/>
       <use xlink:href="#DejaVuSans-61" x="54.980469"/>
       <use xlink:href="#DejaVuSans-72" x="116.259766"/>
       <use xlink:href="#DejaVuSans-64" x="155.623047"/>
       <use xlink:href="#DejaVuSans-69" x="219.099609"/>
       <use xlink:href="#DejaVuSans-6f" x="246.882812"/>
      </g>
     </g>
    </g>
    <g id="xtick_3">
     <g id="line2d_3">
      <g>
       <use xlink:href="#m615fec0655" x="619.729167" y="575.57" style="stroke: #000000; stroke-width: 0.8"/>
      </g>
     </g>
     <g id="text_3">
      <!-- gasId -->
      <g transform="translate(626.627604 650.030938) rotate(-90) scale(0.25 -0.25)">
       <defs>
        <path id="DejaVuSans-67" d="M 2906 1791 
Q 2906 2416 2648 2759 
Q 2391 3103 1925 3103 
Q 1463 3103 1205 2759 
Q 947 2416 947 1791 
Q 947 1169 1205 825 
Q 1463 481 1925 481 
Q 2391 481 2648 825 
Q 2906 1169 2906 1791 
z
M 3481 434 
Q 3481 -459 3084 -895 
Q 2688 -1331 1869 -1331 
Q 1566 -1331 1297 -1286 
Q 1028 -1241 775 -1147 
L 775 -588 
Q 1028 -725 1275 -790 
Q 1522 -856 1778 -856 
Q 2344 -856 2625 -561 
Q 2906 -266 2906 331 
L 2906 616 
Q 2728 306 2450 153 
Q 2172 0 1784 0 
Q 1141 0 747 490 
Q 353 981 353 1791 
Q 353 2603 747 3093 
Q 1141 3584 1784 3584 
Q 2172 3584 2450 3431 
Q 2728 3278 2906 2969 
L 2906 3500 
L 3481 3500 
L 3481 434 
z
" transform="scale(0.015625)"/>
        <path id="DejaVuSans-73" d="M 2834 3397 
L 2834 2853 
Q 2591 2978 2328 3040 
Q 2066 3103 1784 3103 
Q 1356 3103 1142 2972 
Q 928 2841 928 2578 
Q 928 2378 1081 2264 
Q 1234 2150 1697 2047 
L 1894 2003 
Q 2506 1872 2764 1633 
Q 3022 1394 3022 966 
Q 3022 478 2636 193 
Q 2250 -91 1575 -91 
Q 1294 -91 989 -36 
Q 684 19 347 128 
L 347 722 
Q 666 556 975 473 
Q 1284 391 1588 391 
Q 1994 391 2212 530 
Q 2431 669 2431 922 
Q 2431 1156 2273 1281 
Q 2116 1406 1581 1522 
L 1381 1569 
Q 847 1681 609 1914 
Q 372 2147 372 2553 
Q 372 3047 722 3315 
Q 1072 3584 1716 3584 
Q 2034 3584 2315 3537 
Q 2597 3491 2834 3397 
z
" transform="scale(0.015625)"/>
        <path id="DejaVuSans-49" d="M 628 4666 
L 1259 4666 
L 1259 0 
L 628 0 
L 628 4666 
z
" transform="scale(0.015625)"/>
       </defs>
       <use xlink:href="#DejaVuSans-67"/>
       <use xlink:href="#DejaVuSans-61" x="63.476562"/>
       <use xlink:href="#DejaVuSans-73" x="124.755859"/>
       <use xlink:href="#DejaVuSans-49" x="176.855469"/>
       <use xlink:href="#DejaVuSans-64" x="206.347656"/>
      </g>
     </g>
    </g>
    <g id="xtick_4">
     <g id="line2d_4">
      <g>
       <use xlink:href="#m615fec0655" x="829.920833" y="575.57" style="stroke: #000000; stroke-width: 0.8"/>
      </g>
     </g>
     <g id="text_4">
      <!-- pendigits -->
      <g transform="translate(836.819271 698.124688) rotate(-90) scale(0.25 -0.25)">
       <defs>
        <path id="DejaVuSans-70" d="M 1159 525 
L 1159 -1331 
L 581 -1331 
L 581 3500 
L 1159 3500 
L 1159 2969 
Q 1341 3281 1617 3432 
Q 1894 3584 2278 3584 
Q 2916 3584 3314 3078 
Q 3713 2572 3713 1747 
Q 3713 922 3314 415 
Q 2916 -91 2278 -91 
Q 1894 -91 1617 61 
Q 1341 213 1159 525 
z
M 3116 1747 
Q 3116 2381 2855 2742 
Q 2594 3103 2138 3103 
Q 1681 3103 1420 2742 
Q 1159 2381 1159 1747 
Q 1159 1113 1420 752 
Q 1681 391 2138 391 
Q 2594 391 2855 752 
Q 3116 1113 3116 1747 
z
" transform="scale(0.015625)"/>
        <path id="DejaVuSans-65" d="M 3597 1894 
L 3597 1613 
L 953 1613 
Q 991 1019 1311 708 
Q 1631 397 2203 397 
Q 2534 397 2845 478 
Q 3156 559 3463 722 
L 3463 178 
Q 3153 47 2828 -22 
Q 2503 -91 2169 -91 
Q 1331 -91 842 396 
Q 353 884 353 1716 
Q 353 2575 817 3079 
Q 1281 3584 2069 3584 
Q 2775 3584 3186 3129 
Q 3597 2675 3597 1894 
z
M 3022 2063 
Q 3016 2534 2758 2815 
Q 2500 3097 2075 3097 
Q 1594 3097 1305 2825 
Q 1016 2553 972 2059 
L 3022 2063 
z
" transform="scale(0.015625)"/>
        <path id="DejaVuSans-6e" d="M 3513 2113 
L 3513 0 
L 2938 0 
L 2938 2094 
Q 2938 2591 2744 2837 
Q 2550 3084 2163 3084 
Q 1697 3084 1428 2787 
Q 1159 2491 1159 1978 
L 1159 0 
L 581 0 
L 581 3500 
L 1159 3500 
L 1159 2956 
Q 1366 3272 1645 3428 
Q 1925 3584 2291 3584 
Q 2894 3584 3203 3211 
Q 3513 2838 3513 2113 
z
" transform="scale(0.015625)"/>
        <path id="DejaVuSans-74" d="M 1172 4494 
L 1172 3500 
L 2356 3500 
L 2356 3053 
L 1172 3053 
L 1172 1153 
Q 1172 725 1289 603 
Q 1406 481 1766 481 
L 2356 481 
L 2356 0 
L 1766 0 
Q 1100 0 847 248 
Q 594 497 594 1153 
L 594 3053 
L 172 3053 
L 172 3500 
L 594 3500 
L 594 4494 
L 1172 4494 
z
" transform="scale(0.015625)"/>
       </defs>
       <use xlink:href="#DejaVuSans-70"/>
       <use xlink:href="#DejaVuSans-65" x="63.476562"/>
       <use xlink:href="#DejaVuSans-6e" x="125"/>
       <use xlink:href="#DejaVuSans-64" x="188.378906"/>
       <use xlink:href="#DejaVuSans-69" x="251.855469"/>
       <use xlink:href="#DejaVuSans-67" x="279.638672"/>
       <use xlink:href="#DejaVuSans-69" x="343.115234"/>
       <use xlink:href="#DejaVuSans-74" x="370.898438"/>
       <use xlink:href="#DejaVuSans-73" x="410.107422"/>
      </g>
     </g>
    </g>
    <g id="xtick_5">
     <g id="line2d_5">
      <g>
       <use xlink:href="#m615fec0655" x="1040.1125" y="575.57" style="stroke: #000000; stroke-width: 0.8"/>
      </g>
     </g>
     <g id="text_5">
      <!-- winered -->
      <g transform="translate(1047.010937 682.155938) rotate(-90) scale(0.25 -0.25)">
       <defs>
        <path id="DejaVuSans-77" d="M 269 3500 
L 844 3500 
L 1563 769 
L 2278 3500 
L 2956 3500 
L 3675 769 
L 4391 3500 
L 4966 3500 
L 4050 0 
L 3372 0 
L 2619 2869 
L 1863 0 
L 1184 0 
L 269 3500 
z
" transform="scale(0.015625)"/>
       </defs>
       <use xlink:href="#DejaVuSans-77"/>
       <use xlink:href="#DejaVuSans-69" x="81.787109"/>
       <use xlink:href="#DejaVuSans-6e" x="109.570312"/>
       <use xlink:href="#DejaVuSans-65" x="172.949219"/>
       <use xlink:href="#DejaVuSans-72" x="234.472656"/>
       <use xlink:href="#DejaVuSans-65" x="273.335938"/>
       <use xlink:href="#DejaVuSans-64" x="334.859375"/>
      </g>
     </g>
    </g>
    <g id="xtick_6">
     <g id="line2d_6">
      <g>
       <use xlink:href="#m615fec0655" x="1250.304167" y="575.57" style="stroke: #000000; stroke-width: 0.8"/>
      </g>
     </g>
     <g id="text_6">
      <!-- winewhite -->
      <g transform="translate(1257.202604 709.605156) rotate(-90) scale(0.25 -0.25)">
       <defs>
        <path id="DejaVuSans-68" d="M 3513 2113 
L 3513 0 
L 2938 0 
L 2938 2094 
Q 2938 2591 2744 2837 
Q 2550 3084 2163 3084 
Q 1697 3084 1428 2787 
Q 1159 2491 1159 1978 
L 1159 0 
L 581 0 
L 581 4863 
L 1159 4863 
L 1159 2956 
Q 1366 3272 1645 3428 
Q 1925 3584 2291 3584 
Q 2894 3584 3203 3211 
Q 3513 2838 3513 2113 
z
" transform="scale(0.015625)"/>
       </defs>
       <use xlink:href="#DejaVuSans-77"/>
       <use xlink:href="#DejaVuSans-69" x="81.787109"/>
       <use xlink:href="#DejaVuSans-6e" x="109.570312"/>
       <use xlink:href="#DejaVuSans-65" x="172.949219"/>
       <use xlink:href="#DejaVuSans-77" x="234.472656"/>
       <use xlink:href="#DejaVuSans-68" x="316.259766"/>
       <use xlink:href="#DejaVuSans-69" x="379.638672"/>
       <use xlink:href="#DejaVuSans-74" x="407.421875"/>
       <use xlink:href="#DejaVuSans-65" x="446.630859"/>
      </g>
     </g>
    </g>
   </g>
   <g id="matplotlib.axis_2">
    <g id="ytick_1">
     <g id="line2d_7">
      <defs>
       <path id="m27e689dead" d="M 0 0 
L -3.5 0 
" style="stroke: #000000; stroke-width: 0.8"/>
      </defs>
      <g>
       <use xlink:href="#m27e689dead" x="94.25" y="575.57" style="stroke: #000000; stroke-width: 0.8"/>
      </g>
     </g>
     <g id="text_7">
      <!-- 0 -->
      <g transform="translate(71.34375 585.068047) scale(0.25 -0.25)">
       <defs>
        <path id="DejaVuSans-30" d="M 2034 4250 
Q 1547 4250 1301 3770 
Q 1056 3291 1056 2328 
Q 1056 1369 1301 889 
Q 1547 409 2034 409 
Q 2525 409 2770 889 
Q 3016 1369 3016 2328 
Q 3016 3291 2770 3770 
Q 2525 4250 2034 4250 
z
M 2034 4750 
Q 2819 4750 3233 4129 
Q 3647 3509 3647 2328 
Q 3647 1150 3233 529 
Q 2819 -91 2034 -91 
Q 1250 -91 836 529 
Q 422 1150 422 2328 
Q 422 3509 836 4129 
Q 1250 4750 2034 4750 
z
" transform="scale(0.015625)"/>
       </defs>
       <use xlink:href="#DejaVuSans-30"/>
      </g>
     </g>
    </g>
    <g id="ytick_2">
     <g id="line2d_8">
      <g>
       <use xlink:href="#m27e689dead" x="94.25" y="464.165009" style="stroke: #000000; stroke-width: 0.8"/>
      </g>
     </g>
     <g id="text_8">
      <!-- 20 -->
      <g transform="translate(55.4375 473.663055) scale(0.25 -0.25)">
       <defs>
        <path id="DejaVuSans-32" d="M 1228 531 
L 3431 531 
L 3431 0 
L 469 0 
L 469 531 
Q 828 903 1448 1529 
Q 2069 2156 2228 2338 
Q 2531 2678 2651 2914 
Q 2772 3150 2772 3378 
Q 2772 3750 2511 3984 
Q 2250 4219 1831 4219 
Q 1534 4219 1204 4116 
Q 875 4013 500 3803 
L 500 4441 
Q 881 4594 1212 4672 
Q 1544 4750 1819 4750 
Q 2544 4750 2975 4387 
Q 3406 4025 3406 3419 
Q 3406 3131 3298 2873 
Q 3191 2616 2906 2266 
Q 2828 2175 2409 1742 
Q 1991 1309 1228 531 
z
" transform="scale(0.015625)"/>
       </defs>
       <use xlink:href="#DejaVuSans-32"/>
       <use xlink:href="#DejaVuSans-30" x="63.623047"/>
      </g>
     </g>
    </g>
    <g id="ytick_3">
     <g id="line2d_9">
      <g>
       <use xlink:href="#m27e689dead" x="94.25" y="352.760017" style="stroke: #000000; stroke-width: 0.8"/>
      </g>
     </g>
     <g id="text_9">
      <!-- 40 -->
      <g transform="translate(55.4375 362.258064) scale(0.25 -0.25)">
       <defs>
        <path id="DejaVuSans-34" d="M 2419 4116 
L 825 1625 
L 2419 1625 
L 2419 4116 
z
M 2253 4666 
L 3047 4666 
L 3047 1625 
L 3713 1625 
L 3713 1100 
L 3047 1100 
L 3047 0 
L 2419 0 
L 2419 1100 
L 313 1100 
L 313 1709 
L 2253 4666 
z
" transform="scale(0.015625)"/>
       </defs>
       <use xlink:href="#DejaVuSans-34"/>
       <use xlink:href="#DejaVuSans-30" x="63.623047"/>
      </g>
     </g>
    </g>
    <g id="ytick_4">
     <g id="line2d_10">
      <g>
       <use xlink:href="#m27e689dead" x="94.25" y="241.355026" style="stroke: #000000; stroke-width: 0.8"/>
      </g>
     </g>
     <g id="text_10">
      <!-- 60 -->
      <g transform="translate(55.4375 250.853072) scale(0.25 -0.25)">
       <defs>
        <path id="DejaVuSans-36" d="M 2113 2584 
Q 1688 2584 1439 2293 
Q 1191 2003 1191 1497 
Q 1191 994 1439 701 
Q 1688 409 2113 409 
Q 2538 409 2786 701 
Q 3034 994 3034 1497 
Q 3034 2003 2786 2293 
Q 2538 2584 2113 2584 
z
M 3366 4563 
L 3366 3988 
Q 3128 4100 2886 4159 
Q 2644 4219 2406 4219 
Q 1781 4219 1451 3797 
Q 1122 3375 1075 2522 
Q 1259 2794 1537 2939 
Q 1816 3084 2150 3084 
Q 2853 3084 3261 2657 
Q 3669 2231 3669 1497 
Q 3669 778 3244 343 
Q 2819 -91 2113 -91 
Q 1303 -91 875 529 
Q 447 1150 447 2328 
Q 447 3434 972 4092 
Q 1497 4750 2381 4750 
Q 2619 4750 2861 4703 
Q 3103 4656 3366 4563 
z
" transform="scale(0.015625)"/>
       </defs>
       <use xlink:href="#DejaVuSans-36"/>
       <use xlink:href="#DejaVuSans-30" x="63.623047"/>
      </g>
     </g>
    </g>
    <g id="ytick_5">
     <g id="line2d_11">
      <g>
       <use xlink:href="#m27e689dead" x="94.25" y="129.950034" style="stroke: #000000; stroke-width: 0.8"/>
      </g>
     </g>
     <g id="text_11">
      <!-- 80 -->
      <g transform="translate(55.4375 139.448081) scale(0.25 -0.25)">
       <defs>
        <path id="DejaVuSans-38" d="M 2034 2216 
Q 1584 2216 1326 1975 
Q 1069 1734 1069 1313 
Q 1069 891 1326 650 
Q 1584 409 2034 409 
Q 2484 409 2743 651 
Q 3003 894 3003 1313 
Q 3003 1734 2745 1975 
Q 2488 2216 2034 2216 
z
M 1403 2484 
Q 997 2584 770 2862 
Q 544 3141 544 3541 
Q 544 4100 942 4425 
Q 1341 4750 2034 4750 
Q 2731 4750 3128 4425 
Q 3525 4100 3525 3541 
Q 3525 3141 3298 2862 
Q 3072 2584 2669 2484 
Q 3125 2378 3379 2068 
Q 3634 1759 3634 1313 
Q 3634 634 3220 271 
Q 2806 -91 2034 -91 
Q 1263 -91 848 271 
Q 434 634 434 1313 
Q 434 1759 690 2068 
Q 947 2378 1403 2484 
z
M 1172 3481 
Q 1172 3119 1398 2916 
Q 1625 2713 2034 2713 
Q 2441 2713 2670 2916 
Q 2900 3119 2900 3481 
Q 2900 3844 2670 4047 
Q 2441 4250 2034 4250 
Q 1625 4250 1398 4047 
Q 1172 3844 1172 3481 
z
" transform="scale(0.015625)"/>
       </defs>
       <use xlink:href="#DejaVuSans-38"/>
       <use xlink:href="#DejaVuSans-30" x="63.623047"/>
      </g>
     </g>
    </g>
    <g id="text_12">
     <!-- Area (cm²) -->
     <g transform="translate(46.238281 382.951875) rotate(-90) scale(0.25 -0.25)">
      <defs>
       <path id="DejaVuSans-41" d="M 2188 4044 
L 1331 1722 
L 3047 1722 
L 2188 4044 
z
M 1831 4666 
L 2547 4666 
L 4325 0 
L 3669 0 
L 3244 1197 
L 1141 1197 
L 716 0 
L 50 0 
L 1831 4666 
z
" transform="scale(0.015625)"/>
       <path id="DejaVuSans-20" transform="scale(0.015625)"/>
       <path id="DejaVuSans-28" d="M 1984 4856 
Q 1566 4138 1362 3434 
Q 1159 2731 1159 2009 
Q 1159 1288 1364 580 
Q 1569 -128 1984 -844 
L 1484 -844 
Q 1016 -109 783 600 
Q 550 1309 550 2009 
Q 550 2706 781 3412 
Q 1013 4119 1484 4856 
L 1984 4856 
z
" transform="scale(0.015625)"/>
       <path id="DejaVuSans-6d" d="M 3328 2828 
Q 3544 3216 3844 3400 
Q 4144 3584 4550 3584 
Q 5097 3584 5394 3201 
Q 5691 2819 5691 2113 
L 5691 0 
L 5113 0 
L 5113 2094 
Q 5113 2597 4934 2840 
Q 4756 3084 4391 3084 
Q 3944 3084 3684 2787 
Q 3425 2491 3425 1978 
L 3425 0 
L 2847 0 
L 2847 2094 
Q 2847 2600 2669 2842 
Q 2491 3084 2119 3084 
Q 1678 3084 1418 2786 
Q 1159 2488 1159 1978 
L 1159 0 
L 581 0 
L 581 3500 
L 1159 3500 
L 1159 2956 
Q 1356 3278 1631 3431 
Q 1906 3584 2284 3584 
Q 2666 3584 2933 3390 
Q 3200 3197 3328 2828 
z
" transform="scale(0.015625)"/>
       <path id="DejaVuSans-b2" d="M 838 2444 
L 2163 2444 
L 2163 2088 
L 294 2088 
L 294 2431 
Q 400 2528 597 2703 
Q 1672 3656 1672 3950 
Q 1672 4156 1509 4282 
Q 1347 4409 1081 4409 
Q 919 4409 728 4354 
Q 538 4300 313 4191 
L 313 4575 
Q 553 4663 761 4706 
Q 969 4750 1147 4750 
Q 1600 4750 1872 4544 
Q 2144 4338 2144 4000 
Q 2144 3566 1109 2678 
Q 934 2528 838 2444 
z
" transform="scale(0.015625)"/>
       <path id="DejaVuSans-29" d="M 513 4856 
L 1013 4856 
Q 1481 4119 1714 3412 
Q 1947 2706 1947 2009 
Q 1947 1309 1714 600 
Q 1481 -109 1013 -844 
L 513 -844 
Q 928 -128 1133 580 
Q 1338 1288 1338 2009 
Q 1338 2731 1133 3434 
Q 928 4138 513 4856 
z
" transform="scale(0.015625)"/>
      </defs>
      <use xlink:href="#DejaVuSans-41"/>
      <use xlink:href="#DejaVuSans-72" x="68.408203"/>
      <use xlink:href="#DejaVuSans-65" x="107.271484"/>
      <use xlink:href="#DejaVuSans-61" x="168.794922"/>
      <use xlink:href="#DejaVuSans-20" x="230.074219"/>
      <use xlink:href="#DejaVuSans-28" x="261.861328"/>
      <use xlink:href="#DejaVuSans-63" x="300.875"/>
      <use xlink:href="#DejaVuSans-6d" x="355.855469"/>
      <use xlink:href="#DejaVuSans-b2" x="453.267578"/>
      <use xlink:href="#DejaVuSans-29" x="493.355469"/>
     </g>
    </g>
   </g>
   <g id="patch_51">
    <path d="M 94.25 575.57 
L 94.25 57.24 
" style="fill: none; stroke: #000000; stroke-width: 0.8; stroke-linejoin: miter; stroke-linecap: square"/>
   </g>
   <g id="patch_52">
    <path d="M 1355.4 575.57 
L 1355.4 57.24 
" style="fill: none; stroke: #000000; stroke-width: 0.8; stroke-linejoin: miter; stroke-linecap: square"/>
   </g>
   <g id="patch_53">
    <path d="M 94.25 575.57 
L 1355.4 575.57 
" style="fill: none; stroke: #000000; stroke-width: 0.8; stroke-linejoin: miter; stroke-linecap: square"/>
   </g>
   <g id="patch_54">
    <path d="M 94.25 57.24 
L 1355.4 57.24 
" style="fill: none; stroke: #000000; stroke-width: 0.8; stroke-linejoin: miter; stroke-linecap: square"/>
   </g>
   <g id="text_13">
    <!-- Area comparison -->
    <g transform="translate(597.9625 51.000937) scale(0.3 -0.3)">
     <use xlink:href="#DejaVuSans-41"/>
     <use xlink:href="#DejaVuSans-72" x="68.408203"/>
     <use xlink:href="#DejaVuSans-65" x="107.271484"/>
     <use xlink:href="#DejaVuSans-61" x="168.794922"/>
     <use xlink:href="#DejaVuSans-20" x="230.074219"/>
     <use xlink:href="#DejaVuSans-63" x="261.861328"/>
     <use xlink:href="#DejaVuSans-6f" x="316.841797"/>
     <use xlink:href="#DejaVuSans-6d" x="378.023438"/>
     <use xlink:href="#DejaVuSans-70" x="475.435547"/>
     <use xlink:href="#DejaVuSans-61" x="538.912109"/>
     <use xlink:href="#DejaVuSans-72" x="600.191406"/>
     <use xlink:href="#DejaVuSans-69" x="641.304688"/>
     <use xlink:href="#DejaVuSans-73" x="669.087891"/>
     <use xlink:href="#DejaVuSans-6f" x="721.1875"/>
     <use xlink:href="#DejaVuSans-6e" x="782.369141"/>
    </g>
   </g>
   <g id="legend_1">
    <g id="patch_55">
     <path d="M 1118.263281 370.8025 
L 1337.9 370.8025 
Q 1342.9 370.8025 1342.9 365.8025 
L 1342.9 74.74 
Q 1342.9 69.74 1337.9 69.74 
L 1118.263281 69.74 
Q 1113.263281 69.74 1113.263281 74.74 
L 1113.263281 365.8025 
Q 1113.263281 370.8025 1118.263281 370.8025 
z
" style="fill: #ffffff; opacity: 0.8; stroke: #cccccc; stroke-linejoin: miter"/>
    </g>
    <g id="patch_56">
     <path d="M 1123.263281 98.736094 
L 1173.263281 98.736094 
L 1173.263281 81.236094 
L 1123.263281 81.236094 
z
" style="fill: #1f77b4"/>
    </g>
    <g id="text_14">
     <!-- bnndsat -->
     <g transform="translate(1193.263281 98.736094) scale(0.25 -0.25)">
      <defs>
       <path id="DejaVuSans-62" d="M 3116 1747 
Q 3116 2381 2855 2742 
Q 2594 3103 2138 3103 
Q 1681 3103 1420 2742 
Q 1159 2381 1159 1747 
Q 1159 1113 1420 752 
Q 1681 391 2138 391 
Q 2594 391 2855 752 
Q 3116 1113 3116 1747 
z
M 1159 2969 
Q 1341 3281 1617 3432 
Q 1894 3584 2278 3584 
Q 2916 3584 3314 3078 
Q 3713 2572 3713 1747 
Q 3713 922 3314 415 
Q 2916 -91 2278 -91 
Q 1894 -91 1617 61 
Q 1341 213 1159 525 
L 1159 0 
L 581 0 
L 581 4863 
L 1159 4863 
L 1159 2969 
z
" transform="scale(0.015625)"/>
      </defs>
      <use xlink:href="#DejaVuSans-62"/>
      <use xlink:href="#DejaVuSans-6e" x="63.476562"/>
      <use xlink:href="#DejaVuSans-6e" x="126.855469"/>
      <use xlink:href="#DejaVuSans-64" x="190.234375"/>
      <use xlink:href="#DejaVuSans-73" x="253.710938"/>
      <use xlink:href="#DejaVuSans-61" x="305.810547"/>
      <use xlink:href="#DejaVuSans-74" x="367.089844"/>
     </g>
    </g>
    <g id="patch_57">
     <path d="M 1123.263281 135.431406 
L 1173.263281 135.431406 
L 1173.263281 117.931406 
L 1123.263281 117.931406 
z
" style="fill: #ff7f0e"/>
    </g>
    <g id="text_15">
     <!-- bnndirect -->
     <g transform="translate(1193.263281 135.431406) scale(0.25 -0.25)">
      <use xlink:href="#DejaVuSans-62"/>
      <use xlink:href="#DejaVuSans-6e" x="63.476562"/>
      <use xlink:href="#DejaVuSans-6e" x="126.855469"/>
      <use xlink:href="#DejaVuSans-64" x="190.234375"/>
      <use xlink:href="#DejaVuSans-69" x="253.710938"/>
      <use xlink:href="#DejaVuSans-72" x="281.494141"/>
      <use xlink:href="#DejaVuSans-65" x="320.357422"/>
      <use xlink:href="#DejaVuSans-63" x="381.880859"/>
      <use xlink:href="#DejaVuSans-74" x="436.861328"/>
     </g>
    </g>
    <g id="patch_58">
     <path d="M 1123.263281 172.126719 
L 1173.263281 172.126719 
L 1173.263281 154.626719 
L 1123.263281 154.626719 
z
" style="fill: #2ca02c"/>
    </g>
    <g id="text_16">
     <!-- bnnrobus -->
     <g transform="translate(1193.263281 172.126719) scale(0.25 -0.25)">
      <defs>
       <path id="DejaVuSans-75" d="M 544 1381 
L 544 3500 
L 1119 3500 
L 1119 1403 
Q 1119 906 1312 657 
Q 1506 409 1894 409 
Q 2359 409 2629 706 
Q 2900 1003 2900 1516 
L 2900 3500 
L 3475 3500 
L 3475 0 
L 2900 0 
L 2900 538 
Q 2691 219 2414 64 
Q 2138 -91 1772 -91 
Q 1169 -91 856 284 
Q 544 659 544 1381 
z
M 1991 3584 
L 1991 3584 
z
" transform="scale(0.015625)"/>
      </defs>
      <use xlink:href="#DejaVuSans-62"/>
      <use xlink:href="#DejaVuSans-6e" x="63.476562"/>
      <use xlink:href="#DejaVuSans-6e" x="126.855469"/>
      <use xlink:href="#DejaVuSans-72" x="190.234375"/>
      <use xlink:href="#DejaVuSans-6f" x="229.097656"/>
      <use xlink:href="#DejaVuSans-62" x="290.279297"/>
      <use xlink:href="#DejaVuSans-75" x="353.755859"/>
      <use xlink:href="#DejaVuSans-73" x="417.134766"/>
     </g>
    </g>
    <g id="patch_59">
     <path d="M 1123.263281 208.822031 
L 1173.263281 208.822031 
L 1173.263281 191.322031 
L 1123.263281 191.322031 
z
" style="fill: #d62728"/>
    </g>
    <g id="text_17">
     <!-- bnnrolx -->
     <g transform="translate(1193.263281 208.822031) scale(0.25 -0.25)">
      <defs>
       <path id="DejaVuSans-6c" d="M 603 4863 
L 1178 4863 
L 1178 0 
L 603 0 
L 603 4863 
z
" transform="scale(0.015625)"/>
       <path id="DejaVuSans-78" d="M 3513 3500 
L 2247 1797 
L 3578 0 
L 2900 0 
L 1881 1375 
L 863 0 
L 184 0 
L 1544 1831 
L 300 3500 
L 978 3500 
L 1906 2253 
L 2834 3500 
L 3513 3500 
z
" transform="scale(0.015625)"/>
      </defs>
      <use xlink:href="#DejaVuSans-62"/>
      <use xlink:href="#DejaVuSans-6e" x="63.476562"/>
      <use xlink:href="#DejaVuSans-6e" x="126.855469"/>
      <use xlink:href="#DejaVuSans-72" x="190.234375"/>
      <use xlink:href="#DejaVuSans-6f" x="229.097656"/>
      <use xlink:href="#DejaVuSans-6c" x="290.279297"/>
      <use xlink:href="#DejaVuSans-78" x="318.0625"/>
     </g>
    </g>
    <g id="patch_60">
     <path d="M 1123.263281 245.517344 
L 1173.263281 245.517344 
L 1173.263281 228.017344 
L 1123.263281 228.017344 
z
" style="fill: #9467bd"/>
    </g>
    <g id="text_18">
     <!-- bnnrospine -->
     <g transform="translate(1193.263281 245.517344) scale(0.25 -0.25)">
      <use xlink:href="#DejaVuSans-62"/>
      <use xlink:href="#DejaVuSans-6e" x="63.476562"/>
      <use xlink:href="#DejaVuSans-6e" x="126.855469"/>
      <use xlink:href="#DejaVuSans-72" x="190.234375"/>
      <use xlink:href="#DejaVuSans-6f" x="229.097656"/>
      <use xlink:href="#DejaVuSans-73" x="290.279297"/>
      <use xlink:href="#DejaVuSans-70" x="342.378906"/>
      <use xlink:href="#DejaVuSans-69" x="405.855469"/>
      <use xlink:href="#DejaVuSans-6e" x="433.638672"/>
      <use xlink:href="#DejaVuSans-65" x="497.017578"/>
     </g>
    </g>
    <g id="patch_61">
     <path d="M 1123.263281 282.212656 
L 1173.263281 282.212656 
L 1173.263281 264.712656 
L 1123.263281 264.712656 
z
" style="fill: #8c564b"/>
    </g>
    <g id="text_19">
     <!-- bnndw -->
     <g transform="translate(1193.263281 282.212656) scale(0.25 -0.25)">
      <use xlink:href="#DejaVuSans-62"/>
      <use xlink:href="#DejaVuSans-6e" x="63.476562"/>
      <use xlink:href="#DejaVuSans-6e" x="126.855469"/>
      <use xlink:href="#DejaVuSans-64" x="190.234375"/>
      <use xlink:href="#DejaVuSans-77" x="253.710938"/>
     </g>
    </g>
    <g id="patch_62">
     <path d="M 1123.263281 318.907969 
L 1173.263281 318.907969 
L 1173.263281 301.407969 
L 1123.263281 301.407969 
z
" style="fill: #e377c2"/>
    </g>
    <g id="text_20">
     <!-- bnnrolin -->
     <g transform="translate(1193.263281 318.907969) scale(0.25 -0.25)">
      <use xlink:href="#DejaVuSans-62"/>
      <use xlink:href="#DejaVuSans-6e" x="63.476562"/>
      <use xlink:href="#DejaVuSans-6e" x="126.855469"/>
      <use xlink:href="#DejaVuSans-72" x="190.234375"/>
      <use xlink:href="#DejaVuSans-6f" x="229.097656"/>
      <use xlink:href="#DejaVuSans-6c" x="290.279297"/>
      <use xlink:href="#DejaVuSans-69" x="318.0625"/>
      <use xlink:href="#DejaVuSans-6e" x="345.845703"/>
     </g>
    </g>
    <g id="patch_63">
     <path d="M 1123.263281 355.603281 
L 1173.263281 355.603281 
L 1173.263281 338.103281 
L 1123.263281 338.103281 
z
" style="fill: #7f7f7f"/>
    </g>
    <g id="text_21">
     <!-- bnnseq -->
     <g transform="translate(1193.263281 355.603281) scale(0.25 -0.25)">
      <defs>
       <path id="DejaVuSans-71" d="M 947 1747 
Q 947 1113 1208 752 
Q 1469 391 1925 391 
Q 2381 391 2643 752 
Q 2906 1113 2906 1747 
Q 2906 2381 2643 2742 
Q 2381 3103 1925 3103 
Q 1469 3103 1208 2742 
Q 947 2381 947 1747 
z
M 2906 525 
Q 2725 213 2448 61 
Q 2172 -91 1784 -91 
Q 1150 -91 751 415 
Q 353 922 353 1747 
Q 353 2572 751 3078 
Q 1150 3584 1784 3584 
Q 2172 3584 2448 3432 
Q 2725 3281 2906 2969 
L 2906 3500 
L 3481 3500 
L 3481 -1331 
L 2906 -1331 
L 2906 525 
z
" transform="scale(0.015625)"/>
      </defs>
      <use xlink:href="#DejaVuSans-62"/>
      <use xlink:href="#DejaVuSans-6e" x="63.476562"/>
      <use xlink:href="#DejaVuSans-6e" x="126.855469"/>
      <use xlink:href="#DejaVuSans-73" x="190.234375"/>
      <use xlink:href="#DejaVuSans-65" x="242.333984"/>
      <use xlink:href="#DejaVuSans-71" x="303.857422"/>
     </g>
    </g>
   </g>
  </g>
 </g>
 <defs>
  <clipPath id="p2b6721639e">
   <rect x="94.25" y="57.24" width="1261.15" height="518.33"/>
  </clipPath>
 </defs>
</svg>
